<svg xmlns="http://www.w3.org/2000/svg" width="46" height="46" viewBox="0 0 46 46" fill="none">
  <path d="M45.6161 13.2794C45.7167 13.4554 45.7818 13.6497 45.8074 13.8511C45.833 14.0524 45.8186 14.2569 45.7652 14.4527C45.7118 14.6485 45.6203 14.8317 45.4961 14.9919C45.3718 15.1521 45.2172 15.286 45.0412 15.386L40.0835 18.2578L38.5566 15.5771L43.3276 12.7053C43.6877 12.5492 44.0803 12.4833 44.4715 12.5135C44.7038 12.557 44.9251 12.6473 45.1218 12.779C45.3185 12.9106 45.4866 13.0808 45.6161 13.2794ZM0.205791 13.2794C0.432124 12.926 0.766953 12.657 1.15998 12.5135C1.35214 12.4512 1.55638 12.4361 1.75556 12.4695C1.95473 12.5028 2.14301 12.5837 2.30458 12.7053L7.07553 15.5771L5.54868 18.2578L0.778449 15.386C0.602441 15.286 0.447867 15.1521 0.323621 14.9919C0.199375 14.8317 0.107909 14.6485 0.0544869 14.4527C0.00106448 14.2569 -0.0132605 14.0524 0.0123363 13.8511C0.0379331 13.6497 0.102946 13.4554 0.203635 13.2794H0.205791ZM9.74626 3.7055C10.1066 3.54932 10.4995 3.48348 10.8909 3.51366C11.2841 3.65683 11.6194 3.92599 11.845 4.27957L14.7076 9.06686L12.0362 10.5987L9.17432 5.81139C9.07374 5.63537 9.00882 5.44113 8.98328 5.23985C8.95775 5.03856 8.9721 4.83419 9.02552 4.63849C9.07893 4.44279 9.17036 4.25962 9.29455 4.0995C9.41873 3.93938 9.57322 3.80549 9.74913 3.7055H9.74626ZM23.0862 0C23.5342 0.000583085 23.9671 0.162151 24.3066 0.455446C24.6462 0.748741 24.8698 1.15437 24.9371 1.59889V7.15209H21.3719V1.59889C21.1807 0.83298 22.132 0 23.0862 0ZM35.8873 3.7055C36.0632 3.80549 36.2177 3.93938 36.3419 4.0995C36.4661 4.25962 36.5575 4.44279 36.611 4.63849C36.6644 4.83419 36.6787 5.03856 36.6532 5.23985C36.6276 5.44113 36.5627 5.63537 36.4622 5.81139L33.6003 10.5987L30.9289 9.06686L33.7907 4.27957C34.0593 3.96771 34.3827 3.70809 34.7449 3.51366C35.1264 3.51366 35.6991 3.51366 35.8895 3.7055H35.8873ZM24.0548 17.8719L16.2316 30.8679H22.528L21.0011 40.092L29.1979 27.2936H22.528L24.0548 17.8719ZM10.3168 42.3695H7.04392V27.2547C7.1208 18.5275 14.2154 11.5067 22.9102 11.5535C24.966 11.5467 27.0028 11.9481 28.9034 12.7348C30.8039 13.5215 32.5307 14.6778 33.9841 16.1371C35.4375 17.5965 36.5889 19.3301 37.3719 21.238C38.1549 23.1459 38.5542 25.1905 38.5466 27.254V42.3688H10.3168V42.3695ZM1.73048 42.3695H44.2825C44.7562 42.4096 45.1971 42.6289 45.5159 42.9829C45.8347 43.3369 46.0076 43.7992 45.9997 44.2763C46.0005 44.5029 45.9566 44.7274 45.8706 44.9368C45.7845 45.1463 45.6581 45.3366 45.4985 45.4968C45.3389 45.657 45.1492 45.784 44.9405 45.8703C44.7319 45.9567 44.5082 46.0007 44.2825 46H1.73192C1.50614 46.0009 1.28241 45.957 1.07363 45.8707C0.864856 45.7844 0.67517 45.6575 0.515518 45.4973C0.355867 45.337 0.229411 45.1466 0.143447 44.9371C0.057484 44.7275 0.0137149 44.5029 0.0146655 44.2763C0.00678598 43.7992 0.179739 43.3369 0.49854 42.9829C0.817341 42.6289 1.25819 42.4096 1.73192 42.3695" fill="url(#paint0_linear_598_28484)"/>
  <defs>
    <linearGradient id="paint0_linear_598_28484" x1="23" y1="0" x2="23" y2="46" gradientUnits="userSpaceOnUse">
      <stop stop-color="white"/>
      <stop offset="1" stop-color="white" stop-opacity="0.66"/>
    </linearGradient>
  </defs>
</svg>