<svg xmlns="http://www.w3.org/2000/svg" width="48" height="48" viewBox="0 0 48 48" fill="none">
  <path d="M14.8016 19.6499H28.3516C30.3849 19.6499 32.1099 20.3749 33.5266 21.8249C34.9432 23.2749 35.6516 25.0332 35.6516 27.0999C35.6516 29.1666 34.9432 30.9249 33.5266 32.3749C32.1099 33.8249 30.3849 34.5499 28.3516 34.5499H14.8516C14.1849 34.5499 13.6266 34.7749 13.1766 35.2249C12.7266 35.6749 12.5016 36.2332 12.5016 36.8999C12.5016 37.5666 12.7266 38.1249 13.1766 38.5749C13.6266 39.0249 14.1849 39.2499 14.8516 39.2499H28.3016C31.6349 39.2499 34.4766 38.0666 36.8266 35.6999C39.1766 33.3332 40.3516 30.4666 40.3516 27.0999C40.3516 23.7666 39.1766 20.9082 36.8266 18.5249C34.4766 16.1416 31.6349 14.9499 28.3016 14.9499H14.8016L18.1016 11.6499C18.5682 11.1832 18.8016 10.6416 18.8016 10.0249C18.8016 9.40824 18.5682 8.8499 18.1016 8.3499C17.6349 7.88324 17.0849 7.6499 16.4516 7.6499C15.8182 7.6499 15.2682 7.88324 14.8016 8.3499L7.50156 15.5999C7.26823 15.8332 7.0849 16.0999 6.95156 16.3999C6.81823 16.6999 6.75156 16.9999 6.75156 17.2999C6.75156 17.5999 6.81823 17.8999 6.95156 18.1999C7.0849 18.4999 7.26823 18.7666 7.50156 18.9999L14.8016 26.1999C15.2682 26.6999 15.8182 26.9499 16.4516 26.9499C17.0849 26.9499 17.6349 26.6999 18.1016 26.1999C18.5682 25.7332 18.8016 25.1916 18.8016 24.5749C18.8016 23.9582 18.5682 23.3999 18.1016 22.8999L14.8016 19.6499Z" fill="url(#paint0_linear_686_3255)"/>
  <defs>
    <linearGradient id="paint0_linear_686_3255" x1="23.5516" y1="7.6499" x2="23.5516" y2="39.2499" gradientUnits="userSpaceOnUse">
      <stop stop-color="white"/>
      <stop offset="1" stop-color="white" stop-opacity="0.66"/>
    </linearGradient>
  </defs>
</svg>