<svg xmlns="http://www.w3.org/2000/svg" width="44" height="44" viewBox="0 0 44 44" fill="none">
  <path d="M30.0667 44L13.9944 38.3167L3.05556 42.6556C2.36296 43.0222 1.68056 43.0019 1.00833 42.5944C0.336111 42.187 0 41.5759 0 40.7611V6.66111C0 6.13148 0.152778 5.66296 0.458333 5.25556C0.763889 4.84815 1.16111 4.54259 1.65 4.33889L13.9944 0L30.0667 5.62222L40.9444 1.28333C41.637 0.957407 42.3194 0.987963 42.9917 1.375C43.6639 1.76204 44 2.36296 44 3.17778V37.7056C44 38.1537 43.8472 38.5407 43.5417 38.8667C43.2361 39.1926 42.8593 39.437 42.4111 39.6L30.0667 44ZM27.9889 39.4167V8.55556L16.0111 4.52222V35.3833L27.9889 39.4167Z" fill="url(#paint0_linear_598_28481)"/>
  <defs>
    <linearGradient id="paint0_linear_598_28481" x1="22" y1="0" x2="22" y2="44" gradientUnits="userSpaceOnUse">
      <stop stop-color="white"/>
      <stop offset="1" stop-color="white" stop-opacity="0.66"/>
    </linearGradient>
  </defs>
</svg>