<svg xmlns="http://www.w3.org/2000/svg" width="47" height="47" viewBox="0 0 47 47" fill="none">
  <path d="M35.8918 46.5448C29.8004 43.3989 19.7954 45.4701 13.7041 44.6586C7.61269 43.847 3.68025 38.2227 1.60906 32.4197C-3.68955 17.5802 5.19056 13.5539 12.4131 13.8798C19.6387 14.215 16.6181 6.80157 26.7453 1.26496C36.8725 -4.27165 39.6049 9.96624 38.48 13.1998C37.352 16.4334 36.5749 19.5229 44.2173 27.6257C51.8597 35.7317 41.9831 49.697 35.8918 46.5448ZM40.9147 27.8357C34.2248 21.0583 34.1214 18.1787 35.2682 15.1331C36.2553 12.4948 35.7038 0.60696 27.0555 5.1973C18.4073 9.79077 21.008 17.2011 14.8791 17.0131C8.74699 16.8251 0.346294 20.2091 4.69234 32.1879C6.39066 36.8691 10.3701 40.6134 15.534 41.2025C20.6978 41.7947 29.1111 40.3345 34.2499 42.8193C39.3887 45.3071 47.3225 34.3279 40.9147 27.8357ZM29.838 36.3771C26.667 35.1896 25.9651 31.1821 26.9083 27.8795C27.8546 24.5707 24.9656 20.0023 23.6245 17.4361C22.2865 14.8605 25.4136 9.07324 28.7351 8.1865C34.1277 6.74517 31.411 15.2271 31.6366 20.8891C31.8685 26.551 39.9464 30.2389 39.8618 33.7044C39.7772 37.1699 33.0059 37.5678 29.838 36.3771ZM21.6629 31.8119C18.8805 34.3342 15.3334 35.6596 11.7457 34.4533C8.16417 33.2438 5.77651 27.3625 8.55898 24.8778C14.2305 19.8081 14.8258 25.1159 19.4507 22.8631C24.0725 20.6133 24.4423 29.2895 21.6629 31.8119Z" fill="url(#paint0_linear_598_28477)"/>
  <defs>
    <linearGradient id="paint0_linear_598_28477" x1="23.5" y1="0" x2="23.5" y2="47" gradientUnits="userSpaceOnUse">
      <stop stop-color="white"/>
      <stop offset="1" stop-color="white" stop-opacity="0.66"/>
    </linearGradient>
  </defs>
</svg>