<svg xmlns="http://www.w3.org/2000/svg" width="42" height="40" viewBox="0 0 42 40" fill="none">
  <path d="M23.1304 36.5435C23.1304 37.6903 22.1852 38.6199 21 38.6199C19.8148 38.6199 18.8696 37.6903 18.8696 36.5435V27.3727C18.8696 26.226 19.8148 25.2963 21 25.2963V24.9502C22.1852 24.9502 23.1304 26.226 23.1304 27.3727V36.5435Z" fill="url(#paint0_linear_598_28494)"/>
  <path d="M40.3261 38.454C40.3261 39.3078 39.6107 40 38.7283 40H3.22101C2.33856 40 1.62319 39.3078 1.62319 38.454C1.62319 37.6001 2.33856 36.908 3.22101 36.908H38.7283C39.6107 36.908 40.3261 37.6001 40.3261 38.454ZM42 3.40741C42 1.49615 40.4116 0 38.4363 0H3.56371C1.58839 0 0 1.49615 0 3.40741V21.0061H42V3.40741ZM0 25.8154C0 27.7267 1.58839 29.3006 3.56371 29.3006H38.4363C40.4116 29.3006 42 27.7267 42 25.8154V24.0982H0V25.8154Z" fill="url(#paint1_linear_598_28494)"/>
  <defs>
    <linearGradient id="paint0_linear_598_28494" x1="21" y1="0" x2="21" y2="40" gradientUnits="userSpaceOnUse">
      <stop stop-color="white"/>
      <stop offset="1" stop-color="white" stop-opacity="0.66"/>
    </linearGradient>
    <linearGradient id="paint1_linear_598_28494" x1="21" y1="0" x2="21" y2="40" gradientUnits="userSpaceOnUse">
      <stop stop-color="white"/>
      <stop offset="1" stop-color="white" stop-opacity="0.66"/>
    </linearGradient>
  </defs>
</svg>