<svg xmlns="http://www.w3.org/2000/svg" width="42" height="44" viewBox="0 0 42 44" fill="none">
  <path d="M37.6089 0H4.39106C1.96671 0 0 1.97022 0 4.4V24.9837C0 27.413 1.96622 29.3837 4.39106 29.3837H37.6089C40.0333 29.3837 42 27.4135 42 24.9837V4.4C42 1.97022 40.0338 0 37.6089 0ZM25.353 16.2218L18.9762 21.2148C17.7165 22.2097 15.8644 21.2916 15.8644 19.6846V9.71764C15.8644 8.0916 17.7165 7.19253 18.9762 8.18742L25.3525 13.1614C26.3454 13.9456 26.3454 15.4567 25.353 16.2218ZM38.19 32.2794H3.82656C2.77222 32.2794 1.91743 33.1349 1.91743 34.1924C1.91743 35.2499 2.77222 36.1054 3.82656 36.1054H8.80603L5.41954 40.9963C4.81943 41.865 5.03362 43.0569 5.90061 43.6583C6.23238 43.89 6.61098 44 6.98666 44C7.59165 44 8.1864 43.7125 8.5572 43.1782L13.4542 36.1054H29.8177L34.7138 43.1782C35.0846 43.7125 35.6793 44 36.2843 44C36.66 44 37.0386 43.89 37.3704 43.6583C38.2374 43.0569 38.4515 41.865 37.8514 40.9963L34.4659 36.1054H38.19C39.2444 36.1054 40.0992 35.2499 40.0992 34.1924C40.0992 33.1349 39.2444 32.2794 38.19 32.2794Z" fill="url(#paint0_linear_598_28491)"/>
  <defs>
    <linearGradient id="paint0_linear_598_28491" x1="21" y1="0" x2="21" y2="44" gradientUnits="userSpaceOnUse">
      <stop stop-color="white"/>
      <stop offset="1" stop-color="white" stop-opacity="0.66"/>
    </linearGradient>
  </defs>
</svg>