<svg xmlns="http://www.w3.org/2000/svg" width="47" height="44" viewBox="0 0 47 44" fill="none">
  <path d="M37.3661 25.6843C37.6329 25.8544 37.86 26.0798 38.0319 26.3452L46.5311 39.4807C46.8178 39.9233 46.9791 40.4351 46.9981 40.9619C47.0171 41.4886 46.8929 42.0107 46.6388 42.4727C46.3834 42.9358 46.0081 43.3218 45.5522 43.5905C45.0962 43.8592 44.5764 44.0006 44.047 44H28.2912C27.7616 44.0005 27.2417 43.8589 26.7858 43.5901C26.3298 43.3212 25.9546 42.935 25.6993 42.4717C25.4452 42.0097 25.3211 41.4877 25.34 40.9609C25.359 40.4341 25.5203 39.9223 25.807 39.4797L34.3062 26.3443C34.6258 25.8533 35.1268 25.5084 35.7 25.3847C36.2732 25.2611 36.8721 25.3688 37.3661 25.6843ZM36.1686 38.1333C35.8784 38.1349 35.5952 38.2222 35.3547 38.3843C35.1142 38.5464 34.9272 38.776 34.8172 39.0441C34.7073 39.3123 34.6793 39.6069 34.7368 39.8909C34.7944 40.1749 34.9349 40.4355 35.1406 40.6398C35.3463 40.8442 35.608 40.9831 35.8927 41.039C36.1774 41.095 36.4723 41.0655 36.7403 40.9543C37.0082 40.843 37.2371 40.655 37.3982 40.414C37.5592 40.173 37.6452 39.8897 37.6452 39.6C37.6452 39.4067 37.6069 39.2154 37.5326 39.0369C37.4583 38.8585 37.3494 38.6964 37.2122 38.5601C37.075 38.4238 36.9122 38.316 36.733 38.2427C36.5539 38.1695 36.3621 38.1323 36.1686 38.1333ZM35.4303 22C35.9058 21.9991 36.3745 22.1131 36.7962 22.3324C36.2105 22.2055 35.6 22.2591 35.0455 22.4861C34.4909 22.713 34.0184 23.1027 33.6903 23.6036L23.2719 39.6H2.9522C2.17121 39.6018 1.42148 39.2938 0.867861 38.7437C0.314244 38.1937 0.00207497 37.4465 0 36.6667L0 24.9333C0.00207498 24.1535 0.314244 23.4063 0.867861 22.8563C1.42148 22.3062 2.17121 21.9982 2.9522 22H35.4303ZM36.1686 29.3333C35.975 29.3323 35.7832 29.3695 35.6041 29.4427C35.425 29.516 35.2622 29.6238 35.1249 29.7601C34.9877 29.8964 34.8788 30.0585 34.8045 30.2369C34.7302 30.4154 34.692 30.6067 34.692 30.8V35.2C34.7019 35.5844 34.8618 35.9496 35.1375 36.218C35.4132 36.4863 35.7831 36.6365 36.1681 36.6365C36.5531 36.6365 36.9229 36.4863 37.1987 36.218C37.4744 35.9496 37.6343 35.5844 37.6442 35.2V30.8C37.6442 30.6067 37.6059 30.4154 37.5316 30.2369C37.4573 30.0585 37.3484 29.8964 37.2112 29.7601C37.074 29.6238 36.9112 29.516 36.7321 29.4427C36.553 29.3695 36.3611 29.3323 36.1676 29.3333H36.1686ZM35.4303 7.99953e-06C36.2113 -0.00180963 36.961 0.306185 37.5146 0.856265C38.0682 1.40634 38.3804 2.15347 38.3825 2.93334V14.6667C38.3804 15.4465 38.0682 16.1937 37.5146 16.7437C36.961 17.2938 36.2113 17.6018 35.4303 17.6H2.9522C2.17121 17.6018 1.42148 17.2938 0.867861 16.7437C0.314244 16.1937 0.00207497 15.4465 0 14.6667L0 2.93334C0.00207498 2.15347 0.314244 1.40634 0.867861 0.856265C1.42148 0.306185 2.17121 -0.00180963 2.9522 7.99953e-06H35.4303ZM12.5481 3.66667H6.64367C6.45077 3.66664 6.25975 3.70455 6.08152 3.77825C5.90329 3.85194 5.74135 3.95997 5.60494 4.09616C5.46852 4.23236 5.36031 4.39405 5.28649 4.57201C5.21266 4.74997 5.17466 4.94071 5.17466 5.13334C5.17466 5.32597 5.21266 5.51671 5.28649 5.69467C5.36031 5.87263 5.46852 6.03432 5.60494 6.17052C5.74135 6.30671 5.90329 6.41474 6.08152 6.48844C6.25975 6.56213 6.45077 6.60004 6.64367 6.60001H12.549C12.7419 6.60004 12.933 6.56213 13.1112 6.48844C13.2894 6.41474 13.4514 6.30671 13.5878 6.17052C13.7242 6.03432 13.8324 5.87263 13.9062 5.69467C13.98 5.51671 14.018 5.32597 14.018 5.13334C14.018 4.94071 13.98 4.74997 13.9062 4.57201C13.8324 4.39405 13.7242 4.23236 13.5878 4.09616C13.4514 3.95997 13.2894 3.85194 13.1112 3.77825C12.933 3.70455 12.7419 3.66664 12.549 3.66667H12.5481Z" fill="url(#paint0_linear_598_28487)"/>
  <defs>
    <linearGradient id="paint0_linear_598_28487" x1="23.5" y1="0" x2="23.5" y2="44" gradientUnits="userSpaceOnUse">
      <stop stop-color="white"/>
      <stop offset="1" stop-color="white" stop-opacity="0.66"/>
    </linearGradient>
  </defs>
</svg>