<svg width="262" height="81" viewBox="0 0 262 81" fill="none" xmlns="http://www.w3.org/2000/svg">
<path d="M236.164 31.2422C249.963 31.2422 261.166 42.3898 261.166 56.1211C261.166 69.8523 249.963 81 236.164 81C222.366 80.9998 211.163 69.8522 211.163 56.1211C211.163 42.39 222.366 31.2424 236.164 31.2422ZM13.751 31.2422H14.0869L16.9717 39.4717L24.4238 60.8096L31.877 39.4717L34.7617 31.2422H37.6455L37.6943 31.1943H48.8008V31.2422L31.8281 79.8516L31.4434 80.9521H17.4043L0 31.2422H2.30762V31.1943H13.751V31.2422ZM73.417 80.9521H59.3779V31.1943H73.417V80.9521ZM129.429 45.2129L106.254 66.9336H129.429V80.9521H85.7725V66.9336L91.3975 61.6709L108.946 45.2129H85.7725V31.1943H129.429V45.2129ZM185.44 45.2129L162.267 66.9336H185.44V80.9521H141.785V66.9336L147.41 61.6709L164.959 45.2129H141.785V31.1943H185.44V45.2129ZM202.461 80.9521H198.086V31.2422H202.461V80.9521ZM236.164 35.6914C224.77 35.6916 215.538 44.8779 215.538 56.2168C215.538 67.5557 224.77 76.7419 236.164 76.7422C247.559 76.7422 256.79 67.5558 256.79 56.2168C256.79 44.8778 247.559 35.6914 236.164 35.6914ZM20.1455 0C21.2512 3.85504e-05 22.3092 0.191505 23.2227 0.574219C24.136 0.956958 24.953 1.48361 25.626 2.20117C26.299 2.87093 26.8283 3.68385 27.2129 4.64062C27.5975 5.54966 27.79 6.6027 27.79 7.65527C27.79 8.70766 27.5974 9.76003 27.2129 10.6689C26.8283 11.6258 26.2991 12.3917 25.626 13.1094C24.953 13.7791 24.136 14.3536 23.2227 14.7363C22.3092 15.119 21.2512 15.3105 20.1455 15.3105C19.0398 15.3105 17.9818 15.119 17.0684 14.7363C16.1068 14.3536 15.3372 13.827 14.6641 13.1094C13.991 12.4396 13.4618 11.6258 13.0771 10.6689C12.6926 9.76006 12.501 8.70762 12.501 7.65527C12.501 6.6027 12.6925 5.54966 13.0771 4.64062C13.4617 3.73171 13.9911 2.91876 14.6641 2.20117C15.3372 1.53136 16.1549 0.956971 17.0684 0.574219C17.9818 0.191518 19.0398 0 20.1455 0ZM59.9551 2.24902H52.5029V6.60254H59.4258V8.46875H52.5029V13.1572H60.3398V15.0234H50.5312V0.478516L50.4834 0.382812H59.9551V2.24902ZM85.2451 2.24902H77.793V6.60254H84.7158V8.46875H77.793V13.1572H85.6299V15.0234H75.8213V0.478516L75.7734 0.382812H85.2451V2.24902ZM93.1768 0.382812C94.1864 0.382812 95.1006 0.478553 95.918 0.717773C96.687 0.956953 97.3597 1.24433 97.9365 1.6748C98.5135 2.1054 98.9943 2.53621 99.3789 3.01465C99.7635 3.54084 100.053 4.06658 100.293 4.59277C100.533 5.11904 100.677 5.64561 100.773 6.21973C100.87 6.79386 100.918 7.27253 100.918 7.70312C100.918 8.65985 100.725 9.5208 100.389 10.4297C100.052 11.2908 99.5237 12.0568 98.8506 12.7744C98.1775 13.4442 97.3602 14.0186 96.3506 14.4014C95.3409 14.832 94.1868 15.0234 92.8887 15.0234H88.1289V0.478516L88.0811 0.382812H93.1768ZM126.929 6.79395L131.063 0.382812H133.467L127.938 8.75586V14.9756H125.967V8.75586H125.919L120.39 0.382812H122.938L126.929 6.79395ZM6.29785 0.382812C7.21126 0.382837 8.02857 0.526425 8.60547 0.765625C9.23046 1.00484 9.71131 1.33992 10.0479 1.72266C10.3843 2.10537 10.6243 2.53629 10.7686 3.0625C10.9127 3.54073 10.9609 4.01879 10.9609 4.44922C10.9609 4.87982 10.9128 5.35847 10.7686 5.83691C10.6243 6.31534 10.3844 6.74617 10.0479 7.17676C9.7113 7.55949 9.23047 7.89458 8.60547 8.13379C7.9805 8.37298 7.21123 8.51658 6.29785 8.5166H3.12402V14.9277H1.15332V0.382812H6.29785ZM34.041 12.0088L37.5029 0.382812H39.7627L43.2236 12.0088L46.4453 0.382812H48.5127L44.2334 14.9277H42.1182L38.5605 3.01465L35.0508 14.9277H32.9346L28.6562 0.382812H30.8193L34.041 12.0088ZM68.2725 0.382812C69.1858 0.382856 70.0032 0.526441 70.5801 0.765625C71.205 1.00484 71.6859 1.33995 72.0225 1.72266C72.3589 2.10534 72.599 2.53633 72.7432 3.0625C72.8873 3.54071 72.9355 4.01881 72.9355 4.44922C72.9355 4.87979 72.8395 5.35849 72.6953 5.78906C72.5511 6.21959 72.3111 6.60266 71.9746 6.98535C71.6861 7.32026 71.3011 7.60746 70.8203 7.84668C70.3396 8.08585 69.8588 8.22948 69.3301 8.27734L73.4648 14.9277H70.9648L67.2627 8.5166H65.0508V14.9277H63.0791V0.382812H68.2725ZM114.572 0.382812C115.197 0.382812 115.775 0.478538 116.352 0.62207C116.88 0.765592 117.361 1.00504 117.745 1.29199C118.13 1.57906 118.467 1.96199 118.659 2.44043C118.899 2.91868 118.995 3.44474 118.995 4.06641C118.995 4.68837 118.755 5.59773 118.274 6.12402C117.794 6.65031 117.217 7.03324 116.447 7.27246C116.88 7.3203 117.313 7.46391 117.697 7.65527C118.082 7.84665 118.419 8.13383 118.707 8.4209C118.995 8.70783 119.236 9.13794 119.38 9.52051C119.524 9.95103 119.62 10.382 119.62 10.9082C119.62 11.4344 119.477 12.1524 119.236 12.6309C118.948 13.1093 118.611 13.5401 118.13 13.875C117.649 14.2098 117.12 14.4971 116.495 14.6406C115.87 14.8319 115.197 14.9277 114.477 14.9277H109.476V0.382812H114.572ZM20.1455 1.86621C19.3282 1.86621 18.5588 2.00985 17.8857 2.34473C17.2127 2.63178 16.6351 3.06164 16.1543 3.58789C15.6735 4.11414 15.2892 4.73648 15.0488 5.40625C14.8084 6.12391 14.6641 6.84192 14.6641 7.65527C14.6641 8.4684 14.8085 9.18584 15.0488 9.90332C15.2892 10.6209 15.6736 11.2433 16.1543 11.7217C16.6351 12.248 17.2126 12.6788 17.8857 12.9658C18.5588 13.2528 19.3283 13.4443 20.1455 13.4443C20.9627 13.4443 21.7323 13.3007 22.4053 12.9658C23.0783 12.6788 23.655 12.2479 24.1357 11.7217C24.6165 11.1954 25.0008 10.5731 25.2412 9.90332C25.4815 9.18581 25.6259 8.46843 25.626 7.65527C25.626 6.84192 25.4816 6.12391 25.2412 5.40625C25.0008 4.68868 24.6165 4.06628 24.1357 3.58789C23.6551 3.06183 23.0781 2.63175 22.4053 2.34473C21.7323 2.0577 20.9627 1.86626 20.1455 1.86621ZM111.447 13.2051H114.38C114.668 13.2051 115.005 13.2051 115.39 13.1094C115.774 13.0137 116.111 12.9179 116.399 12.7266C116.736 12.5352 116.976 12.2958 117.217 11.9609C117.457 11.6261 117.553 11.243 117.553 10.7168C117.553 9.85575 117.264 9.18641 116.688 8.75586C116.111 8.32526 115.341 8.08594 114.38 8.08594H111.447V13.2051ZM90.0518 13.1094H92.5518C93.3691 13.1094 94.1868 13.0136 94.9561 12.7744C95.7252 12.5352 96.3499 12.2 96.9268 11.7695C97.5037 11.3389 97.9369 10.7645 98.2734 10.0947C98.6099 9.42502 98.7539 8.61194 98.7539 7.70312C98.7539 6.79409 98.6579 6.69814 98.5137 6.07617C98.3694 5.45423 98.0811 4.87977 97.6484 4.30566C97.2158 3.73175 96.6388 3.25376 95.918 2.87109C95.1969 2.48838 94.1869 2.29692 93.0332 2.29688H90.0518V13.1094ZM3.12402 6.79395H5.7207C6.10533 6.79395 6.49038 6.79393 6.875 6.69824C7.2593 6.65037 7.5955 6.5067 7.88379 6.36328C8.17226 6.21975 8.41315 5.98042 8.60547 5.64551C8.79774 5.35844 8.89355 4.9276 8.89355 4.44922C8.89351 3.9711 8.79759 3.54091 8.60547 3.25391C8.41315 2.96684 8.17226 2.72751 7.88379 2.53613C7.59548 2.39269 7.25935 2.24906 6.875 2.20117C6.49038 2.15333 6.10533 2.10547 5.7207 2.10547H3.12402V6.79395ZM65.0986 6.79395H67.6953C68.0798 6.79395 68.4642 6.79382 68.8486 6.69824C69.2332 6.60258 69.57 6.50676 69.8584 6.36328C70.1469 6.21975 70.3878 5.98042 70.5801 5.64551C70.7723 5.35844 70.8682 4.92756 70.8682 4.44922C70.8681 3.97114 70.7722 3.54091 70.5801 3.25391C70.3878 2.96684 70.1469 2.72751 69.8584 2.53613C69.5699 2.39261 69.2332 2.24901 68.8486 2.20117C68.4642 2.15335 68.0798 2.10549 67.6953 2.10547H65.0986V6.79395ZM111.399 6.45898L111.447 6.41113H114.14C114.524 6.41113 114.861 6.4111 115.197 6.31543C115.534 6.21976 115.822 6.12393 116.062 5.93262C116.303 5.74124 116.495 5.54976 116.64 5.2627C116.784 4.97566 116.88 4.64051 116.88 4.25781C116.88 3.68384 116.687 3.2059 116.303 2.77539C115.918 2.34483 115.342 2.15335 114.524 2.15332H111.399V6.45898Z" fill="white"/>
</svg>
