<svg xmlns="http://www.w3.org/2000/svg" width="49" height="49" viewBox="0 0 49 49" fill="none">
  <path d="M18.625 20L16.9375 20C16.4594 20 16.0586 19.8403 15.7352 19.5208C15.4117 19.2014 15.25 18.8056 15.25 18.3333L15.25 16.6667C15.25 16.1944 15.4117 15.7986 15.7352 15.4792C16.0586 15.1597 16.4594 15 16.9375 15L30.4375 15L40.5625 18.5C41.0687 18.6667 41.4766 18.9653 41.7859 19.3958C42.0953 19.8264 42.25 20.3056 42.25 20.8333L42.25 39.1667C42.25 39.6944 42.0953 40.1736 41.7859 40.6042C41.4766 41.0347 41.0687 41.3333 40.5625 41.5L30.4375 45L16.9375 45C16.4594 45 16.0586 44.8403 15.7352 44.5208C15.4117 44.2014 15.25 43.8056 15.25 43.3333L15.25 41.6667C15.25 41.1944 15.4117 40.7986 15.7352 40.4792C16.0586 40.1597 16.4594 40 16.9375 40L18.625 40L18.625 20ZM33.8125 19.6667L33.8125 40.3333L38.875 38.5833L38.875 21.4167L33.8125 19.6667ZM23.6875 22.5C23.6875 23.1944 23.9336 23.7847 24.4258 24.2708C24.918 24.7569 25.5156 25 26.2188 25C26.9219 25 27.5195 24.7569 28.0117 24.2708C28.5039 23.7847 28.75 23.1944 28.75 22.5C28.75 21.8056 28.5039 21.2153 28.0117 20.7292C27.5195 20.2431 26.9219 20 26.2188 20C25.5156 20 24.918 20.2431 24.4258 20.7292C23.9336 21.2153 23.6875 21.8056 23.6875 22.5ZM23.6875 37.5C23.6875 38.1944 23.9336 38.7847 24.4258 39.2708C24.918 39.7569 25.5156 40 26.2188 40C26.9219 40 27.5195 39.7569 28.0117 39.2708C28.5039 38.7847 28.75 38.1944 28.75 37.5C28.75 36.8056 28.5039 36.2153 28.0117 35.7292C27.5195 35.2431 26.9219 35 26.2188 35C25.5156 35 24.918 35.2431 24.4258 35.7292C23.9336 36.2153 23.6875 36.8056 23.6875 37.5Z" fill="white"/>
  <path d="M26.75 12L29.25 6L22.25 8L20.25 2L16.75 8L11.75 3.5V10.5H5.25L9.75 15L5.25 20H11.75" stroke="white" stroke-width="2.5" stroke-linecap="round" stroke-linejoin="round"/>
</svg>