<svg xmlns="http://www.w3.org/2000/svg" width="32" height="33" viewBox="0 0 32 33" fill="none">
  <path d="M14.0722 18.5528L11.5967 16.0773C11.3251 15.8057 10.9897 15.6699 10.5905 15.6699C10.1912 15.6699 9.83725 15.8162 9.52853 16.1086C9.25695 16.4011 9.12117 16.7458 9.12117 17.1427C9.12117 17.5396 9.2674 17.8739 9.55987 18.1454L13.0068 21.6237C13.3088 21.9162 13.661 22.0624 14.0637 22.0624C14.4663 22.0624 14.8243 21.9162 15.1376 21.6237L22.2508 14.4792C22.5642 14.1867 22.7209 13.8461 22.7209 13.4573C22.7209 13.0685 22.5642 12.7197 22.2508 12.411C21.9584 12.1394 21.6073 12.0089 21.1976 12.0193C20.7879 12.0298 20.4392 12.1708 20.1513 12.4424L14.0722 18.5528ZM15.988 29.8337C14.1468 29.8337 12.4168 29.4881 10.798 28.797C9.17927 28.1058 7.76481 27.1552 6.55465 25.945C5.34449 24.7349 4.39384 23.3218 3.70273 21.706C3.01159 20.0901 2.66602 18.3616 2.66602 16.5203C2.66602 14.6582 3.01159 12.9177 3.70273 11.299C4.39384 9.68025 5.34285 8.27047 6.54973 7.06966C7.75661 5.86884 9.16876 4.91819 10.7862 4.21771C12.4036 3.51723 14.1338 3.16699 15.9768 3.16699C17.8406 3.16699 19.5832 3.51643 21.2044 4.2153C22.8256 4.91414 24.2358 5.86259 25.4351 7.06064C26.6343 8.25869 27.5838 9.66751 28.2833 11.2871C28.9829 12.9067 29.3327 14.6496 29.3327 16.516C29.3327 18.3601 28.9824 20.0914 28.282 21.7098C27.5815 23.3282 26.6308 24.7412 25.43 25.9488C24.2292 27.1565 22.8209 28.1058 21.205 28.797C19.5891 29.4881 17.8501 29.8337 15.988 29.8337Z" fill="#31C48D"/>
</svg>