<svg xmlns="http://www.w3.org/2000/svg" width="20" height="20" viewBox="0 0 20 20" fill="none">
  <path d="M11.5275 10.2129L6.00758 15.7327C5.81326 15.9271 5.71307 16.1669 5.70699 16.4523C5.70092 16.7377 5.79504 16.9837 5.98936 17.1901C6.19583 17.3966 6.4448 17.4998 6.73628 17.4998C7.02776 17.4998 7.27673 17.3966 7.48319 17.1901L13.2581 11.4152C13.4282 11.2452 13.5526 11.0569 13.6316 10.8505C13.7105 10.644 13.75 10.4315 13.75 10.2129C13.75 9.99425 13.7105 9.78171 13.6316 9.57524C13.5526 9.36878 13.4282 9.18053 13.2581 9.0105L7.46498 3.21735C7.25851 3.01089 7.01561 2.91069 6.73628 2.91676C6.45694 2.92284 6.21405 3.02303 6.00758 3.21735C5.81326 3.42382 5.71307 3.66975 5.70699 3.95516C5.70092 4.24057 5.80112 4.4865 6.00758 4.69297L11.5275 10.2129Z" fill="#C5C5C5"/>
</svg>