<svg xmlns="http://www.w3.org/2000/svg" width="21" height="21" viewBox="0 0 21 21" fill="none">
  <g clip-path="url(#clip0_7548_42330)">
    <path d="M10.7017 1.35279L10.7023 1.35337L16.807 7.16862C16.9233 7.28545 16.9802 7.43222 16.9789 7.57603C16.9776 7.72159 16.9166 7.86958 16.7949 7.98553C16.6718 8.10276 16.4971 8.17593 16.3063 8.17751C16.1178 8.17907 15.9432 8.11038 15.8178 7.99713L12.321 4.66614L10.8865 3.29967V5.28083V19.2318C10.8865 19.379 10.8255 19.529 10.7024 19.6462C10.578 19.7648 10.4007 19.8382 10.2077 19.8382C10.0147 19.8382 9.8374 19.7648 9.71291 19.6462C9.58981 19.529 9.52883 19.379 9.52883 19.2318V5.28083V3.30086L8.09461 4.66588L4.58832 8.003L4.58284 8.00822L4.57746 8.01352C4.51676 8.07339 4.44191 8.1233 4.35617 8.15839C4.27037 8.1935 4.17669 8.21249 4.08092 8.21328C3.98515 8.21407 3.89103 8.19664 3.80442 8.16288C3.71787 8.12915 3.64189 8.08035 3.5799 8.0213L3.03004 8.59852L3.5799 8.0213C3.518 7.96233 3.47141 7.89451 3.44069 7.82297C3.41001 7.75154 3.39516 7.67656 3.39584 7.602C3.39652 7.52743 3.41274 7.45259 3.44481 7.38147C3.47693 7.31024 3.5249 7.24297 3.58809 7.18484L3.59351 7.17985L3.59884 7.17478L9.71002 1.35337L9.71063 1.35279C9.77129 1.29489 9.84576 1.247 9.93069 1.21391L9.93069 1.21392L9.93356 1.21279C10.1074 1.14433 10.3049 1.14433 10.4787 1.21279L10.4787 1.21279L10.4816 1.21391C10.5665 1.247 10.641 1.29489 10.7017 1.35279Z" fill="#0E9F6E" stroke="#0E9F6E" stroke-width="1.69789"/>
  </g>
  <defs>
    <clipPath id="clip0_7548_42330">
      <rect width="20.3747" height="20.3747" fill="white" transform="translate(0 0.3125)"/>
    </clipPath>
  </defs>
</svg>