<svg xmlns="http://www.w3.org/2000/svg" width="48" height="48" viewBox="0 0 48 48" fill="none">
  <path d="M9 42C8.175 42 7.46875 41.7063 6.88125 41.1188C6.29375 40.5312 6 39.825 6 39V17.25C6 16.425 6.29375 15.7188 6.88125 15.1313C7.46875 14.5438 8.175 14.25 9 14.25H14.25V9C14.25 8.175 14.5438 7.46875 15.1313 6.88125C15.7188 6.29375 16.425 6 17.25 6H30.75C31.575 6 32.2812 6.29375 32.8687 6.88125C33.4562 7.46875 33.75 8.175 33.75 9V22.5H39C39.825 22.5 40.5312 22.7938 41.1188 23.3813C41.7063 23.9688 42 24.675 42 25.5V39C42 39.825 41.7063 40.5312 41.1188 41.1188C40.5312 41.7063 39.825 42 39 42H26.65V33.75H21.35V42H9ZM9 39H14.25V33.75H9V39ZM9 30.75H14.25V25.5H9V30.75ZM9 22.5H14.25V17.25H9V22.5ZM17.25 30.75H22.5V25.5H17.25V30.75ZM17.25 22.5H22.5V17.25H17.25V22.5ZM17.25 14.25H22.5V9H17.25V14.25ZM25.5 30.75H30.75V25.5H25.5V30.75ZM25.5 22.5H30.75V17.25H25.5V22.5ZM25.5 14.25H30.75V9H25.5V14.25ZM33.75 39H39V33.75H33.75V39ZM33.75 30.75H39V25.5H33.75V30.75Z" fill="white"/>
</svg>