<svg xmlns="http://www.w3.org/2000/svg" width="58" height="52" viewBox="0 0 58 52" fill="none">
  <path fill-rule="evenodd" clip-rule="evenodd" d="M1 1H57V51H1L1 1Z" fill="#0D1E26"/>
  <path d="M18.8201 30.3464V26.4168C18.8201 26.2813 18.7321 26.191 18.6002 26.1458L15.9168 25.6038C15.7409 25.5586 15.6089 25.649 15.6089 25.8296V39.4702C15.6089 39.6509 15.7848 39.7864 15.9608 39.7412L18.6441 38.7476C18.7321 38.7024 18.8201 38.6121 18.8201 38.4766V33.9598C18.8201 33.8243 18.9521 33.6888 19.084 33.6888H23.8789C23.9668 33.6888 24.0548 33.6436 24.0988 33.5985L26.6942 29.8496C26.7822 29.7141 26.7382 29.5334 26.6062 29.4882L23.439 27.6815C23.307 27.5912 23.131 27.6815 23.0871 27.817L22.2513 30.4819C22.2073 30.5722 22.1193 30.6626 21.9873 30.6626H19.172C18.9521 30.6626 18.8201 30.5271 18.8201 30.3464ZM46.2694 25.9651L23.0871 9.79517C23.0431 9.75 22.9991 9.75 22.9551 9.75H20.4477C20.3597 9.75 20.2717 9.79517 20.2278 9.8855L16.6206 15.8928C16.5767 15.938 16.5767 15.9831 16.5767 16.0283V17.9253C16.5767 18.0157 16.6206 18.106 16.7086 18.1512L37.2076 31.4304C37.2516 31.4756 37.2956 31.4756 37.3396 31.4756H38.9232C38.9672 31.4756 39.0112 31.4756 39.0552 31.4304L46.2694 26.4168C46.4454 26.2813 46.4454 26.0555 46.2694 25.9651ZM18.2922 20.4095L16.7966 22.1711C16.7086 22.3066 16.7086 22.4872 16.8406 22.5776L37.0756 35.9923C37.1196 36.0375 37.1636 36.0375 37.2076 36.0375H38.9232C39.0112 36.0375 39.0552 35.9923 39.0991 35.9472L39.9789 34.9987C40.0229 34.9535 40.0229 34.9535 40.0229 34.9083L40.8147 32.3338C40.8587 32.1983 40.6828 32.0628 40.5508 32.1531C39.9349 32.6499 38.7032 33.5985 38.3073 33.9146C38.2194 33.9598 38.0874 33.9598 37.9994 33.9146C37.4276 33.5081 36.8117 33.1468 36.1959 32.8306H36.1519L18.6441 20.3644C18.5122 20.3192 18.3802 20.3192 18.2922 20.4095Z" fill="white"/>
  <path d="M10.3098 1H1L1 51H10.3098" stroke="white" stroke-opacity="0.56" stroke-width="2"/>
  <path d="M47.6902 1H57L57 51H47.6902" stroke="white" stroke-opacity="0.56" stroke-width="2"/>
</svg>