<svg xmlns="http://www.w3.org/2000/svg" width="10" height="9" viewBox="0 0 10 9" fill="none">
  <path d="M6.88165 9C6.65007 8.99995 6.428 8.90521 6.26427 8.73662L2.7713 5.14104C2.60759 4.97247 2.51562 4.74388 2.51562 4.50552C2.51562 4.26717 2.60759 4.03857 2.7713 3.87L6.26427 0.274422C6.34482 0.188569 6.44118 0.120089 6.54772 0.0729785C6.65426 0.0258683 6.76885 0.0010711 6.88479 3.39396e-05C7.00074 -0.00100322 7.11573 0.0217402 7.22305 0.0669374C7.33037 0.112135 7.42787 0.17888 7.50986 0.26328C7.59185 0.34768 7.65669 0.448043 7.7006 0.558514C7.7445 0.668985 7.7666 0.787352 7.76559 0.906706C7.76458 1.02606 7.7405 1.14401 7.69473 1.25368C7.64896 1.36335 7.58244 1.46254 7.49903 1.54546L4.62345 4.50552L7.49903 7.46559C7.62112 7.5913 7.70426 7.75145 7.73794 7.92579C7.77162 8.10014 7.75433 8.28084 7.68825 8.44507C7.62217 8.6093 7.51027 8.74967 7.3667 8.84845C7.22313 8.94722 7.05434 8.99996 6.88165 9Z" fill="white"/>
</svg>