<svg xmlns="http://www.w3.org/2000/svg" width="10" height="9" viewBox="0 0 10 9" fill="none">
  <path d="M3.11054 9C2.93785 8.99996 2.76906 8.94722 2.62549 8.84845C2.48192 8.74967 2.37002 8.6093 2.30394 8.44507C2.23786 8.28084 2.22057 8.10014 2.25425 7.92579C2.28793 7.75145 2.37107 7.5913 2.49315 7.46559L5.36874 4.50552L2.49315 1.54546C2.40975 1.46254 2.34322 1.36335 2.29746 1.25368C2.25169 1.14401 2.2276 1.02606 2.2266 0.906706C2.22559 0.787352 2.24768 0.668985 2.29159 0.558514C2.3355 0.448043 2.40034 0.34768 2.48233 0.26328C2.56432 0.17888 2.66182 0.112135 2.76914 0.0669374C2.87646 0.0217402 2.99144 -0.00100322 3.10739 3.39396e-05C3.22334 0.0010711 3.33793 0.0258683 3.44447 0.0729785C3.55101 0.120089 3.64736 0.188569 3.72792 0.274422L7.22089 3.87C7.3846 4.03857 7.47656 4.26717 7.47656 4.50552C7.47656 4.74388 7.3846 4.97247 7.22089 5.14104L3.72792 8.73662C3.56419 8.90521 3.34212 8.99995 3.11054 9Z" fill="white"/>
</svg>