<svg xmlns="http://www.w3.org/2000/svg" width="24" height="24" viewBox="0 0 24 24" fill="none">
  <g clip-path="url(#clip0_7681_19572)">
    <path d="M14.4198 12L23.4776 2.94219C23.641 2.78433 23.7714 2.59549 23.8611 2.38671C23.9508 2.17793 23.998 1.95337 23.9999 1.72615C24.0019 1.49893 23.9586 1.27359 23.8726 1.06328C23.7865 0.852967 23.6595 0.661899 23.4988 0.501222C23.3381 0.340546 23.147 0.213478 22.9367 0.127433C22.7264 0.0413881 22.5011 -0.00190989 22.2738 6.46129e-05C22.0466 0.00203912 21.8221 0.049247 21.6133 0.138934C21.4045 0.22862 21.2157 0.35899 21.0578 0.522434L12 9.58025L2.94219 0.522434C2.61943 0.210711 2.18716 0.0382224 1.73847 0.0421214C1.28978 0.0460204 0.860565 0.225995 0.54328 0.54328C0.225995 0.860565 0.0460204 1.28978 0.0421214 1.73847C0.0382224 2.18716 0.210711 2.61943 0.522434 2.94219L9.58025 12L0.522434 21.0578C0.35899 21.2157 0.22862 21.4045 0.138934 21.6133C0.049247 21.8221 0.00203912 22.0466 6.46129e-05 22.2738C-0.00190989 22.5011 0.0413881 22.7264 0.127433 22.9367C0.213478 23.147 0.340546 23.3381 0.501222 23.4988C0.661899 23.6595 0.852967 23.7865 1.06328 23.8726C1.27359 23.9586 1.49893 24.0019 1.72615 23.9999C1.95337 23.998 2.17793 23.9508 2.38671 23.8611C2.59549 23.7714 2.78433 23.641 2.94219 23.4776L12 14.4198L21.0578 23.4776C21.3806 23.7893 21.8128 23.9618 22.2615 23.9579C22.7102 23.954 23.1394 23.774 23.4567 23.4567C23.774 23.1394 23.954 22.7102 23.9579 22.2615C23.9618 21.8128 23.7893 21.3806 23.4776 21.0578L14.4198 12Z" fill="white" fill-opacity="0.5"/>
  </g>
  <defs>
    <clipPath id="clip0_7681_19572">
      <rect width="24" height="24" fill="white"/>
    </clipPath>
  </defs>
</svg>