<svg xmlns="http://www.w3.org/2000/svg" width="36" height="36" viewBox="0 0 36 36" fill="none">
  <path d="M16.4062 25.1828L13.107 28.418C12.8721 28.6529 12.5785 28.7703 12.2262 28.7703C11.8738 28.7703 11.5802 28.6422 11.3453 28.3859C11.0891 28.151 10.9609 27.8574 10.9609 27.5051C10.9609 27.1527 11.0891 26.8484 11.3453 26.5922L16.4062 21.5312V18.9688H13.8438L8.75078 24.0617C8.51589 24.2966 8.22227 24.4141 7.86992 24.4141C7.51758 24.4141 7.21328 24.2859 6.95703 24.0297C6.72214 23.7948 6.60469 23.5012 6.60469 23.1488C6.60469 22.7965 6.72214 22.5029 6.95703 22.268L10.1922 18.9688H6.12422C5.7612 18.9688 5.46224 18.846 5.22734 18.6004C4.99245 18.3548 4.875 18.0505 4.875 17.6875C4.875 17.3245 4.99779 17.0202 5.24336 16.7746C5.48893 16.529 5.79323 16.4062 6.15625 16.4062H10.1922L6.95703 13.1391C6.72214 12.9042 6.60469 12.6105 6.60469 12.2582C6.60469 11.9059 6.73281 11.6016 6.98906 11.3453C7.22396 11.1104 7.51758 10.993 7.86992 10.993C8.22227 10.993 8.52656 11.1104 8.78281 11.3453L13.8438 16.4062H16.4062V13.8438L11.3133 8.78281C11.0784 8.54792 10.9609 8.2543 10.9609 7.90195C10.9609 7.54961 11.0891 7.24531 11.3453 6.98906C11.5802 6.75417 11.8738 6.63672 12.2262 6.63672C12.5785 6.63672 12.8721 6.75417 13.107 6.98906L16.4062 10.1922V6.15625C16.4062 5.79323 16.529 5.48893 16.7746 5.24336C17.0202 4.99779 17.3245 4.875 17.6875 4.875C18.0505 4.875 18.3548 4.99779 18.6004 5.24336C18.846 5.48893 18.9688 5.79323 18.9688 6.15625V10.1922L22.2359 6.98906C22.4708 6.75417 22.7645 6.63672 23.1168 6.63672C23.4691 6.63672 23.7734 6.75417 24.0297 6.98906C24.2646 7.24531 24.382 7.54961 24.382 7.90195C24.382 8.2543 24.2646 8.54792 24.0297 8.78281L18.9688 13.8438V16.4062H21.5312L26.5922 11.3453C26.8271 11.1104 27.1207 10.993 27.473 10.993C27.8254 10.993 28.1297 11.1211 28.3859 11.3773C28.6208 11.6122 28.7383 11.9059 28.7383 12.2582C28.7383 12.6105 28.6208 12.9042 28.3859 13.1391L25.1828 16.4062H29.2188C29.5818 16.4062 29.8861 16.529 30.1316 16.7746C30.3772 17.0202 30.5 17.3245 30.5 17.6875C30.5 18.0505 30.3772 18.3548 30.1316 18.6004C29.8861 18.846 29.5818 18.9688 29.2188 18.9688H25.1828L28.3859 22.268C28.6208 22.5029 28.7383 22.7965 28.7383 23.1488C28.7383 23.5012 28.6208 23.7948 28.3859 24.0297C28.1297 24.2859 27.8254 24.4141 27.473 24.4141C27.1207 24.4141 26.8271 24.2859 26.5922 24.0297L21.5312 18.9688H18.9688V21.5312L24.0297 26.6242C24.2646 26.8591 24.382 27.1527 24.382 27.5051C24.382 27.8574 24.2539 28.1617 23.9977 28.418C23.7628 28.6529 23.4691 28.7703 23.1168 28.7703C22.7645 28.7703 22.4708 28.6529 22.2359 28.418L18.9688 25.1828V29.2508C18.9688 29.6138 18.846 29.9128 18.6004 30.1477C18.3548 30.3826 18.0505 30.5 17.6875 30.5C17.3245 30.5 17.0202 30.3772 16.7746 30.1316C16.529 29.8861 16.4062 29.5818 16.4062 29.2188V25.1828Z" fill="white"/>
</svg>