<svg width="33" height="25" viewBox="0 0 33 25" fill="none" xmlns="http://www.w3.org/2000/svg">
<path d="M12.0497 16.8644L27.8467 1.15618C28.2214 0.783464 28.7287 0.574219 29.2574 0.574219C29.7862 0.574219 30.2934 0.783464 30.6682 1.15618L32.1259 2.60563C32.3125 2.79127 32.4607 3.01192 32.5617 3.25492C32.6628 3.49792 32.7148 3.75847 32.7148 4.02161C32.7148 4.28476 32.6628 4.54531 32.5617 4.78831C32.4607 5.03131 32.3125 5.25196 32.1259 5.4376L13.4965 23.9628C13.401 24.058 13.2961 24.1433 13.1835 24.2175C12.799 24.4842 12.3331 24.6077 11.8668 24.5664C11.4006 24.5252 10.9636 24.3218 10.632 23.9918L1.30381 14.7157C1.11714 14.53 0.96902 14.3094 0.867947 14.0664C0.766874 13.8234 0.714844 13.5628 0.714844 13.2997C0.714844 13.0366 0.766874 12.776 0.867947 12.533C0.96902 12.29 1.11714 12.0694 1.30381 11.8837L2.76153 10.4343C3.13627 10.0615 3.6435 9.8523 4.17226 9.8523C4.70102 9.8523 5.20825 10.0615 5.58299 10.4343L12.0497 16.8644Z" fill="white"/>
</svg>
