<svg xmlns="http://www.w3.org/2000/svg" width="48" height="48" viewBox="0 0 48 48" fill="none">
  <path fill-rule="evenodd" clip-rule="evenodd" d="M9 4C7.34315 4 6 5.34315 6 7V40H42V7C42 5.34315 40.6569 4 39 4H9ZM19.71 32.05L22.8 29.02V32.8C22.8 33.14 22.915 33.425 23.145 33.655C23.375 33.885 23.66 34 24 34C24.34 34 24.625 33.89 24.855 33.67C25.085 33.45 25.2 33.17 25.2 32.83V29.02L28.26 32.05C28.48 32.27 28.755 32.38 29.085 32.38C29.415 32.38 29.69 32.27 29.91 32.05C30.15 31.81 30.27 31.525 30.27 31.195C30.27 30.865 30.16 30.59 29.94 30.37L25.2 25.6V23.2H27.6L32.34 27.94C32.56 28.18 32.835 28.3 33.165 28.3C33.495 28.3 33.78 28.18 34.02 27.94C34.24 27.72 34.35 27.445 34.35 27.115C34.35 26.785 34.24 26.51 34.02 26.29L31.02 23.2H34.8C35.14 23.2 35.425 23.085 35.655 22.855C35.885 22.625 36 22.34 36 22C36 21.66 35.885 21.375 35.655 21.145C35.425 20.915 35.14 20.8 34.8 20.8H31.02L34.02 17.74C34.24 17.52 34.35 17.245 34.35 16.915C34.35 16.585 34.24 16.31 34.02 16.09C33.78 15.85 33.495 15.73 33.165 15.73C32.835 15.73 32.56 15.84 32.34 16.06L27.6 20.8H25.2V18.4L29.94 13.66C30.16 13.44 30.27 13.165 30.27 12.835C30.27 12.505 30.16 12.22 29.94 11.98C29.7 11.76 29.415 11.65 29.085 11.65C28.755 11.65 28.48 11.76 28.26 11.98L25.2 14.98V11.2C25.2 10.86 25.085 10.575 24.855 10.345C24.625 10.115 24.34 10 24 10C23.66 10 23.375 10.115 23.145 10.345C22.915 10.575 22.8 10.86 22.8 11.2V14.98L19.71 11.98C19.49 11.76 19.215 11.65 18.885 11.65C18.555 11.65 18.28 11.76 18.06 11.98C17.82 12.22 17.7 12.505 17.7 12.835C17.7 13.165 17.81 13.44 18.03 13.66L22.8 18.4V20.8H20.4L15.66 16.06C15.42 15.84 15.135 15.73 14.805 15.73C14.475 15.73 14.2 15.84 13.98 16.06C13.74 16.3 13.62 16.585 13.62 16.915C13.62 17.245 13.73 17.52 13.95 17.74L16.98 20.8H13.2C12.86 20.8 12.575 20.915 12.345 21.145C12.115 21.375 12 21.66 12 22C12 22.34 12.11 22.625 12.33 22.855C12.55 23.085 12.83 23.2 13.17 23.2H16.98L13.95 26.29C13.73 26.51 13.62 26.785 13.62 27.115C13.62 27.445 13.73 27.72 13.95 27.94C14.19 28.18 14.475 28.3 14.805 28.3C15.135 28.3 15.41 28.19 15.63 27.97L20.4 23.2H22.8V25.6L18.06 30.34C17.82 30.58 17.7 30.865 17.7 31.195C17.7 31.525 17.82 31.8 18.06 32.02C18.28 32.26 18.555 32.38 18.885 32.38C19.215 32.38 19.49 32.27 19.71 32.05Z" fill="white"/>
  <path d="M3 41C3 39.3431 4.34315 38 6 38H42C43.6569 38 45 39.3431 45 41C45 42.6569 43.6569 44 42 44H6C4.34315 44 3 42.6569 3 41Z" fill="white"/>
</svg>