<svg width="29" height="32" viewBox="0 0 29 32" fill="none" xmlns="http://www.w3.org/2000/svg">
<path d="M25.3762 32H3.20417C2.78326 31.9986 2.36693 31.9129 1.98 31.748C1.59306 31.5831 1.24344 31.3424 0.951965 31.0402C0.650245 30.7438 0.410718 30.3906 0.247297 30.0013C0.083875 29.6119 -0.000184487 29.1942 3.04011e-07 28.7722V6.40344C0.00535845 5.56095 0.350066 4.75578 0.951965 4.17101C1.24319 3.86848 1.59276 3.62755 1.97975 3.46263C2.36674 3.29771 2.78319 3.21219 3.20417 3.2112H9.8322C10.1519 2.28339 10.7431 1.47467 11.5272 0.891678C12.3257 0.312221 13.2885 0 14.2768 0C15.2651 0 16.2279 0.312221 17.0264 0.891678C17.8373 1.46578 18.4552 2.27984 18.791 3.22009H25.4208C26.2514 3.22365 27.0479 3.57202 27.6177 4.1799C28.2232 4.75933 28.5679 5.56273 28.5714 6.40344V28.7722C28.5625 29.6173 28.2244 30.4259 27.6285 31.0279C27.0325 31.6299 26.2251 31.9784 25.3762 32ZM6.32797 22.4073V25.6333H17.4854V22.4073H6.32797ZM6.32797 16.0424V19.1884H22.2149V16.0317L6.32797 16.0424ZM6.32797 9.59568V12.8235H22.2149V9.58679L6.32797 9.59568ZM14.2723 3.22898C14.0664 3.22829 13.8624 3.2685 13.6722 3.34724C13.4821 3.42598 13.3096 3.54167 13.165 3.68755C13.019 3.83464 12.9036 4.00895 12.8255 4.2005C12.7473 4.39204 12.7079 4.59704 12.7095 4.80377C12.7075 5.23066 12.8721 5.64166 13.1685 5.9502C13.3071 6.10528 13.4771 6.22941 13.6674 6.3144C13.8576 6.3994 14.0638 6.44335 14.2723 6.44335C14.4809 6.44335 14.687 6.3994 14.8773 6.3144C15.0675 6.22941 15.2375 6.10528 15.3761 5.9502C15.6724 5.64638 15.8382 5.23962 15.8382 4.81621C15.8382 4.3928 15.6724 3.98604 15.3761 3.68222C15.09 3.39097 14.6994 3.22474 14.2902 3.22009L14.2723 3.22898Z" fill="white"/>
</svg>
