
<svg width="54" height="54" viewBox="0 0 54 54" fill="none" xmlns="http://www.w3.org/2000/svg">
<g id="Frame">
<g id="Vector">
<path d="M29.5977 17.7719C31.681 17.7719 33.3698 16.0831 33.3698 13.9998C33.3698 11.9165 31.681 10.2277 29.5977 10.2277C27.5144 10.2277 25.8255 11.9165 25.8255 13.9998C25.8255 16.0831 27.5144 17.7719 29.5977 17.7719Z" fill="white"/>
<path d="M39.3181 27.2627C37.597 27.1642 35.9218 26.584 34.4611 25.5713C32.819 24.4338 31.5742 22.8415 30.8529 20.9754C30.0447 18.9561 27.912 17.8469 25.8421 18.4352C25.6539 18.4878 25.4596 18.5506 25.2599 18.6207C25.1951 18.641 25.131 18.6632 25.0676 18.6896C24.708 18.8225 24.3308 18.9817 23.9375 19.1659C22.1543 19.9134 20.3131 20.663 18.4301 21.4132C17.1887 21.9091 16.2556 23.0264 16.1261 24.2624C15.9662 25.8135 15.8569 27.3686 15.8002 28.9251C15.7901 29.2058 16.0357 29.4331 16.346 29.4331H19.0279C19.3389 29.4331 19.5885 29.2051 19.602 28.9251C19.6708 27.5096 19.8011 26.024 19.9947 24.6753C20.0028 24.6179 20.0385 24.566 20.0972 24.5424C21.1875 24.1106 22.269 23.6788 23.3377 23.2477C23.4551 23.2004 23.5752 23.2936 23.5455 23.4089C21.7596 30.3163 20.0466 37.3127 19.5845 44.1701C19.5642 44.4811 19.8463 44.7706 20.1647 44.7706C21.0465 44.7706 21.9276 44.7706 22.8094 44.7706C23.0503 44.7706 23.2439 44.6019 23.2736 44.3678C23.7162 40.8723 24.3963 37.3397 25.1587 33.801C25.1823 33.691 25.33 33.6458 25.4238 33.7207C26.5303 34.6072 27.632 35.4931 28.7169 36.3782C28.7507 36.4059 28.7702 36.445 28.7695 36.4869C28.7554 39.0925 28.7304 41.69 28.6947 44.2686C28.6913 44.5459 28.9146 44.7706 29.1932 44.7706C30.0575 44.7706 30.9218 44.7706 31.786 44.7706C32.0647 44.7706 32.3089 44.5459 32.3305 44.2686C32.5248 41.6691 32.6591 39.0493 32.7339 36.4221C32.7643 35.3925 32.2947 34.4082 31.4487 33.722C30.6836 33.1013 29.9131 32.4813 29.1406 31.8606C29.4941 30.2805 29.8423 28.7004 30.1722 27.123C30.1965 27.007 30.355 26.9658 30.4448 27.0529C30.9555 27.5474 31.5094 28.0048 32.1024 28.4198C34.2574 29.9256 36.7618 30.773 39.3748 30.8843C39.698 30.8978 39.9672 30.6678 39.9624 30.3763C39.9483 29.5067 39.9179 28.6377 39.872 27.7694C39.8579 27.5008 39.6136 27.2795 39.3181 27.2627Z" fill="white"/>
<path d="M41.25 51V48H48V41.25H51V48C51 48.7957 50.6839 49.5587 50.1213 50.1213C49.5587 50.6839 48.7957 51 48 51H41.25ZM12.75 51H6C5.20435 51 4.44129 50.6839 3.87868 50.1213C3.31607 49.5587 3 48.7957 3 48V41.25H6V48H12.75V51ZM51 12.75H48V6H41.25V3H48C48.7957 3 49.5587 3.31607 50.1213 3.87868C50.6839 4.44129 51 5.20435 51 6V12.75ZM6 12.75H3V6C3 5.20435 3.31607 4.44129 3.87868 3.87868C4.44129 3.31607 5.20435 3 6 3H12.75V6H6V12.75Z" fill="white"/>
</g>
</g>
</svg>
