<svg xmlns="http://www.w3.org/2000/svg" width="54" height="54" viewBox="0 0 54 54" fill="none">
  <path d="M23.8893 33.3448L20.7867 35.221L13.9999 31.1136V37.8917L20.7867 41.9991L26.5071 38.534L23.8893 36.962V33.3448Z" fill="white"/>
  <path d="M34.5543 23.9637L33.1969 23.1354L27.5413 26.5498L25.0043 25.0624L27.5897 23.5073V19.8901L20.8029 15.7826L14.0161 19.8901V28.088L15.3411 28.8824L20.8191 32.1954L23.9216 30.3192V27.4288L26.4263 28.8824V35.4577L33.2131 39.5651L39.9999 35.4577V27.2597L34.5543 23.9637Z" fill="white"/>
  <path d="M30.0944 22.0029L33.1969 20.1267L35.637 21.5973V15.1065L28.8501 10.9991L23.356 14.3121L30.0782 18.3688V22.0029H30.0944Z" fill="white"/>
  <path d="M41.25 51V48H48V41.25H51V48C51 48.7957 50.6839 49.5587 50.1213 50.1213C49.5587 50.6839 48.7957 51 48 51H41.25ZM12.75 51H6C5.20435 51 4.44129 50.6839 3.87868 50.1213C3.31607 49.5587 3 48.7957 3 48V41.25H6V48H12.75V51ZM51 12.75H48V6H41.25V3H48C48.7957 3 49.5587 3.31607 50.1213 3.87868C50.6839 4.44129 51 5.20435 51 6V12.75ZM6 12.75H3V6C3 5.20435 3.31607 4.44129 3.87868 3.87868C4.44129 3.31607 5.20435 3 6 3H12.75V6H6V12.75Z" fill="white"/>
</svg>