<svg xmlns="http://www.w3.org/2000/svg" width="54" height="54" viewBox="0 0 54 54" fill="none">
  <path d="M41.25 51V48H48V41.25H51V48C51 48.7957 50.6839 49.5587 50.1213 50.1213C49.5587 50.6839 48.7957 51 48 51H41.25ZM12.75 51H6C5.20435 51 4.44129 50.6839 3.87868 50.1213C3.31607 49.5587 3 48.7957 3 48V41.25H6V48H12.75V51ZM11.898 37.7363L21.048 34.9883C21.048 34.9883 22.371 34.5555 22.371 32.0355C22.371 32.0355 24.4328 34.7603 27.18 35.1165C28.9938 34.8878 30.6601 34 31.8615 32.622C31.8615 32.622 31.887 34.7348 33.5655 35.1938L42.6488 37.6883C42.6488 37.6883 37.0058 45.7132 27.3015 45.5783C27.3015 45.5783 27.1808 45.5858 26.9588 45.5858C24.0156 45.5141 21.1279 44.7694 18.5171 43.4087C15.9064 42.0481 13.6419 40.1077 11.8973 37.7363H11.898ZM22.0538 29.7443H6.29625V28.74H6.3V27.15H20.6528C19.6463 24.6915 18.9143 21.1755 18.828 16.1483C18.828 16.1483 18.828 8.4735 27.3713 8.88C27.3713 8.88 34.8465 8.32125 35.7113 15.7418C35.7113 15.7418 35.8717 22.1737 33.8527 27.15H46.8V28.74H46.8038V29.7443H32.475C31.9338 30.5957 31.2078 31.3142 30.3509 31.8466C29.4939 32.3789 28.5281 32.7114 27.525 32.8193C27.4288 32.8293 27.3322 32.8338 27.2355 32.8328C26.4263 32.8328 24.0683 32.5695 22.05 29.7443H22.0538ZM51 12.75H48V6H41.25V3H48C48.7957 3 49.5587 3.31607 50.1213 3.87868C50.6839 4.44129 51 5.20435 51 6V12.75ZM6 12.75H3V6C3 5.20435 3.31607 4.44129 3.87868 3.87868C4.44129 3.31607 5.20435 3 6 3H12.75V6H6V12.75Z" fill="white"/>
</svg>