<svg xmlns="http://www.w3.org/2000/svg" width="54" height="54" viewBox="0 0 54 54" fill="none">
  <path d="M41.25 51V48H48V41.25H51V48C51 48.7957 50.6839 49.5587 50.1213 50.1213C49.5587 50.6839 48.7957 51 48 51H41.25ZM12.75 51H6C5.20435 51 4.44129 50.6839 3.87868 50.1213C3.31607 49.5587 3 48.7957 3 48V41.25H6V48H12.75V51ZM51 12.75H48V6H41.25V3H48C48.7957 3 49.5587 3.31607 50.1213 3.87868C50.6839 4.44129 51 5.20435 51 6V12.75ZM6 12.75H3V6C3 5.20435 3.31607 4.44129 3.87868 3.87868C4.44129 3.31607 5.20435 3 6 3H12.75V6H6V12.75Z" fill="white"/>
  <path d="M34.9359 14C35.1253 14 35.3117 14.0474 35.4773 14.1377C35.6429 14.2279 35.7823 14.3581 35.8825 14.5159L35.9338 14.6057L38.7817 20.202L42 20.2027V22.3919L39.8964 22.3912L41.8766 26.2806C41.9381 26.4019 41.9762 26.5332 41.9888 26.6681L41.9941 26.7703L42 36.9865V39.9054C42 40.1775 41.8967 40.4399 41.7103 40.6413C41.5239 40.8427 41.2677 40.9688 40.9917 40.9949L40.8846 41H34.9359C34.6586 41 34.3913 40.8986 34.186 40.7157C33.9808 40.5327 33.8523 40.2813 33.8257 40.0105L33.8205 39.9054L33.8198 38.0811H21.1787L21.1795 39.9054C21.1795 40.1597 21.0894 40.406 20.9245 40.6021C20.7597 40.7983 20.5304 40.932 20.276 40.9803L20.1719 40.9949L20.0641 41H14.1154C13.8381 41 13.5708 40.8986 13.3655 40.7157C13.1603 40.5327 13.0318 40.2813 13.0052 40.0105L13 39.9054V26.7703C13 26.6345 13.026 26.5003 13.0758 26.374L13.1175 26.2806L15.0992 22.3919H13V20.2027L16.2145 20.202L19.0662 14.6049C19.151 14.4388 19.2774 14.2966 19.4336 14.1916C19.5899 14.0867 19.7708 14.0225 19.9593 14.0051L20.0641 14H34.9359ZM32.7051 30.0541H22.2949V32.2432H32.7051V30.0541Z" fill="white"/>
</svg>