<svg xmlns="http://www.w3.org/2000/svg" width="27" height="20" viewBox="0 0 27 20" fill="none">
  <path d="M3.5948 9.41519C5.0969 9.41519 6.3146 8.19749 6.3146 6.69539C6.3146 5.19328 5.0969 3.97559 3.5948 3.97559C2.0927 3.97559 0.875 5.19328 0.875 6.69539C0.875 8.19749 2.0927 9.41519 3.5948 9.41519Z" fill="white"/>
  <path d="M25.9262 16.7296C25.7489 16.6113 25.5762 16.4967 25.4085 16.3851C23.3757 15.034 22.1488 14.2185 21.3781 13.0971C20.6156 11.9877 20.2008 10.4237 19.8989 7.51907C19.8214 6.77458 19.0801 6.23601 18.3458 6.34384H8.17011C7.53969 6.33987 7.0768 6.75732 6.96588 7.40326L3.35976 17.5296C3.14307 18.132 3.45568 18.796 4.05809 19.0127C4.18776 19.0594 4.32021 19.0815 4.45045 19.0815C4.92555 19.0815 5.37113 18.7871 5.54124 18.3144L6.94877 14.2991V17.9044C6.94877 18.5446 7.46772 19.0635 8.10793 19.0635C8.74815 19.0635 9.26709 18.5446 9.26709 17.9044V12.165H14.5485C13.8842 13.4593 13.5838 14.4528 13.9046 15.5042C14.3259 16.8855 15.648 17.7507 18.1001 18.957C18.283 19.047 18.4767 19.0896 18.6677 19.0896C19.1431 19.0896 19.6003 18.8253 19.8244 18.3698C20.1383 17.7315 19.8755 16.9596 19.2372 16.6456C18.5705 16.3177 16.5413 15.3195 16.3684 14.7527C16.2563 14.3851 16.8155 13.3423 17.487 12.165L18.021 11.3295C18.1461 12.4733 18.7873 13.8754 19.2551 14.556C20.3081 16.088 21.7698 17.0597 23.9826 18.5304C24.1495 18.6413 24.321 18.7553 24.4974 18.8729C24.717 19.0193 24.9652 19.0893 25.2106 19.0893C25.6269 19.0893 26.0353 18.888 26.2834 18.5156C26.678 17.9238 26.5181 17.1242 25.9262 16.7296Z" fill="white"/>
  <path d="M3.1386 3.09262C3.43735 3.09262 3.67954 2.85044 3.67954 2.55168C3.67954 2.25293 3.43735 2.01074 3.1386 2.01074C2.83984 2.01074 2.59766 2.25293 2.59766 2.55168C2.59766 2.85044 2.83984 3.09262 3.1386 3.09262Z" fill="white"/>
  <path d="M3.13897 3.11875C2.82651 3.11875 2.57227 2.86451 2.57227 2.55205C2.57227 2.23959 2.82651 1.98535 3.13897 1.98535C3.45142 1.98535 3.70567 2.23959 3.70567 2.55205C3.70567 2.86451 3.45142 3.11875 3.13897 3.11875ZM3.13897 2.03687C2.85489 2.03687 2.62378 2.26798 2.62378 2.55205C2.62378 2.83612 2.85489 3.06723 3.13897 3.06723C3.42304 3.06723 3.65415 2.83612 3.65415 2.55205C3.65415 2.26798 3.42304 2.03687 3.13897 2.03687Z" fill="white"/>
  <path d="M4.79289 1.73227C5.09165 1.73227 5.33383 1.49009 5.33383 1.19133C5.33383 0.892578 5.09165 0.650391 4.79289 0.650391C4.49414 0.650391 4.25195 0.892578 4.25195 1.19133C4.25195 1.49009 4.49414 1.73227 4.79289 1.73227Z" fill="white"/>
  <path d="M4.79326 1.7584C4.4808 1.7584 4.22656 1.50416 4.22656 1.1917C4.22656 0.879242 4.4808 0.625 4.79326 0.625C5.10572 0.625 5.35996 0.879242 5.35996 1.1917C5.35996 1.50416 5.10572 1.7584 4.79326 1.7584ZM4.79326 0.676518C4.50919 0.676518 4.27808 0.907629 4.27808 1.1917C4.27808 1.47577 4.50919 1.70688 4.79326 1.70688C5.07733 1.70688 5.30844 1.47577 5.30844 1.1917C5.30844 0.907629 5.07733 0.676518 4.79326 0.676518Z" fill="white"/>
  <path d="M5.45793 3.60825C5.75669 3.60825 5.99888 3.36606 5.99888 3.06731C5.99888 2.76855 5.75669 2.52637 5.45793 2.52637C5.15918 2.52637 4.91699 2.76855 4.91699 3.06731C4.91699 3.36606 5.15918 3.60825 5.45793 3.60825Z" fill="white"/>
  <path d="M5.4583 3.6334C5.14584 3.6334 4.8916 3.37916 4.8916 3.0667C4.8916 2.75424 5.14584 2.5 5.4583 2.5C5.77076 2.5 6.025 2.75424 6.025 3.0667C6.025 3.37916 5.77076 3.6334 5.4583 3.6334ZM5.4583 2.55152C5.17423 2.55152 4.94312 2.78263 4.94312 3.0667C4.94312 3.35077 5.17423 3.58188 5.4583 3.58188C5.74237 3.58188 5.97348 3.35077 5.97348 3.0667C5.97348 2.78263 5.74237 2.55152 5.4583 2.55152Z" fill="white"/>
</svg>