<svg xmlns="http://www.w3.org/2000/svg" width="58" height="52" viewBox="0 0 58 52" fill="none">
  <path fill-rule="evenodd" clip-rule="evenodd" d="M1 1H57V51H1L1 1Z" fill="#0D1E26"/>
  <path d="M39.8818 13.2185C40.2008 13.2833 40.4878 13.4642 40.6923 13.7295C40.8967 13.9947 41.0056 14.3272 40.9997 14.6685V28.255C41.0086 29.1564 40.8247 30.0483 40.4615 30.865C40.0353 31.7782 39.5071 32.6349 38.8882 33.417C38.2146 34.267 37.4711 35.053 36.6663 35.766C35.8617 36.4765 35.0129 37.129 34.1269 37.7235C33.3348 38.2802 32.4992 38.7653 31.629 39.1735C30.9271 39.541 30.1858 39.8185 29.4209 40H28.8689C28.1162 39.8263 27.3847 39.5636 26.6883 39.217C25.8015 38.7973 24.9437 38.3128 24.1214 37.767C23.2224 37.1584 22.3647 36.4849 21.5545 35.7515C20.7216 35.052 19.9544 34.2703 19.2635 33.417C18.6153 32.643 18.0634 31.7854 17.6213 30.865C17.2182 30.0494 17.0053 29.1449 17.0002 28.226V14.6395C16.9943 14.2982 17.1032 13.9657 17.3077 13.7005C17.5121 13.4352 17.7991 13.2543 18.1181 13.1895L29.0207 11L39.8818 13.2185ZM29.0345 13.146H28.8965L19.4154 14.9005V24.224H29.0759L29.0345 13.146ZM38.5846 24.224H29.0345V37.4915C29.7189 37.3065 30.3881 37.0641 31.0356 36.7665C31.7736 36.4497 32.4885 36.0765 33.1747 35.65C33.8811 35.2151 34.5589 34.7307 35.2034 34.2C35.8372 33.6934 36.4157 33.1147 36.9285 32.4745C37.41 31.8971 37.8139 31.2531 38.1291 30.5605C38.424 29.9335 38.5797 29.2444 38.5846 28.545V24.224Z" fill="white"/>
  <path d="M10.3098 1H1L1 51H10.3098" stroke="white" stroke-opacity="0.56" stroke-width="2"/>
  <path d="M47.6902 1H57L57 51H47.6902" stroke="white" stroke-opacity="0.56" stroke-width="2"/>
</svg>