<svg xmlns="http://www.w3.org/2000/svg" width="80" height="80" viewBox="0 0 80 80" fill="none">
  <mask id="mask0_8304_151157" style="mask-type:alpha" maskUnits="userSpaceOnUse" x="5" y="5" width="74" height="68">
    <path d="M61.6667 5H20L5 72.5H78.3333L61.6667 5Z" fill="#D9D9D9"/>
  </mask>
  <g mask="url(#mask0_8304_151157)">
    <path fill-rule="evenodd" clip-rule="evenodd" d="M24.2491 6.76259L24.986 3.51172L31.4877 4.98545L30.7509 8.23631L30.3512 9.99945H51.3154L50.9158 8.23631L50.1789 4.98545L56.6807 3.51172L57.4175 6.76259L58.1512 9.99945H61.6667H65V16.6661H61.6667H59.6623L61.1734 23.3328H66.6667H70V29.9995H66.6667H62.6846L64.9512 39.9995H70H73.3333V46.6661H70H66.4623L68.729 56.6661H73.3333H76.6667V63.3328H73.3333H70.2401L71.5842 69.2626L72.3211 72.5135L65.8193 73.9872L65.0825 70.7363L63.4043 63.3328H18.2623L16.5842 70.7363L15.8473 73.9872L9.3456 72.5135L10.0825 69.2626L11.4266 63.3328H8.33333H5V56.6661H8.33333H12.9377L15.2043 46.6661H11.6667H8.33333V39.9995H11.6667H16.7154L18.9821 29.9995H15H11.6667V23.3328H15H20.4932L22.0043 16.6661H18.3333H15V9.99945H18.3333H23.5154L24.2491 6.76259ZM19.7734 56.6661H61.8932L59.6266 46.6661H22.0401L19.7734 56.6661ZM55.8488 29.9995L58.1154 39.9995H23.5512L25.8179 29.9995H55.8488ZM27.329 23.3328H54.3377L52.8266 16.6661H28.8401L27.329 23.3328Z" fill="white"/>
  </g>
</svg>