<svg xmlns="http://www.w3.org/2000/svg" width="1.5625rem" height="1.5625rem" viewBox="0 0 25 25" fill="none">
  <path d="M5.22197 20.278H8.83663C9.18348 20.278 9.47619 20.3973 9.71477 20.6359C9.95334 20.8745 10.0726 21.1672 10.0726 21.514C10.0726 21.8609 9.95334 22.1536 9.71477 22.3921C9.47619 22.6307 9.18348 22.75 8.83663 22.75H3.986C3.63915 22.75 3.34644 22.6307 3.10786 22.3921C2.86929 22.1536 2.75 21.8609 2.75 21.514V16.6634C2.75 16.3165 2.86929 16.0238 3.10786 15.7852C3.34644 15.5467 3.63915 15.4274 3.986 15.4274C4.33283 15.4274 4.62554 15.5467 4.86411 15.7852C5.10269 16.0238 5.22197 16.3165 5.22197 16.6634V20.278ZM20.278 20.278V16.6634C20.278 16.3165 20.3973 16.0238 20.6359 15.7852C20.8745 15.5467 21.1672 15.4274 21.514 15.4274C21.8609 15.4274 22.1536 15.5467 22.3921 15.7852C22.6307 16.0238 22.75 16.3165 22.75 16.6634V21.514C22.75 21.8609 22.6307 22.1536 22.3921 22.3921C22.1536 22.6307 21.8609 22.75 21.514 22.75H16.6699C16.323 22.75 16.0303 22.6307 15.7918 22.3921C15.5532 22.1536 15.4339 21.8609 15.4339 21.514C15.4339 21.1672 15.5532 20.8745 15.7918 20.6359C16.0303 20.3973 16.323 20.278 16.6699 20.278H20.278ZM5.22197 5.22197V8.83014C5.22197 9.17697 5.10269 9.46967 4.86411 9.70825C4.62554 9.94682 4.33283 10.0661 3.986 10.0661C3.63915 10.0661 3.34644 9.94682 3.10786 9.70825C2.86929 9.46967 2.75 9.17697 2.75 8.83014V3.986C2.75 3.63915 2.86929 3.34644 3.10786 3.10786C3.34644 2.86929 3.63915 2.75 3.986 2.75H8.83663C9.18348 2.75 9.47619 2.86929 9.71477 3.10786C9.95334 3.34644 10.0726 3.63915 10.0726 3.986C10.0726 4.33283 9.95334 4.62554 9.71477 4.86411C9.47619 5.10269 9.18348 5.22197 8.83663 5.22197H5.22197ZM20.278 5.22197H16.6699C16.323 5.22197 16.0303 5.10269 15.7918 4.86411C15.5532 4.62554 15.4339 4.33283 15.4339 3.986C15.4339 3.63915 15.5532 3.34644 15.7918 3.10786C16.0303 2.86929 16.323 2.75 16.6699 2.75H21.514C21.8609 2.75 22.1536 2.86929 22.3921 3.10786C22.6307 3.34644 22.75 3.63915 22.75 3.986V8.83014C22.75 9.17697 22.6307 9.46967 22.3921 9.70825C22.1536 9.94682 21.8609 10.0661 21.514 10.0661C21.1672 10.0661 20.8745 9.94682 20.6359 9.70825C20.3973 9.46967 20.278 9.17697 20.278 8.83014V5.22197Z" fill="white"/>
</svg>