<svg xmlns="http://www.w3.org/2000/svg" width="71" height="72" viewBox="0 0 71 72" fill="none">
  <path d="M13 46.8947V20.2281C13 17.7485 13.6433 15.7719 14.9298 14.2982C16.2164 12.8246 17.9123 11.7018 20.0175 10.9298C22.1228 10.1579 24.5205 9.64327 27.2105 9.38596C29.9006 9.12865 32.6491 9 35.4561 9C38.5439 9 41.4561 9.12865 44.193 9.38596C46.9298 9.64327 49.3158 10.1579 51.3509 10.9298C53.386 11.7018 54.9883 12.8246 56.1579 14.2982C57.3275 15.7719 57.9123 17.7485 57.9123 20.2281V46.8947C57.9123 49.655 56.9649 51.9825 55.0702 53.8772C53.1754 55.7719 50.848 56.7193 48.0877 56.7193L52.2982 60.9298V62.3333H46.6842L41.0702 56.7193H29.8421L24.2281 62.3333H18.614V60.9298L22.8246 56.7193C20.0643 56.7193 17.7368 55.7719 15.8421 53.8772C13.9474 51.9825 13 49.655 13 46.8947ZM18.614 31.4561H32.6491V23.0351H18.614V31.4561ZM38.2632 31.4561H52.2982V23.0351H38.2632V31.4561ZM25.6316 48.2982C26.848 48.2982 27.8538 47.9006 28.6491 47.1053C29.4444 46.3099 29.8421 45.3041 29.8421 44.0877C29.8421 42.8713 29.4444 41.8655 28.6491 41.0702C27.8538 40.2749 26.848 39.8772 25.6316 39.8772C24.4152 39.8772 23.4094 40.2749 22.614 41.0702C21.8187 41.8655 21.4211 42.8713 21.4211 44.0877C21.4211 45.3041 21.8187 46.3099 22.614 47.1053C23.4094 47.9006 24.4152 48.2982 25.6316 48.2982ZM45.2807 48.2982C46.4971 48.2982 47.5029 47.9006 48.2982 47.1053C49.0936 46.3099 49.4912 45.3041 49.4912 44.0877C49.4912 42.8713 49.0936 41.8655 48.2982 41.0702C47.5029 40.2749 46.4971 39.8772 45.2807 39.8772C44.0643 39.8772 43.0585 40.2749 42.2632 41.0702C41.4678 41.8655 41.0702 42.8713 41.0702 44.0877C41.0702 45.3041 41.4678 46.3099 42.2632 47.1053C43.0585 47.9006 44.0643 48.2982 45.2807 48.2982Z" fill="#F7AD00" fill-opacity="0.75"/>
</svg>