<svg xmlns="http://www.w3.org/2000/svg" width="24" height="25" viewBox="0 0 24 25" fill="none">
  <path d="M10.5546 14.0394L8.698 12.1827C8.49432 11.979 8.24277 11.8772 7.94334 11.8772C7.64391 11.8772 7.37843 11.9869 7.14689 12.2062C6.9432 12.4256 6.84136 12.6841 6.84136 12.9818C6.84136 13.2795 6.95104 13.5302 7.17039 13.7338L9.75558 16.3425C9.98206 16.5619 10.2463 16.6716 10.5482 16.6716C10.8502 16.6716 11.1187 16.5619 11.3537 16.3425L16.6886 10.9841C16.9236 10.7648 17.0411 10.5093 17.0411 10.2177C17.0411 9.92613 16.9236 9.66456 16.6886 9.43302C16.4693 9.22934 16.2059 9.13141 15.8987 9.13925C15.5914 9.14708 15.3299 9.25284 15.114 9.45652L10.5546 14.0394ZM11.9915 22.5C10.6106 22.5 9.31307 22.2408 8.09901 21.7225C6.88494 21.2041 5.8241 20.4911 4.91647 19.5835C4.00885 18.6759 3.29587 17.6161 2.77753 16.4042C2.25918 15.1923 2 13.8959 2 12.515C2 11.1184 2.25918 9.81307 2.77753 8.59901C3.29587 7.38494 4.00762 6.32761 4.91279 5.427C5.81795 4.52638 6.87705 3.8134 8.09011 3.28804C9.30316 2.76268 10.6008 2.5 11.9831 2.5C13.381 2.5 14.6879 2.76208 15.9038 3.28623C17.1197 3.81036 18.1774 4.5217 19.0768 5.42023C19.9762 6.31877 20.6883 7.37539 21.213 8.59008C21.7377 9.80476 22 11.112 22 12.5118C22 13.8948 21.7373 15.1933 21.212 16.4071C20.6866 17.6209 19.9736 18.6807 19.073 19.5864C18.1724 20.4921 17.1161 21.2041 15.9042 21.7225C14.6923 22.2408 13.3881 22.5 11.9915 22.5Z" fill="white" fill-opacity="0.5"/>
</svg>