<svg xmlns="http://www.w3.org/2000/svg" width="67" height="72" viewBox="0 0 67 72" fill="none">
  <path d="M20.0666 48.2904C17.7562 46.0224 16.4558 42.9336 16.4558 39.7008V26.8776C16.4558 24.4656 17.1678 22.2192 18.4028 20.3256C17.8362 20.1888 17.2622 20.1168 16.681 20.1168H7.47593C3.3638 20.1168 0 23.4936 0 27.6048V39.3912C0 42.1848 1.56203 44.748 4.04674 46.0368V69.0696H10.0769L12.3 54.4896L14.5232 69.0696H20.0738V48.2904H20.0666ZM42.1602 46.9584C44.7974 45.6048 46.6065 42.8472 46.6065 39.7008V26.8776C46.6065 22.3992 42.9448 18.7272 38.4694 18.7272H28.4434C23.968 18.7272 20.3063 22.392 20.3063 26.8776V39.7008C20.3063 42.84 22.1008 45.576 24.7091 46.9368V72H31.2841L33.7034 56.1384L36.1227 72H42.1602V46.9584ZM33.6889 0C38.4258 0 42.2619 3.8448 42.2619 8.5896C42.2619 13.3272 38.4258 17.1792 33.6889 17.1792C28.952 17.1792 25.1159 13.3344 25.1159 8.5896C25.1159 3.8304 28.952 0 33.6889 0ZM46.9262 48.2904V69.084H52.4768L54.7 54.504L56.9231 69.084H62.9605V46.0584C65.3581 44.8056 67 42.2928 67 39.4128V27.6192C67 23.5008 63.6289 20.1312 59.5168 20.1312H50.3263C49.7305 20.1312 49.1493 20.2032 48.6044 20.34C49.8831 22.2912 50.5588 24.5664 50.5515 26.892V39.7152C50.5515 42.984 49.2074 46.0656 46.9262 48.2904ZM54.7217 2.9088C50.3626 2.9088 46.839 6.4368 46.839 10.7928C46.839 15.1488 50.3626 18.684 54.7217 18.684C59.0664 18.684 62.59 15.156 62.59 10.7928C62.59 6.4296 59.0664 2.9088 54.7217 2.9088ZM12.2855 2.9088C16.6301 2.9088 20.1683 6.4368 20.1683 10.7928C20.1683 15.1488 16.6447 18.684 12.2855 18.684C7.93364 18.684 4.41726 15.156 4.41726 10.7928C4.41 6.4296 7.93364 2.9088 12.2855 2.9088Z" fill="white"/>
</svg>