<svg xmlns="http://www.w3.org/2000/svg" width="23" height="32" viewBox="0 0 23 32" fill="none">
  <path d="M12.8833 7.27047C14.7529 7.27047 16.2685 5.75485 16.2685 3.88524C16.2685 2.01562 14.7529 0.5 12.8833 0.5C11.0137 0.5 9.49805 2.01562 9.49805 3.88524C9.49805 5.75485 11.0137 7.27047 12.8833 7.27047Z" fill="white"/>
  <path d="M21.6061 15.7878C20.0615 15.6994 18.5581 15.1787 17.2472 14.2699C15.7735 13.2491 14.6564 11.8201 14.0091 10.1454C13.2838 8.33317 11.3698 7.33776 9.51223 7.86574C9.3433 7.91297 9.16892 7.96928 8.9897 8.03224C8.93157 8.05041 8.87405 8.07039 8.81714 8.094C8.49442 8.21328 8.15595 8.35618 7.80296 8.52147C6.20268 9.19234 4.55032 9.86503 2.86043 10.5383C1.74635 10.9834 0.908969 11.986 0.792717 13.0953C0.649219 14.4873 0.551131 15.8829 0.500271 17.2797C0.491189 17.5316 0.711583 17.7357 0.990104 17.7357H3.39688C3.67601 17.7357 3.90004 17.531 3.91215 17.2797C3.97391 16.0094 4.09076 14.6762 4.26454 13.4658C4.2718 13.4144 4.30389 13.3677 4.35657 13.3465C5.33503 12.959 6.30561 12.5715 7.26469 12.1846C7.37004 12.1422 7.47782 12.2258 7.45118 12.3293C5.84847 18.5282 4.31116 24.8071 3.89641 30.9612C3.87824 31.2403 4.13133 31.5 4.41712 31.5C5.20848 31.5 5.99924 31.5 6.7906 31.5C7.00675 31.5 7.18053 31.3487 7.20717 31.1386C7.60436 28.0016 8.21468 24.8313 8.89888 21.6555C8.92007 21.5568 9.05267 21.5163 9.13683 21.5835C10.1298 22.3791 11.1186 23.1741 12.0922 23.9685C12.1225 23.9933 12.14 24.0284 12.1394 24.066C12.1267 26.4043 12.1043 28.7354 12.0722 31.0496C12.0692 31.2984 12.2696 31.5 12.5196 31.5C13.2953 31.5 14.0709 31.5 14.8465 31.5C15.0966 31.5 15.3158 31.2984 15.3351 31.0496C15.5095 28.7166 15.63 26.3656 15.6972 24.0078C15.7244 23.0839 15.303 22.2005 14.5438 21.5847C13.8572 21.0277 13.1657 20.4712 12.4724 19.9142C12.7897 18.4961 13.1021 17.0781 13.3982 15.6625C13.42 15.5584 13.5623 15.5214 13.6428 15.5995C14.1012 16.0433 14.5983 16.4539 15.1305 16.8262C17.0644 18.1777 19.3119 18.9381 21.6569 19.038C21.947 19.0502 22.1885 18.8437 22.1843 18.5821C22.1716 17.8017 22.1444 17.0218 22.1032 16.2425C22.0905 16.0016 21.8719 15.8036 21.6067 15.7884L21.6061 15.7878Z" fill="white"/>
</svg>