<svg xmlns="http://www.w3.org/2000/svg" width="30" height="27" viewBox="0 0 30 27" fill="none">
  <path d="M27.2257 21.7446C27.5685 22.0621 27.7611 22.4926 27.7611 22.9413C27.7611 23.3901 27.5685 23.8205 27.2257 24.138L25.9333 25.3337C24.9766 26.2189 23.7196 26.757 22.1979 26.9344C21.8197 26.9784 21.4389 27.0003 21.0577 27C19.9487 27 18.7543 26.8264 17.4869 26.4831C14.0496 25.5478 10.435 23.4399 7.31244 20.5489C4.18776 17.658 1.90939 14.3158 0.898406 11.1356C0.39604 9.55029 0.231364 8.08457 0.408547 6.777C0.602406 5.36915 1.18398 4.20622 2.13869 3.32293L3.43108 2.12722C3.77425 1.81007 4.23947 1.63192 4.72452 1.63192C5.20957 1.63192 5.67479 1.81007 6.01796 2.12722L11.7087 7.39029C12.0508 7.70771 12.243 8.13771 12.243 8.586C12.243 9.0343 12.0508 9.4643 11.7087 9.78172L10.4163 10.9774C9.6846 11.6544 10.4121 13.8471 12.4841 15.7641C14.5561 17.6811 16.9241 18.3561 17.6558 17.6773L18.9482 16.4816C19.2913 16.1644 19.7565 15.9863 20.2416 15.9863C20.7266 15.9863 21.1919 16.1644 21.535 16.4816L27.2257 21.7466V21.7446ZM17.8184 9.47507C18.6271 9.47507 19.2817 10.0806 19.2817 10.8289C19.2817 11.0085 19.3588 11.1806 19.496 11.3076C19.6332 11.4345 19.8193 11.5059 20.0133 11.5059C20.2074 11.5059 20.3935 11.4345 20.5307 11.3076C20.6679 11.1806 20.745 11.0085 20.745 10.8289C20.745 9.33429 19.4338 8.12314 17.8184 8.12122C17.6243 8.12122 17.4382 8.19254 17.301 8.31948C17.1638 8.44643 17.0867 8.61861 17.0867 8.79814C17.0867 8.97768 17.1638 9.14986 17.301 9.2768C17.4382 9.40375 17.6243 9.47507 17.8184 9.47507ZM28.6036 6.61307C27.7088 4.65115 26.2081 2.97714 24.2896 1.80077C22.3711 0.624403 20.12 -0.00201095 17.8184 4.84985e-06C17.6243 4.84985e-06 17.4382 0.0713238 17.301 0.198273C17.1638 0.325221 17.0867 0.497401 17.0867 0.676933C17.0867 0.856466 17.1638 1.02865 17.301 1.15559C17.4382 1.28254 17.6243 1.35386 17.8184 1.35386C20.5335 1.35692 23.1364 2.35617 25.0563 4.13243C26.9762 5.90868 28.0562 8.31692 28.0595 10.8289C28.0595 11.0085 28.1366 11.1806 28.2738 11.3076C28.4111 11.4345 28.5972 11.5059 28.7912 11.5059C28.9853 11.5059 29.1714 11.4345 29.3086 11.3076C29.4458 11.1806 29.5229 11.0085 29.5229 10.8289C29.5262 9.38073 29.2135 7.94682 28.6036 6.61307ZM17.8184 5.4135C19.3704 5.41452 20.8586 5.9854 21.956 7.00077C23.0535 8.01614 23.6705 9.39298 23.6716 10.8289C23.6716 11.0082 23.7486 11.1801 23.8856 11.3069C24.0227 11.4337 24.2085 11.5049 24.4023 11.5049C24.596 11.5049 24.7819 11.4337 24.9189 11.3069C25.0559 11.1801 25.1329 11.0082 25.1329 10.8289C25.1329 9.03394 24.3623 7.31244 22.9906 6.043C21.619 4.77357 19.7585 4.06016 17.8184 4.05965C17.6243 4.05965 17.4382 4.13097 17.301 4.25791C17.1638 4.38486 17.0867 4.55704 17.0867 4.73658C17.0867 4.91611 17.1638 5.08829 17.301 5.21524C17.4382 5.34218 17.6243 5.4135 17.8184 5.4135Z" fill="#12B3A9"/>
</svg>