<svg xmlns="http://www.w3.org/2000/svg" width="25" height="25" viewBox="0 0 25 25" fill="none">
  <path d="M21.4736 9.32422L21.0898 9.8623L14.9473 18.4619L14.6992 18.8086L14.8184 19.2178C15.021 19.9142 15.0325 20.6522 14.8516 21.3545C14.6705 22.0569 14.3041 22.6983 13.79 23.21H13.7891C13.6426 23.3561 13.4442 23.4385 13.2373 23.4385C13.0564 23.4385 12.8821 23.3752 12.7432 23.2617L12.6855 23.21L7.71777 18.2412L7.09766 17.6211H7.09668L1.76953 12.2939C1.69729 12.2216 1.6397 12.1355 1.60059 12.041C1.56154 11.9466 1.542 11.8453 1.54199 11.7432C1.54199 11.641 1.56157 11.5397 1.60059 11.4453C1.63968 11.3509 1.69734 11.2647 1.76953 11.1924L1.77148 11.1904C2.28325 10.6767 2.92379 10.3099 3.62598 10.1289C4.32837 9.94786 5.06716 9.95961 5.76367 10.1621L6.17188 10.2803L6.51855 10.0332L15.1182 3.88965L15.6553 3.50488L21.4736 9.32422Z" stroke="white" stroke-width="1.75521"/>
</svg>