<svg xmlns="http://www.w3.org/2000/svg" width="32" height="36" viewBox="0 0 32 36" fill="none">
  <path d="M32 3.03652V21.3824C32 22.4828 31.7328 23.5769 31.2 24.6647C30.6656 25.7557 29.968 26.809 29.104 27.8327C28.24 28.8548 27.2528 29.8237 26.144 30.7362C25.0336 31.6503 23.9088 32.4642 22.768 33.1779C21.6256 33.8932 20.5168 34.488 19.44 34.9607C18.3632 35.4334 17.4192 35.7574 16.608 35.9343L16.224 36L15.872 35.9343C15.04 35.7574 14.0752 35.4334 12.976 34.9607C11.8768 34.488 10.736 33.8932 9.552 33.1779C8.368 32.4642 7.2064 31.6503 6.064 30.7362C4.9232 29.8237 3.904 28.8548 3.008 27.8327C2.112 26.809 1.3872 25.7557 0.8336 24.6647C0.2768 23.5769 0 22.4828 0 21.3824V3.03652L1.312 2.83774L16.032 0L31.04 2.83774L32 3.03652ZM16.0368 2.65617L15.8592 2.62017L3.2256 4.83496V16.4097H16.0368V2.65617ZM28.7744 16.4097H16.0368V32.8852C16.856 32.6911 17.7472 32.3953 18.7104 31.9962C19.672 31.597 20.6224 31.1259 21.56 30.5812C22.4992 30.0365 23.4016 29.4323 24.2704 28.7671C25.1392 28.1019 25.9056 27.3866 26.576 26.6243C27.2448 25.8637 27.7776 25.0717 28.176 24.2483C28.576 23.4266 28.7744 22.5908 28.7744 21.744V16.4097Z" fill="url(#paint0_linear_697_17165)"/>
  <defs>
    <linearGradient id="paint0_linear_697_17165" x1="16" y1="0" x2="16" y2="36" gradientUnits="userSpaceOnUse">
      <stop stop-color="white"/>
      <stop offset="1" stop-color="white" stop-opacity="0.66"/>
    </linearGradient>
  </defs>
</svg>