<svg xmlns="http://www.w3.org/2000/svg" width="30" height="30" viewBox="0 0 30 30" fill="none">
  <path d="M28.75 26.8111L20.9499 19.0111L20.9501 19.0113C22.6681 16.7998 23.4789 14.0167 23.217 11.2283C22.9551 8.44018 21.6402 5.85653 19.5402 4.00363C17.4402 2.15073 14.7131 1.16793 11.9141 1.25537C9.11482 1.34283 6.45428 2.49381 4.4742 4.47417C2.49382 6.4543 1.34282 9.11488 1.25537 11.914C1.16791 14.7129 2.15086 17.44 4.00365 19.5401C5.85645 21.6401 8.44006 22.9549 11.2284 23.2168C14.0166 23.4787 16.7998 22.668 19.0115 20.95L26.8116 28.75L28.75 26.8111ZM12.2953 20.5232C10.1134 20.5232 8.02077 19.6564 6.47791 18.1135C4.93482 16.5707 4.06801 14.4781 4.06801 12.2959C4.06801 10.114 4.93482 8.02136 6.47791 6.47851C8.02077 4.93543 10.1134 4.06863 12.2953 4.06863C14.4775 4.06863 16.5701 4.93543 18.113 6.47851C19.6559 8.02136 20.5227 10.114 20.5227 12.2959C20.5204 14.4771 19.6529 16.5684 18.1105 18.111C16.5679 19.6534 14.4766 20.5209 12.2953 20.5232Z" fill="white"/>
</svg>