<svg xmlns="http://www.w3.org/2000/svg" width="58" height="52" viewBox="0 0 58 52" fill="none">
  <path fill-rule="evenodd" clip-rule="evenodd" d="M1 1H57V51H1L1 1Z" fill="#0D1E26"/>
  <path d="M35.4 12C40.7015 12 45 16.2109 45 21.4044C45 23.8079 44.0801 26.0008 42.5649 27.6638L42.5768 27.6739L30.6967 39.3116C29.7595 40.2295 28.2405 40.2295 27.3033 39.3116L15.4232 27.6739L15.4353 27.6636C13.8646 25.9441 12.9971 23.7146 13 21.4044C13 16.2109 17.2985 12 22.6 12C24.9561 11.9961 27.2311 12.8454 28.9897 14.3856L29 14.3739L29.0112 14.3847C30.7699 12.8453 33.0444 11.9964 35.4 12.0002V12ZM34.0816 24.5392C33.7862 24.5389 33.5009 24.6445 33.2792 24.8361L29.5657 28.474L29.4903 28.539C29.3363 28.6559 29.1442 28.7138 28.9499 28.7018C28.7556 28.6899 28.5724 28.6089 28.4345 28.474L24.7208 24.8361C24.5478 24.6849 24.334 24.586 24.1051 24.5513C23.8762 24.5166 23.6419 24.5476 23.4305 24.6405C23.2193 24.7331 23.04 24.8838 22.9141 25.0744C22.7883 25.2651 22.7214 25.4874 22.7216 25.7146C22.7216 26.0148 22.8369 26.2883 23.0232 26.4983L27.3033 30.691C28.2405 31.6089 29.7595 31.6089 30.6967 30.691L34.8863 26.586C34.916 26.5595 34.9448 26.5313 34.9761 26.4983L35.0368 26.4255C35.1721 26.2513 35.255 26.0434 35.2762 25.8254C35.2974 25.6073 35.256 25.3878 35.1567 25.1916C35.0571 24.9953 34.9037 24.8301 34.7138 24.7146C34.5239 24.5992 34.3049 24.5381 34.0816 24.5382V24.5392Z" fill="white"/>
  <path d="M10.3098 1H1L1 51H10.3098" stroke="white" stroke-opacity="0.56" stroke-width="2"/>
  <path d="M47.6902 1H57L57 51H47.6902" stroke="white" stroke-opacity="0.56" stroke-width="2"/>
</svg>