<svg xmlns="http://www.w3.org/2000/svg" width="3rem" height="3rem" viewBox="0 0 48 48" fill="none">
  <path d="M20.5046 44.707C20.006 44.707 19.568 44.5526 19.1904 44.244C18.8129 43.9352 18.5908 43.5316 18.5241 43.0331L17.7524 38.1809C17.2321 38.0041 16.6643 37.7392 16.0491 37.3863C15.4339 37.0334 14.9067 36.678 14.4676 36.32L10.0155 38.4135C9.55459 38.6179 9.07487 38.6429 8.5763 38.4885C8.07774 38.3342 7.7002 38.0171 7.4437 37.5374L3.94585 31.2917C3.67049 30.8454 3.59694 30.3823 3.7252 29.9026C3.85347 29.4229 4.1147 29.0287 4.5089 28.72L8.6393 25.7113C8.5915 25.4678 8.55927 25.1827 8.5426 24.8559C8.52594 24.529 8.5176 24.2439 8.5176 24.0004C8.5176 23.757 8.52594 23.4718 8.5426 23.145C8.55927 22.8182 8.5915 22.533 8.6393 22.2896L4.5089 19.2809C4.1147 18.9722 3.85347 18.578 3.7252 18.0983C3.59694 17.6185 3.67049 17.1555 3.94585 16.7091L7.4437 10.4917C7.7002 10.0308 8.07774 9.71849 8.5763 9.55472C9.07487 9.39096 9.55459 9.41126 10.0155 9.61562L14.5242 11.6808C14.9444 11.3417 15.4575 11.0004 16.0633 10.6569C16.6691 10.3135 17.2321 10.0606 17.7524 9.89822L18.5241 4.93952C18.5908 4.45982 18.8129 4.06091 19.1904 3.74277C19.568 3.42467 20.006 3.26562 20.5046 3.26562H27.5003C27.9988 3.26562 28.4368 3.42467 28.8144 3.74277C29.1919 4.06091 29.414 4.45982 29.4807 4.93952L30.2525 9.84822C30.7727 10.0439 31.3441 10.3051 31.9666 10.6319C32.589 10.9587 33.1126 11.3084 33.5372 11.6808L37.9894 9.61562C38.4502 9.41126 38.9299 9.39096 39.4285 9.55472C39.9271 9.71849 40.3046 10.0308 40.5611 10.4917L44.0872 16.6591C44.3437 17.1055 44.4162 17.5769 44.3046 18.0733C44.193 18.5696 43.914 18.9722 43.4677 19.2809L39.3372 22.1896C39.385 22.4664 39.422 22.7682 39.4481 23.095C39.4742 23.4218 39.4872 23.7236 39.4872 24.0004C39.4872 24.2772 39.4742 24.5707 39.4481 24.8809C39.422 25.191 39.385 25.4845 39.3372 25.7613L43.4677 28.72C43.8807 29.0287 44.1513 29.4229 44.2796 29.9026C44.4079 30.3823 44.3437 30.8454 44.0872 31.2917L40.5329 37.5657C40.2763 38.0454 39.9035 38.3577 39.4144 38.5026C38.9252 38.6476 38.4502 38.6179 37.9894 38.4135L33.5089 36.32C33.0698 36.678 32.5557 37.037 31.9666 37.3972C31.3774 37.7573 30.8061 38.0186 30.2525 38.1809L29.4807 43.033C29.414 43.5316 29.1919 43.9352 28.8144 44.2439C28.4368 44.5526 27.9988 44.707 27.5003 44.707H20.5046ZM23.9459 30.5004C25.7459 30.5004 27.2792 29.8671 28.5459 28.6004C29.8126 27.3338 30.4459 25.8004 30.4459 24.0004C30.4459 22.2004 29.8126 20.6671 28.5459 19.4004C27.2792 18.1338 25.7459 17.5004 23.9459 17.5004C22.1459 17.5004 20.6126 18.1338 19.3459 19.4004C18.0792 20.6671 17.4459 22.2004 17.4459 24.0004C17.4459 25.8004 18.0792 27.3338 19.3459 28.6004C20.6126 29.8671 22.1459 30.5004 23.9459 30.5004Z" fill="white"/>
</svg>