<svg xmlns="http://www.w3.org/2000/svg" width="3rem" height="3rem" viewBox="0 0 48 48" fill="none">
  <path d="M23.0484 43.1496C21.9439 43.1496 21.0484 42.2542 21.0484 41.1496V32.7496C21.0484 31.645 21.9439 30.7496 23.0484 30.7496H23.1984C24.303 30.7496 25.1984 31.645 25.1984 32.7496V32.8996C25.1984 34.0042 26.0939 34.8996 27.1984 34.8996H40.8484C41.953 34.8996 42.8484 35.795 42.8484 36.8996V37.0496C42.8484 38.1542 41.953 39.0496 40.8484 39.0496H27.1984C26.0939 39.0496 25.1984 39.945 25.1984 41.0496V41.1496C25.1984 42.2542 24.303 43.1496 23.1984 43.1496H23.0484ZM7.14844 39.0496C6.04387 39.0496 5.14844 38.1542 5.14844 37.0496V36.8996C5.14844 35.795 6.04387 34.8996 7.14844 34.8996H16.6484C17.753 34.8996 18.6484 35.795 18.6484 36.8996V37.0496C18.6484 38.1542 17.753 39.0496 16.6484 39.0496H7.14844ZM16.4984 30.1496C15.3939 30.1496 14.4984 29.2542 14.4984 28.1496V28.0496C14.4984 26.945 13.603 26.0496 12.4984 26.0496H7.14844C6.04387 26.0496 5.14844 25.1542 5.14844 24.0496V23.9496C5.14844 22.845 6.04387 21.9496 7.14844 21.9496H12.4984C13.603 21.9496 14.4984 21.0542 14.4984 19.9496V19.7496C14.4984 18.645 15.3939 17.7496 16.4984 17.7496H16.6484C17.753 17.7496 18.6484 18.645 18.6484 19.7496V28.1496C18.6484 29.2542 17.753 30.1496 16.6484 30.1496H16.4984ZM23.0484 26.0496C21.9439 26.0496 21.0484 25.1542 21.0484 24.0496V23.9496C21.0484 22.845 21.9439 21.9496 23.0484 21.9496H40.8484C41.953 21.9496 42.8484 22.845 42.8484 23.9496V24.0496C42.8484 25.1542 41.953 26.0496 40.8484 26.0496H23.0484ZM31.3484 17.2496C30.2439 17.2496 29.3484 16.3542 29.3484 15.2496V6.84961C29.3484 5.74504 30.2439 4.84961 31.3484 4.84961H31.4984C32.603 4.84961 33.4984 5.74504 33.4984 6.84961V6.94961C33.4984 8.05418 34.3939 8.94961 35.4984 8.94961H40.8484C41.953 8.94961 42.8484 9.84504 42.8484 10.9496V11.0996C42.8484 12.2042 41.953 13.0996 40.8484 13.0996H35.4984C34.3939 13.0996 33.4984 13.995 33.4984 15.0996V15.2496C33.4984 16.3542 32.603 17.2496 31.4984 17.2496H31.3484ZM7.14844 13.0996C6.04387 13.0996 5.14844 12.2042 5.14844 11.0996V10.9496C5.14844 9.84504 6.04387 8.94961 7.14844 8.94961H24.9484C26.053 8.94961 26.9484 9.84504 26.9484 10.9496V11.0996C26.9484 12.2042 26.053 13.0996 24.9484 13.0996H7.14844Z" fill="white"/>
</svg>