<svg width="29" height="24" viewBox="0 0 29 24" fill="none" xmlns="http://www.w3.org/2000/svg">
<path d="M14.1107 1.45635C14.1107 1.25969 14.0333 1.07108 13.8955 0.932025C13.7576 0.792966 13.5707 0.714844 13.3757 0.714844C13.2188 0.71523 13.0661 0.766709 12.9405 0.861627L12.9395 0.860361L12.8569 0.922522L5.90111 6.14217H1.88143C0.842411 6.14217 0 6.99202 0 8.04022V16.2651C0 17.3133 0.842411 18.1632 1.88143 18.1632H5.8293L12.6708 23.361C12.8288 23.4973 13.0299 23.5722 13.2378 23.572C13.3527 23.572 13.4664 23.5492 13.5726 23.5048C13.6788 23.4604 13.7752 23.3954 13.8565 23.3134C13.9377 23.2315 14.0022 23.1341 14.0462 23.027C14.0901 22.9199 14.1128 22.8052 14.1128 22.6892C14.1128 22.6748 14.1114 22.6609 14.1106 22.6468L14.1107 1.45635ZM19.4045 6.45756C18.8046 5.82725 17.8121 5.80685 17.1877 6.41185C16.563 7.0167 16.5426 8.01808 17.1423 8.64823C18.041 9.58929 18.5419 10.8458 18.5393 12.1525C18.5397 13.3756 18.1007 14.5574 17.3035 15.479C16.7342 16.1372 16.8015 17.1365 17.4537 17.7108C17.7389 17.9626 18.1051 18.1012 18.4841 18.1008C18.7081 18.1012 18.9295 18.053 19.1334 17.9596C19.3373 17.8661 19.5189 17.7296 19.666 17.5593C20.9617 16.0613 21.6754 14.1404 21.6749 12.1524C21.675 10.0189 20.8687 7.99641 19.4045 6.45756Z" fill="white"/>
<path d="M24.8245 3.3647C24.727 3.26772 24.6279 3.17199 24.5274 3.07753C23.8911 2.48159 22.842 2.46524 22.1835 3.04063C21.525 3.61631 21.5069 4.56604 22.1428 5.16213C24.1425 7.0345 25.2591 9.53762 25.2563 12.1419C25.2583 14.7475 24.1407 17.2516 22.1399 19.1247C21.5041 19.7208 21.5225 20.6707 22.1812 21.2462C22.4898 21.5167 22.9026 21.6677 23.3322 21.6672C23.5548 21.6675 23.7752 21.627 23.9801 21.5483C24.1851 21.4695 24.3703 21.3541 24.5247 21.2089C27.1226 18.7766 28.5737 15.5252 28.5714 12.1421C28.5714 8.88841 27.2408 5.77142 24.8245 3.3647Z" fill="white"/>
</svg>
