<svg xmlns="http://www.w3.org/2000/svg" width="34" height="34" viewBox="0 0 34 34" fill="none">
  <path d="M14.7131 23.1796C14.501 23.1799 14.2909 23.1383 14.095 23.0571C13.8991 22.9759 13.7211 22.8568 13.5713 22.7067L9.00423 18.1396C8.7014 17.8367 8.53126 17.426 8.53125 16.9978C8.53124 16.5695 8.70135 16.1588 9.00416 15.856C9.30697 15.5532 9.71768 15.383 10.1459 15.383C10.5742 15.383 10.9849 15.5531 11.2877 15.8559L14.7131 19.2813L22.7056 11.2888C22.8555 11.1389 23.0335 11.02 23.2294 10.9388C23.4253 10.8577 23.6353 10.8159 23.8474 10.8159C24.0594 10.8159 24.2694 10.8577 24.4653 10.9388C24.6612 11.02 24.8392 11.1389 24.9891 11.2889C25.1391 11.4388 25.258 11.6168 25.3391 11.8127C25.4203 12.0087 25.462 12.2186 25.462 12.4307C25.462 12.6427 25.4203 12.8527 25.3391 13.0486C25.2579 13.2445 25.139 13.4225 24.9891 13.5724L15.8548 22.7067C15.7051 22.8568 15.5271 22.9759 15.3312 23.0571C15.1352 23.1383 14.9252 23.1799 14.7131 23.1796Z" fill="#E6B0FF"/>
  <path d="M16.9999 33.9999C13.0669 33.9999 9.25555 32.6362 6.21529 30.1411C3.17502 27.646 1.09395 24.1739 0.326665 20.3164C-0.440619 16.459 0.153361 12.4548 2.00739 8.98619C3.86142 5.51757 6.86079 2.79912 10.4944 1.29403C14.1281 -0.211064 18.1712 -0.409678 21.9349 0.732031C25.6985 1.87374 28.9499 4.28513 31.135 7.55533C33.32 10.8255 34.3036 14.7522 33.9181 18.6663C33.5326 22.5804 31.8018 26.2397 29.0208 29.0208C27.4458 30.6043 25.5724 31.8597 23.5091 32.7144C21.4457 33.5691 19.2333 34.006 16.9999 33.9999ZM16.9999 3.0908C14.249 3.09078 11.5598 3.90652 9.27238 5.43487C6.98502 6.96321 5.20222 9.13552 4.14946 11.6771C3.09669 14.2186 2.82122 17.0153 3.3579 19.7134C3.89457 22.4116 5.21928 24.89 7.16451 26.8352C9.10974 28.7804 11.5881 30.1052 14.2862 30.6419C16.9844 31.1786 19.781 30.9031 22.3226 29.8504C24.8642 28.7976 27.0365 27.0149 28.5649 24.7275C30.0932 22.4401 30.909 19.7509 30.909 17C30.9048 13.3123 29.4381 9.77691 26.8305 7.16935C24.223 4.56178 20.6876 3.095 16.9999 3.0908Z" fill="#E6B0FF"/>
</svg>