<svg xmlns="http://www.w3.org/2000/svg" width="48" height="48" viewBox="0 0 48 48" fill="none">
  <path fill-rule="evenodd" clip-rule="evenodd" d="M6.5 27.9875V29.8438C6.5 30.3697 6.32431 30.8105 5.97292 31.1663C5.62153 31.5221 5.18611 31.7 4.66667 31.7H2.83333C2.31389 31.7 1.87847 31.5221 1.52708 31.1663C1.17569 30.8105 1 30.3697 1 29.8438V14.9938L4.85 3.85625C5.03333 3.29938 5.36181 2.85078 5.83542 2.51047C6.30903 2.17016 6.83611 2 7.41667 2H27.5833C28.1639 2 28.691 2.17016 29.1646 2.51047C29.6382 2.85078 29.9667 3.29938 30.15 3.85625L33.8812 14.65H18.7638C17.6404 14.65 15.9553 16.3412 15.3936 17.4687L11.2767 27.9875H6.5ZM6.13333 11.2812H28.8667L26.9417 5.7125H8.05833L6.13333 11.2812ZM9.25 22.4188C10.0139 22.4188 10.6632 22.148 11.1979 21.6066C11.7326 21.0652 12 20.4078 12 19.6344C12 18.8609 11.7326 18.2035 11.1979 17.6621C10.6632 17.1207 10.0139 16.85 9.25 16.85C8.48611 16.85 7.83681 17.1207 7.30208 17.6621C6.76736 18.2035 6.5 18.8609 6.5 19.6344C6.5 20.4078 6.76736 21.0652 7.30208 21.6066C7.83681 22.148 8.48611 22.4188 9.25 22.4188ZM18.6 44.1437V42.2875H40.6V44.1437C40.6 44.6697 40.7757 45.1105 41.1271 45.4663C41.4785 45.8221 41.9139 46 42.4333 46H44.2667C44.7861 46 45.2215 45.8221 45.5729 45.4663C45.9243 45.1105 46.1 44.6697 46.1 44.1437V29.2938L42.25 18.1562C42.0667 17.5994 41.7382 17.1508 41.2646 16.8105C40.791 16.4702 40.2639 16.3 39.6833 16.3H19.5167C18.9361 16.3 18.409 16.4702 17.9354 16.8105C17.4618 17.1508 17.1333 17.5994 16.95 18.1562L13.1 29.2938V44.1437C13.1 44.6697 13.2757 45.1105 13.6271 45.4663C13.9785 45.8221 14.4139 46 14.9333 46H16.7667C17.2861 46 17.7215 45.8221 18.0729 45.4663C18.4243 45.1105 18.6 44.6697 18.6 44.1437ZM40.9667 25.5813H18.2333L20.1583 20.0125H39.0417L40.9667 25.5813ZM23.2979 35.9066C22.7632 36.448 22.1139 36.7188 21.35 36.7188C20.5861 36.7188 19.9368 36.448 19.4021 35.9066C18.8674 35.3652 18.6 34.7078 18.6 33.9344C18.6 33.1609 18.8674 32.5035 19.4021 31.9621C19.9368 31.4207 20.5861 31.15 21.35 31.15C22.1139 31.15 22.7632 31.4207 23.2979 31.9621C23.8326 32.5035 24.1 33.1609 24.1 33.9344C24.1 34.7078 23.8326 35.3652 23.2979 35.9066ZM39.7979 35.9066C39.2632 36.448 38.6139 36.7188 37.85 36.7188C37.0861 36.7188 36.4368 36.448 35.9021 35.9066C35.3674 35.3652 35.1 34.7078 35.1 33.9344C35.1 33.1609 35.3674 32.5035 35.9021 31.9621C36.4368 31.4207 37.0861 31.15 37.85 31.15C38.6139 31.15 39.2632 31.4207 39.7979 31.9621C40.3326 32.5035 40.6 33.1609 40.6 33.9344C40.6 34.7078 40.3326 35.3652 39.7979 35.9066Z" fill="white"/>
</svg>