<svg xmlns="http://www.w3.org/2000/svg" width="49" height="48" viewBox="0 0 49 48" fill="none">
  <mask id="mask0_8542_92037" style="mask-type:alpha" maskUnits="userSpaceOnUse" x="0" y="0" width="49" height="48">
    <rect x="0.5" width="48" height="48" fill="#D9D9D9"/>
  </mask>
  <g mask="url(#mask0_8542_92037)">
    <path d="M8.5 42C7.93333 42 7.45833 41.8083 7.075 41.425C6.69167 41.0417 6.5 40.5667 6.5 40V24L10.7 12C10.9 11.4 11.2583 10.9167 11.775 10.55C12.2917 10.1833 12.8667 10 13.5 10H23.1C22.9 10.6333 22.75 11.2833 22.65 11.95C22.55 12.6167 22.5 13.3 22.5 14H14.2L12.1 20H23.85C24.5833 21.6 25.6083 22.9917 26.925 24.175C28.2417 25.3583 29.7 26.2833 31.3 26.95C31.0333 27.25 30.8333 27.575 30.7 27.925C30.5667 28.275 30.5 28.6333 30.5 29C30.5 29.8333 30.7917 30.5417 31.375 31.125C31.9583 31.7083 32.6667 32 33.5 32C34.3333 32 35.0417 31.7083 35.625 31.125C36.2083 30.5417 36.5 29.8333 36.5 29C36.5 28.8333 36.4917 28.6667 36.475 28.5C36.4583 28.3333 36.4167 28.1667 36.35 28C37.4167 28 38.4667 27.8917 39.5 27.675C40.5333 27.4583 41.5333 27.1167 42.5 26.65V40C42.5 40.5667 42.3083 41.0417 41.925 41.425C41.5417 41.8083 41.0667 42 40.5 42H38.5C37.9333 42 37.4583 41.8083 37.075 41.425C36.6917 41.0417 36.5 40.5667 36.5 40V38H12.5V40C12.5 40.5667 12.3083 41.0417 11.925 41.425C11.5417 41.8083 11.0667 42 10.5 42H8.5ZM15.5 32C16.3333 32 17.0417 31.7083 17.625 31.125C18.2083 30.5417 18.5 29.8333 18.5 29C18.5 28.1667 18.2083 27.4583 17.625 26.875C17.0417 26.2917 16.3333 26 15.5 26C14.6667 26 13.9583 26.2917 13.375 26.875C12.7917 27.4583 12.5 28.1667 12.5 29C12.5 29.8333 12.7917 30.5417 13.375 31.125C13.9583 31.7083 14.6667 32 15.5 32ZM36.5 24C33.7333 24 31.375 23.025 29.425 21.075C27.475 19.125 26.5 16.7667 26.5 14C26.5 11.2667 27.4667 8.91667 29.4 6.95C31.3333 4.98333 33.7 4 36.5 4C39.2667 4 41.625 4.975 43.575 6.925C45.525 8.875 46.5 11.2333 46.5 14C46.5 16.7667 45.525 19.125 43.575 21.075C41.625 23.025 39.2667 24 36.5 24ZM36.5 20C36.7667 20 37 19.9 37.2 19.7C37.4 19.5 37.5 19.2667 37.5 19C37.5 18.7333 37.4 18.5 37.2 18.3C37 18.1 36.7667 18 36.5 18C36.2333 18 36 18.1 35.8 18.3C35.6 18.5 35.5 18.7333 35.5 19C35.5 19.2667 35.6 19.5 35.8 19.7C36 19.9 36.2333 20 36.5 20ZM35.5 16H37.5V8H35.5V16Z" fill="white"/>
  </g>
</svg>