<svg xmlns="http://www.w3.org/2000/svg" width="3rem" height="3rem" viewBox="0 0 48 48" fill="none">
  <path d="M5 30.0798C5 32.5587 5.85229 34.6465 7.55687 36.3433C9.26148 38.0401 11.3364 38.8884 13.7815 38.8884H31.0828C31.5956 40.107 32.3622 41.0969 33.3828 41.8581C34.4034 42.6194 35.5596 43 36.8514 43C38.5731 43 40.0283 42.3934 41.217 41.1802C42.4057 39.9669 43 38.5279 43 36.863C43 35.1445 42.4057 33.6886 41.217 32.4954C40.0283 31.3021 38.5731 30.7055 36.8514 30.7055C35.5628 30.7055 34.4052 31.0861 33.3784 31.8473C32.3516 32.6086 31.5864 33.5985 31.0828 34.817H13.7804C12.4863 34.817 11.3781 34.3644 10.4557 33.4593C9.53342 32.5541 9.07225 31.4276 9.07225 30.0798C9.07225 28.7138 9.53258 27.5876 10.4532 26.7012C11.3738 25.8148 12.48 25.3716 13.7718 25.3716L34.2185 25.3716C36.6979 25.3716 38.7814 24.5281 40.4688 22.841C42.1563 21.1539 43 19.0709 43 16.5921C43 14.0938 42.1563 11.9963 40.4688 10.2996C38.7814 8.6028 36.6979 7.75442 34.2185 7.75442H16.9172C16.4136 6.55521 15.6494 5.57015 14.6245 4.79923C13.5997 4.02831 12.4443 3.64286 11.1582 3.64286C9.47403 3.64286 8.0266 4.24004 6.81596 5.43442C5.60532 6.62883 5 8.09098 5 9.82088C5 11.4971 5.60773 12.9404 6.82321 14.1508C8.03871 15.3612 9.4805 15.9664 11.1486 15.9664C12.4374 15.9664 13.5988 15.5858 14.6329 14.8246C15.6671 14.0633 16.4285 13.0734 16.9172 11.8549H34.2185C35.5506 11.8549 36.6685 12.3075 37.5722 13.2126C38.4759 14.1178 38.9277 15.2443 38.9277 16.5921C38.9277 17.9239 38.4759 19.0415 37.5722 19.945C36.6685 20.8485 35.5506 21.3003 34.2185 21.3003L13.7815 21.3003C11.3364 21.3003 9.26148 22.1438 7.55687 23.8309C5.85229 25.518 5 27.601 5 30.0798Z" fill="white"/>
</svg>