<svg xmlns="http://www.w3.org/2000/svg" width="58" height="52" viewBox="0 0 58 52" fill="none">
  <path fill-rule="evenodd" clip-rule="evenodd" d="M1 1H57V51H1L1 1Z" fill="#0D1E26"/>
  <path d="M39.5016 38H19.4418C16.3557 38 15.1212 35.725 16.6643 32.9263L26.6942 15.0867C28.2372 12.3044 30.8604 12.3044 32.4035 15.0867L42.4334 32.9263C43.8221 35.8723 42.5877 38 39.5016 38ZM29.5025 18.0327C29.0933 18.0327 28.7008 18.2052 28.4114 18.5121C28.1221 18.819 27.9595 19.2353 27.9595 19.6694L28.731 30.144H30.2741L31.0456 19.6694C31.0456 19.2353 30.883 18.819 30.5936 18.5121C30.3043 18.2052 29.9118 18.0327 29.5025 18.0327ZM29.5025 31.617C29.0933 31.617 28.7008 31.7895 28.4114 32.0964C28.1221 32.4033 27.9595 32.8196 27.9595 33.2537C27.9595 33.6877 28.1221 34.104 28.4114 34.411C28.7008 34.7179 29.0933 34.8903 29.5025 34.8903C29.7087 34.9048 29.9154 34.8724 30.1088 34.7953C30.3022 34.7181 30.4778 34.5981 30.6239 34.4431C30.77 34.2881 30.8832 34.1018 30.956 33.8967C31.0287 33.6916 31.0592 33.4724 31.0456 33.2537C31.0169 32.8297 30.8452 32.4308 30.5618 32.1302C30.2784 31.8296 29.9023 31.6474 29.5025 31.617Z" fill="white"/>
  <path d="M10.3098 1H1L1 51H10.3098" stroke="white" stroke-opacity="0.56" stroke-width="2"/>
  <path d="M47.6902 1H57L57 51H47.6902" stroke="white" stroke-opacity="0.56" stroke-width="2"/>
</svg>