<svg xmlns="http://www.w3.org/2000/svg" width="48" height="48" viewBox="0 0 48 48" fill="none">
  <path d="M5.00142 40.6501C4.51865 40.6501 4.10232 40.5347 3.75242 40.3038C3.40245 40.073 3.13545 39.7884 2.95142 39.4501C2.74585 39.1301 2.63613 38.7571 2.62227 38.3311C2.60837 37.9051 2.71808 37.4781 2.95142 37.0501L21.9514 4.2501C22.1848 3.8501 22.4865 3.55843 22.8566 3.3751C23.2266 3.19176 23.61 3.1001 24.0066 3.1001C24.4031 3.1001 24.7848 3.19176 25.1514 3.3751C25.5181 3.55843 25.8181 3.8501 26.0514 4.2501L45.0514 37.0501C45.2848 37.4781 45.3945 37.9051 45.3806 38.3311C45.3667 38.7571 45.257 39.1301 45.0514 39.4501C44.8616 39.7751 44.5931 40.0564 44.2461 40.2938C43.8991 40.5313 43.4842 40.6501 43.0014 40.6501H5.00142ZM24.2102 34.0501C24.6568 34.0501 25.0504 33.877 25.3908 33.5307C25.7312 33.1844 25.9014 32.788 25.9014 32.3413C25.9014 31.8947 25.7283 31.5095 25.382 31.1857C25.0358 30.862 24.6393 30.7001 24.1927 30.7001C23.746 30.7001 23.3525 30.8649 23.012 31.1945C22.6716 31.5241 22.5014 31.9122 22.5014 32.3588C22.5014 32.8055 22.6746 33.1991 23.0208 33.5395C23.3671 33.8799 23.7635 34.0501 24.2102 34.0501ZM24.2102 28.6001C24.6377 28.6001 24.9931 28.4563 25.2764 28.1688C25.5598 27.8813 25.7014 27.5251 25.7014 27.1001V19.3001C25.7014 18.8751 25.5568 18.5188 25.2677 18.2313C24.9785 17.9438 24.6201 17.8001 24.1927 17.8001C23.7652 17.8001 23.4097 17.9438 23.1264 18.2313C22.8431 18.5188 22.7014 18.8751 22.7014 19.3001V27.1001C22.7014 27.5251 22.846 27.8813 23.1352 28.1688C23.4244 28.4563 23.7827 28.6001 24.2102 28.6001Z" fill="#E02424"/>
</svg>