<svg xmlns="http://www.w3.org/2000/svg" width="34" height="34" viewBox="0 0 34 34" fill="none">
  <path d="M17 0C7.65 0 0 7.65 0 17C0 26.35 7.65 34 17 34C26.35 34 34 26.35 34 17C34 7.65 26.35 0 17 0ZM22.95 10.2C24.31 10.2 25.5 11.39 25.5 12.75C25.5 14.11 24.31 15.3 22.95 15.3C21.59 15.3 20.4 14.11 20.4 12.75C20.4 11.39 21.59 10.2 22.95 10.2ZM11.05 10.2C12.41 10.2 13.6 11.39 13.6 12.75C13.6 14.11 12.41 15.3 11.05 15.3C9.69 15.3 8.5 14.11 8.5 12.75C8.5 11.39 9.69 10.2 11.05 10.2ZM17 27.2C12.58 27.2 8.84 24.31 7.48 20.4H26.52C25.16 24.31 21.42 27.2 17 27.2Z" fill="url(#paint0_linear_8483_101890)" fill-opacity="0.9"/>
  <defs>
    <linearGradient id="paint0_linear_8483_101890" x1="17" y1="0" x2="17" y2="34" gradientUnits="userSpaceOnUse">
      <stop stop-color="#23F8A8"/>
      <stop offset="1" stop-color="#14D28B"/>
    </linearGradient>
  </defs>
</svg>