<svg xmlns="http://www.w3.org/2000/svg" width="30" height="30" viewBox="0 0 30 30" fill="none">
  <path d="M4.28571 0H2.14286C0.964286 0 0 0.964286 0 2.14286V27.8571C0 29.0357 0.964286 30 2.14286 30H4.28571C5.46429 30 6.42857 29.0357 6.42857 27.8571V2.14286C6.42857 0.964286 5.46429 0 4.28571 0ZM4.28571 27.3214C4.28571 27.6429 4.07143 27.8571 3.75 27.8571H2.67857C2.35714 27.8571 2.14286 27.6429 2.14286 27.3214V2.67857C2.14286 2.35714 2.35714 2.14286 2.67857 2.14286H3.75C4.07143 2.14286 4.28571 2.35714 4.28571 2.67857V27.3214ZM25.1786 14.4643H8.57143C7.98214 14.4643 7.5 14.9464 7.5 15.5357C7.5 16.125 7.98214 16.6071 8.57143 16.6071H25.1786C26.6786 16.6071 27.8571 17.7857 27.8571 19.2857C27.8571 20.7857 26.6786 21.9643 25.1786 21.9643C23.6786 21.9643 22.5 20.7857 22.5 19.2857C22.5 18.6964 22.0179 18.2143 21.4286 18.2143C20.8393 18.2143 20.3571 18.6964 20.3571 19.2857C20.3571 21.9643 22.5 24.1071 25.1786 24.1071C27.8571 24.1071 30 21.9643 30 19.2857C30 16.6071 27.8571 14.4643 25.1786 14.4643ZM16.0714 21.4286H8.57143C7.98214 21.4286 7.5 21.9107 7.5 22.5C7.5 23.0893 7.98214 23.5714 8.57143 23.5714H16.0714C16.9821 23.5714 17.6786 24.2679 17.6786 25.1786C17.6786 26.0893 16.9821 26.7857 16.0714 26.7857C15.1607 26.7857 14.4643 26.0893 14.4643 25.1786C14.4643 24.5893 13.9821 24.1071 13.3929 24.1071C12.8036 24.1071 12.3214 24.5893 12.3214 25.1786C12.3214 27.2679 13.9821 28.9286 16.0714 28.9286C18.1607 28.9286 19.8214 27.2679 19.8214 25.1786C19.8214 23.0893 18.1607 21.4286 16.0714 21.4286ZM8.57143 9.64286H21.9643C24.3214 9.64286 26.25 7.71429 26.25 5.35714C26.25 3 24.3214 1.07143 21.9643 1.07143C19.6071 1.07143 17.6786 3 17.6786 5.35714C17.6786 5.94643 18.1607 6.42857 18.75 6.42857C19.3393 6.42857 19.8214 5.94643 19.8214 5.35714C19.8214 4.17857 20.7857 3.21429 21.9643 3.21429C23.1429 3.21429 24.1071 4.17857 24.1071 5.35714C24.1071 6.53571 23.1429 7.5 21.9643 7.5H8.57143C7.98214 7.5 7.5 7.98214 7.5 8.57143C7.5 9.16071 7.98214 9.64286 8.57143 9.64286Z" fill="#19FFEC"/>
</svg>