<svg xmlns="http://www.w3.org/2000/svg" width="27" height="30" viewBox="0 0 27 30" fill="none">
  <path d="M25.7638 5.70097L18.8826 5.7518V1.22393C18.8791 0.896744 18.7478 0.584302 18.5176 0.354954C18.2874 0.125605 17.9769 -0.00198269 17.6541 9.96408e-05H1.2343C1.07359 -0.00196943 0.914061 0.0282036 0.764898 0.0888819C0.615736 0.14956 0.479885 0.239546 0.365165 0.353658C0.250445 0.467771 0.159121 0.603758 0.0964511 0.753791C0.0337809 0.903824 0.00100168 1.06494 0 1.22787V28.7742C0 29.4526 0.551567 30 1.23045 30L25.7695 29.9511C25.9299 29.9527 26.0891 29.9221 26.2378 29.8612C26.3865 29.8003 26.5219 29.7102 26.6362 29.5962C26.7505 29.4821 26.8415 29.3463 26.9039 29.1965C26.9663 29.0468 26.999 28.886 27 28.7234V6.92677C26.9964 6.59837 26.8644 6.28483 26.633 6.055C26.4016 5.82517 26.0897 5.69784 25.7657 5.70097H25.7638ZM2.21784 2.27767L16.4893 2.264V27.5914L13.0564 27.609V22.0958C13.0564 21.9379 13.0257 21.7815 12.9659 21.6356C12.9062 21.4897 12.8186 21.3572 12.7082 21.2456C12.5979 21.1341 12.4669 21.0458 12.3228 20.9857C12.1786 20.9256 12.0242 20.8949 11.8684 20.8954H6.93707C6.62366 20.897 6.32355 21.024 6.10212 21.2488C5.88068 21.4737 5.75586 21.7781 5.75485 22.0958V27.5914H2.21784V2.27767ZM7.74127 27.5562V22.9815H11.0469V27.5406H7.74321V27.5562L7.74127 27.5562ZM18.8094 27.6578V7.85343H24.5276V27.654H18.8113V27.6579L18.8094 27.6578Z" fill="white"/>
  <path d="M11.0353 7.83583C11.3342 7.82865 11.6182 7.70229 11.8258 7.48417C12.0334 7.26604 12.1478 6.97374 12.1442 6.67067C12.1499 6.36625 12.0364 6.07194 11.8286 5.85211C11.6208 5.63229 11.3355 5.50485 11.0353 5.49767H7.83386C7.5336 5.50383 7.24796 5.63028 7.03942 5.84936C6.83088 6.06844 6.71642 6.36233 6.72106 6.66673C6.70949 7.29823 7.20321 7.8202 7.82998 7.83583H11.0353ZM11.0353 13.3002C11.3342 13.293 11.6183 13.1666 11.8259 12.9485C12.0335 12.7304 12.1478 12.438 12.1442 12.135C12.1499 11.8306 12.0364 11.5362 11.8286 11.3164C11.6208 11.0966 11.3355 10.9691 11.0353 10.962H7.83386C7.5336 10.9681 7.24796 11.0946 7.03942 11.3137C6.83088 11.5327 6.71642 11.8266 6.72106 12.131C6.70949 12.7625 7.20321 13.2845 7.82998 13.3002H11.0353ZM11.0353 18.7645C11.3342 18.7573 11.6183 18.6309 11.8259 18.4128C12.0335 18.1947 12.1478 17.9023 12.1442 17.5993C12.1499 17.2949 12.0364 17.0005 11.8286 16.7807C11.6208 16.5609 11.3355 16.4334 11.0353 16.4263H7.83386C7.53327 16.4319 7.24714 16.5581 7.03819 16.7773C6.82924 16.9964 6.71452 17.2906 6.71916 17.5953C6.70758 18.2268 7.20127 18.7488 7.82808 18.7645H11.0353Z" fill="white"/>
</svg>