<svg xmlns="http://www.w3.org/2000/svg" width="25" height="40" viewBox="0 0 25 40" fill="none">
  <path d="M11.9715 33.301C7.26017 30.7654 3.00953 27.9551 1.16689 22.7148C-0.445417 18.1507 1.77413 12.5301 6.08758 9.78323C6.59012 9.46628 7.09266 9.17045 7.5952 8.8535C10.6942 6.90954 11.6364 4.03585 10.3173 0.591642C10.2335 0.401471 10.1498 0.211301 10.066 0C16.5362 0.971984 22.776 6.71937 21.8966 14.0938C21.4988 17.4534 19.8655 20.0102 16.6618 21.4048C15.4892 21.9119 14.2538 22.3134 13.2278 23.1374C10.757 25.1237 10.3382 27.7227 11.113 30.6386C11.3224 31.4838 11.6364 32.3079 11.9715 33.301Z" fill="url(#paint0_linear_8483_101920)"/>
  <path d="M14.4423 34.6111C13.5838 33.2165 13.1022 31.7796 12.8928 30.2794C12.474 27.3635 14.7145 24.6165 17.6878 24.3419C17.9391 24.3207 18.1694 24.2996 18.4207 24.3207C20.4309 24.4052 22.0222 23.8347 22.4829 21.5527C25.4353 24.046 25.3306 28.7158 22.3363 30.6809C21.5197 31.2091 20.6612 31.5049 19.6771 31.3782C16.1802 30.9556 15.6358 31.2936 14.4423 34.6111Z" fill="url(#paint1_linear_8483_101920)"/>
  <path d="M13.5838 39.9781C10.1288 39.9781 6.67388 39.9359 3.21893 39.9992C2.36042 40.0204 2.4023 39.5978 2.38136 38.985C2.36042 38.3511 2.46512 38.0553 3.19799 38.0764C4.51715 38.1398 5.85725 38.0764 7.17642 38.1187C7.80459 38.1398 8.20243 38.0341 8.05586 37.2946C7.84647 36.3015 8.32807 36.1747 9.18657 36.1958C12.3274 36.2381 15.4683 36.2381 18.6092 36.1958C19.3211 36.1958 19.6561 36.3437 19.5096 37.1044C19.363 37.9074 19.6771 38.2032 20.4937 38.1398C21.6453 38.0553 22.797 38.1609 23.9486 38.0975C24.8071 38.0553 24.5768 38.6258 24.5978 39.0695C24.5978 39.5344 24.7653 40.0204 23.9277 39.9992C20.4937 39.957 17.0387 39.9781 13.5838 39.9781Z" fill="url(#paint2_linear_8483_101920)"/>
  <defs>
    <linearGradient id="paint0_linear_8483_101920" x1="12.6406" y1="0" x2="12.6406" y2="40" gradientUnits="userSpaceOnUse">
      <stop stop-color="white"/>
      <stop offset="1" stop-color="white" stop-opacity="0.66"/>
    </linearGradient>
    <linearGradient id="paint1_linear_8483_101920" x1="12.6406" y1="0" x2="12.6406" y2="40" gradientUnits="userSpaceOnUse">
      <stop stop-color="white"/>
      <stop offset="1" stop-color="white" stop-opacity="0.66"/>
    </linearGradient>
    <linearGradient id="paint2_linear_8483_101920" x1="12.6406" y1="0" x2="12.6406" y2="40" gradientUnits="userSpaceOnUse">
      <stop stop-color="white"/>
      <stop offset="1" stop-color="white" stop-opacity="0.66"/>
    </linearGradient>
  </defs>
</svg>