<svg xmlns="http://www.w3.org/2000/svg" width="39" height="28" viewBox="0 0 39 28" fill="none">
  <path d="M20.7859 12.8073C19.9982 12.8073 19.6048 13.4335 19.6056 14.6834V17.5988C19.6056 18.8387 19.9891 19.459 20.7562 19.4598C21.5629 19.4598 21.9654 18.8629 21.9646 17.669V14.8053C21.9671 13.4728 21.5736 12.8073 20.7851 12.8082L20.7859 12.8073Z" fill="url(#paint0_linear_8483_101900)"/>
  <path d="M37.2588 13.5337C36.28 12.1876 34.9567 11.1377 33.4315 10.4972C31.9913 4.37904 26.5573 0 20.2753 0C17.328 0.00194366 14.4619 0.978004 12.1128 2.77978C9.76369 4.58155 8.0601 7.11048 7.26105 9.98205C5.21981 10.3926 3.38166 11.5051 2.05826 13.1308C0.734865 14.7566 0.00767859 16.7956 0 18.9021C0 23.9148 4.02933 28 8.98826 28H30.0109C34.9641 28 39 23.9207 39 18.9021C39.0018 16.9703 38.3918 15.0888 37.2596 13.5337H37.2588ZM16.0769 19.9173C15.6975 20.5185 15.0483 20.819 14.1278 20.819C13.0399 20.819 12.2843 20.5327 11.8595 19.9624C11.4356 19.3914 11.2252 18.4446 11.2302 17.1221V15.2194C11.2302 13.8025 11.4496 12.8207 11.8884 12.2747C12.333 11.727 13.0349 11.449 13.9934 11.449C14.8958 11.449 15.5482 11.6936 15.9491 12.182C16.3508 12.6704 16.5512 13.4243 16.5512 14.4479H14.918C14.918 13.8944 14.8628 13.4828 14.7498 13.2131C14.6376 12.9443 14.4264 12.8099 14.1155 12.8099C13.3319 12.8099 12.9417 13.4344 12.9417 14.6834V17.5988C12.9417 18.2693 13.0423 18.7477 13.2419 19.0332C13.4424 19.3187 13.7369 19.4615 14.127 19.4615C14.4198 19.4615 14.6368 19.3112 14.7745 19.0098C14.9131 18.7067 14.9865 18.1849 14.9865 17.4469H16.6469C16.6452 18.493 16.4555 19.3171 16.0777 19.9173H16.0769ZM23.677 17.1338C23.677 18.4621 23.4666 19.4089 23.0468 19.9741C22.6261 20.5393 21.8805 20.8207 20.8082 20.8174C19.7656 20.8174 19.0199 20.5485 18.5688 20.0092C18.1184 19.4698 17.8924 18.508 17.8924 17.1229V15.3321C17.8924 13.8526 18.1159 12.8357 18.563 12.2822C19.01 11.7278 19.7507 11.4515 20.7851 11.4506C21.9415 11.4506 22.7136 11.7629 23.0988 12.3866C23.4848 13.0111 23.6778 13.9929 23.677 15.3321V17.1338ZM27.6956 19.8038V20.6278H24.6462C24.6618 20.1019 24.7171 19.6794 24.8243 19.3621C24.9324 19.0449 25.2268 18.6191 25.7209 18.0914L26.2092 17.5721C26.3701 17.4177 26.5103 17.2415 26.6249 17.0495C26.7058 16.8741 26.7429 16.6821 26.7322 16.4884C26.7322 16.0526 26.5656 15.833 26.2307 15.833C25.9931 15.833 25.8381 15.909 25.7671 16.0601C25.697 16.2112 25.6657 16.4826 25.6657 16.8842H24.6924V16.6579C24.6924 15.56 25.2021 15.0115 26.22 15.0115C26.7404 15.0115 27.1273 15.1534 27.3846 15.4323C27.6428 15.7128 27.7822 16.0843 27.7706 16.4675C27.7706 17.0236 27.543 17.5379 27.0836 18.0079L26.2917 18.8428C25.9313 19.216 25.7506 19.5366 25.7506 19.803H27.6948L27.6956 19.8038Z" fill="url(#paint1_linear_8483_101900)"/>
  <defs>
    <linearGradient id="paint0_linear_8483_101900" x1="19.5" y1="0" x2="19.5" y2="28" gradientUnits="userSpaceOnUse">
      <stop stop-color="white"/>
      <stop offset="1" stop-color="white" stop-opacity="0.66"/>
    </linearGradient>
    <linearGradient id="paint1_linear_8483_101900" x1="19.5" y1="0" x2="19.5" y2="28" gradientUnits="userSpaceOnUse">
      <stop stop-color="white"/>
      <stop offset="1" stop-color="white" stop-opacity="0.66"/>
    </linearGradient>
  </defs>
</svg>