<svg xmlns="http://www.w3.org/2000/svg" width="29" height="16" viewBox="0 0 29 16" fill="none">
  <path d="M17.4828 4.14987C17.4828 4.07516 17.3043 4.01099 17.0442 3.97934V2.08944C17.0442 2.00551 17.0098 1.92502 16.9487 1.86568C16.8875 1.80633 16.8045 1.77299 16.718 1.77299H15.4366C15.3858 0.862323 15.0016 0.134491 14.514 0.0167015V0H3.83332V0.00615314C3.38746 0.0764751 3.03766 0.750686 3.03766 1.57169C3.03766 2.3927 3.38746 3.06692 3.83332 3.13724V3.14339H5.73095C5.81341 3.58466 6.03453 3.91078 6.30096 3.95473V3.95825H14.4062C14.9028 3.931 15.3142 3.277 15.4175 2.40765H16.0655C16.152 2.40765 16.235 2.44099 16.2962 2.50033C16.3574 2.55968 16.3917 2.64017 16.3917 2.7241V3.97143C16.0854 3.99868 15.8679 4.069 15.8679 4.15075V4.62279H14.4406V13.8816H21.6659V4.62191H17.481V4.14987H17.4828Z" fill="white"/>
  <path d="M18.1562 14.8898H10.3418C10.1904 14.8898 10.0452 14.8314 9.9381 14.7276C9.83103 14.6237 9.77088 14.4829 9.77088 14.336V13.8816H14.0691V4.62191H6.84379V13.8824H8.63086V15.4445C8.63062 15.5172 8.64515 15.5892 8.67362 15.6565C8.70209 15.7238 8.74395 15.785 8.79679 15.8366C8.84964 15.8881 8.91244 15.9291 8.98162 15.9572C9.05079 15.9852 9.12499 15.9998 9.19996 16H18.9944V14.8916H18.1562V14.8898ZM2.18671 4.62894C0.968751 4.76255 0 6.78079 0 9.25173C0 11.7227 0.966939 13.7409 2.18671 13.8745V13.8816H6.47224V4.62191H2.18671V4.62894ZM26.9728 4.65795V4.62191H22.0393V13.8824H26.9737V13.8464C28.1155 13.5616 29 11.6137 29 9.25173C28.9991 6.89067 28.1146 4.94187 26.9728 4.65795Z" fill="white"/>
</svg>