<svg xmlns="http://www.w3.org/2000/svg" width="26" height="19" viewBox="0 0 26 19" fill="none">
  <path d="M25.1875 17.417H22.75V14.25H24.375C25.2691 14.25 26 12.5084 26 10.2915C26 8.07512 25.2691 6.33352 24.375 6.33352H22.75V3.95851C22.75 3.48317 22.425 3.16647 21.9375 3.16647C21.45 3.16647 21.125 3.48319 21.125 3.95852V4.75H18.6875V3.48317L19.256 2.92881C19.4185 2.77074 19.5 2.61268 19.5 2.375V1.58294C19.9875 1.58294 20.3125 1.26681 20.3125 0.79147C20.3125 0.316114 19.9875 0 19.5 0H13C12.5125 0 12.1875 0.316702 12.1875 0.79147C12.1875 1.26681 12.5125 1.58294 13 1.58294V2.37557C13 2.61324 13.0809 2.77131 13.244 2.92938L13.8125 3.48374V4.75058H11.375V2.37494C11.375 1.8996 9.5875 1.5829 7.3125 1.5829C5.0375 1.5829 3.25 1.90019 3.25 2.37553V4.75054H1.625C0.731539 4.74996 0 7.20345 0 10.2915C0 13.3795 0.731539 15.8335 1.625 15.8335H3.25V17.4171H0.812529C0.324971 17.417 0 17.7332 0 18.2085C0 18.6839 0.324991 19 0.812509 19H25.1875C25.675 19 26 18.6833 26 18.2085C26 17.7332 25.675 17.417 25.1875 17.417ZM19.5 14.25H17.875V11.0829H19.5V14.25ZM14.625 14.25V11.0829H16.25V14.25H14.625ZM13 14.25H11.375V11.0829H13V14.25ZM11.375 15.8335H21.125V17.4171H11.375V15.8335Z" fill="white"/>
</svg>