<svg xmlns="http://www.w3.org/2000/svg" width="35" height="33" viewBox="0 0 35 33" fill="none">
  <path d="M34.109 33H0.891031C0.654715 33 0.428078 32.9059 0.260977 32.7385C0.0938761 32.571 0 32.3439 0 32.1071C0 31.8703 0.0938761 31.6432 0.260977 31.4757C0.428078 31.3083 0.654715 31.2142 0.891031 31.2142H34.109C34.3453 31.2142 34.5719 31.3083 34.739 31.4757C34.9061 31.6432 35 31.8703 35 32.1071C35 32.3439 34.9061 32.571 34.739 32.7385C34.5719 32.9059 34.3453 33 34.109 33ZM22.5151 15.6926H18.5247V7L12.8483 17.6716H16.9807V25.9681L22.5151 15.6926Z" fill="white"/>
  <path d="M29.0987 32C28.9832 31.9998 28.8688 31.977 28.7622 31.9329C28.6555 31.8888 28.5587 31.8243 28.4771 31.743C28.3956 31.6617 28.331 31.5653 28.2869 31.4592C28.2429 31.3532 28.2204 31.2395 28.2206 31.1248C28.2206 31.0016 28.2434 18.7102 28.2434 12.4114C28.2417 6.53296 23.4233 1.74746 17.5012 1.74746C11.5792 1.74746 6.76077 6.53296 6.76077 12.4118C6.76077 18.7081 6.85139 30.9518 6.85222 31.0747C6.85309 31.1894 6.8312 31.3032 6.78779 31.4095C6.74438 31.5158 6.68031 31.6126 6.59923 31.6943C6.51815 31.776 6.42166 31.8411 6.31525 31.8858C6.20884 31.9305 6.09461 31.9539 5.97908 31.9548H5.97246C5.73999 31.9551 5.51683 31.8641 5.35175 31.7016C5.18668 31.539 5.09309 31.3183 5.09145 31.0874C5.09145 30.9642 5 18.7139 5 12.4114C5 9.11969 6.31696 5.9628 8.66117 3.63521C11.0054 1.30763 14.1848 0 17.5 0C20.8152 0 23.9946 1.30763 26.3388 3.63521C28.683 5.9628 30 9.11969 30 12.4114C30 18.7114 29.9772 31.0044 29.9772 31.1277C29.9769 31.359 29.8842 31.5806 29.7196 31.7442C29.5549 31.9077 29.3316 31.9997 29.0987 32Z" fill="white"/>
</svg>