<svg xmlns="http://www.w3.org/2000/svg" width="29" height="29" viewBox="0 0 29 29" fill="none">
  <path d="M18.3869 23.4517V22.7396C18.3869 22.3918 18.6682 22.0937 19.0322 22.0937H20.2235V8.72816C20.2235 8.16505 19.8429 7.65163 19.2804 7.55226C18.602 7.43632 17.9732 7.93318 17.9236 8.56253V16.032C17.9236 20.7687 13.8036 24.578 8.97222 24.0314C7.53272 23.8658 6.15941 23.3192 5.01773 22.4415C3.04876 20.9178 1.90709 18.6653 1.8409 16.2142V2.004H0.649594C0.302129 2.004 0.0043011 1.72244 0.0043011 1.35808V0.645917C0.0043011 0.298115 0.285583 0 0.649594 0H9.93189C10.2794 0 10.5772 0.281553 10.5772 0.645917V1.35808C10.5772 1.70588 10.2959 2.004 9.93189 2.004H8.74058V15.9823C8.74058 16.5454 9.12114 17.0588 9.6837 17.1582C10.3621 17.2741 10.9908 16.7773 11.0405 16.1479V8.67847C11.0405 3.94175 15.1604 0.132496 19.9918 0.679041C21.4313 0.84466 22.8047 1.39121 23.9463 2.26899C25.9153 3.79269 27.057 6.04512 27.1232 8.49629V22.0937H28.3145C28.6619 22.0937 28.9598 22.3752 28.9598 22.7396V23.4517C28.9598 23.7995 28.6785 24.0977 28.3145 24.0977H19.0322C18.6682 24.0977 18.3869 23.7995 18.3869 23.4517ZM3.84297 16.1976C3.9257 19.4106 6.50687 22.0109 9.71679 22.0937H9.88225C13.208 22.0937 15.9215 19.3775 15.9215 16.0485V8.52941C16.0043 6.85665 17.3941 5.54826 19.0653 5.54826C19.5782 5.54826 20.0911 5.66419 20.5544 5.91262C21.6134 6.50885 22.209 7.55226 22.209 8.69503V22.1102H25.1046V8.54597C25.0218 5.33295 22.4407 2.73272 19.2307 2.64991H19.0653C15.7395 2.64991 13.026 5.36608 13.026 8.69503V16.2142C12.9433 17.8869 11.5534 19.1953 9.88225 19.1953C8.14492 19.1953 6.73851 17.771 6.73851 16.0485V2.02056H3.84297V16.1976ZM22.0105 29C21.3652 29 20.7033 28.7681 20.0911 28.3375L18.9825 27.4763C18.8005 27.3438 18.5523 27.261 18.3207 27.261C18.0725 27.261 17.8409 27.3438 17.6589 27.4763L16.5337 28.3375C16.0208 28.735 15.3424 28.9669 14.664 28.9669C13.9857 28.9669 13.3238 28.7516 12.7943 28.3375L11.6692 27.4763C11.4872 27.3438 11.239 27.261 11.0074 27.261C10.7592 27.261 10.5275 27.3438 10.3455 27.4763L9.22041 28.3375C8.70749 28.735 8.0291 28.9669 7.35072 28.9669C6.67233 28.9669 6.01049 28.7516 5.48102 28.3375L4.35589 27.4763C4.17389 27.3438 3.9257 27.261 3.69405 27.261C3.44586 27.261 3.21422 27.3438 3.03222 27.4763L1.57617 28.6025C1.39416 28.7184 1.17907 28.7847 0.947422 28.7847C0.633048 28.7847 0.351767 28.6522 0.186307 28.4369C-0.111521 27.9897 -0.0453369 27.3604 0.335221 27.0457L1.79127 25.936C2.32074 25.5385 2.98258 25.3067 3.66096 25.3067C4.33935 25.3067 5.00119 25.522 5.53066 25.936L6.65579 26.7973C6.83779 26.9298 7.08598 27.0126 7.31762 27.0126C7.56581 27.0126 7.79746 26.9298 7.97946 26.7973L9.10459 25.936C9.61752 25.5385 10.2959 25.3067 10.9743 25.3067C11.6527 25.3067 12.3145 25.522 12.844 25.936L13.9691 26.7973C14.1511 26.9298 14.3993 27.0126 14.6309 27.0126C14.8791 27.0126 15.1108 26.9298 15.2928 26.7973L16.4179 25.936C16.9308 25.5385 17.6092 25.3067 18.2876 25.3067C18.966 25.3067 19.6278 25.522 20.1573 25.936L21.2824 26.7973C21.4644 26.9298 21.7126 27.0126 21.9443 27.0126C22.1925 27.0126 22.4241 26.9298 22.6061 26.7973L23.7312 25.936C24.2442 25.5385 24.9226 25.3067 25.6009 25.3067C26.2793 25.3067 26.9412 25.522 27.4706 25.936L28.5958 26.7973C28.8109 26.9463 28.9598 27.1616 28.9929 27.4101C29.026 27.675 28.9432 27.9566 28.7612 28.1885C28.5792 28.4535 28.3145 28.6025 28.0166 28.6025C27.785 28.6025 27.5534 28.5197 27.3714 28.3541L26.2462 27.4929C26.0642 27.3604 25.816 27.2776 25.5844 27.2776C25.3362 27.2776 25.1046 27.3604 24.9225 27.4929L23.7974 28.3541C23.3341 28.7516 22.6723 29 22.0105 29Z" fill="white"/>
</svg>