<svg xmlns="http://www.w3.org/2000/svg" width="30" height="30" viewBox="0 0 30 30" fill="none">
  <path d="M17.2513 6L10 14.0456L15.329 16.1041L13.748 24L20 15.9915L15.9454 13.6143L17.2513 6Z" fill="#E7E8E8"/>
  <path d="M15 30C6.729 30 0 23.271 0 15C0 6.58875 6.58875 0 15 0C23.4113 0 30 6.58875 30 15C30 23.4113 23.4113 30 15 30ZM15 2.22225C7.83488 2.22225 2.22225 7.83488 2.22225 15C2.22225 22.0455 7.9545 27.7778 15 27.7778C22.1651 27.7778 27.7778 22.1651 27.7778 15C27.7778 7.83488 22.1651 2.22225 15 2.22225Z" fill="#E7E8E8"/>
</svg>