<svg xmlns="http://www.w3.org/2000/svg" width="25" height="35" viewBox="0 0 25 35" fill="none">
  <path d="M6.30216 8.12243e-05H21.3892C21.5743 0.000492071 21.7561 0.0493933 21.917 0.142023C22.0778 0.234652 22.2122 0.367853 22.3071 0.528654C22.402 0.689456 22.4541 0.872377 22.4583 1.05961C22.4626 1.24683 22.4189 1.43199 22.3314 1.59704L16.7017 12.0369C16.6429 12.147 16.6132 12.2707 16.6155 12.3959C16.6177 12.5211 16.6519 12.6435 16.7147 12.7514C16.7775 12.8593 16.8668 12.949 16.9738 13.0117C17.0809 13.0744 17.2022 13.1081 17.3259 13.1095H23.9332C24.1387 13.1104 24.3397 13.1712 24.5121 13.2845C24.6845 13.3978 24.8211 13.5589 24.9055 13.7486C24.9899 13.9383 25.0186 14.1486 24.9882 14.3543C24.9578 14.56 24.8696 14.7526 24.734 14.909L7.65658 34.3585C7.50821 34.6414 7.25486 34.8531 6.95226 34.947C6.64967 35.0408 6.32261 35.0092 6.04305 34.8591C5.76349 34.709 5.55432 34.4526 5.46155 34.1464C5.36879 33.8402 5.40002 33.5093 5.5484 33.2264L8.82255 19.974C8.84942 19.8668 8.85178 19.7549 8.82945 19.6466C8.80712 19.5384 8.76068 19.4368 8.69368 19.3494C8.62668 19.2621 8.54087 19.1914 8.44279 19.1427C8.34471 19.0939 8.23694 19.0685 8.12768 19.0683H1.06115C0.894083 19.0666 0.729719 19.0254 0.581176 18.948C0.432634 18.8706 0.304027 18.7592 0.205624 18.6226C0.10722 18.4859 0.0417452 18.3279 0.0144257 18.1611C-0.0128939 17.9944 -0.00130102 17.8234 0.0482782 17.662L5.27751 0.70322C5.35689 0.49415 5.49763 0.314692 5.68082 0.188986C5.864 0.06328 6.08084 -0.00264427 6.30216 8.12243e-05Z" fill="url(#paint0_linear_8483_101913)"/>
  <defs>
    <linearGradient id="paint0_linear_8483_101913" x1="12.5" y1="0" x2="12.5" y2="35" gradientUnits="userSpaceOnUse">
      <stop stop-color="white"/>
      <stop offset="1" stop-color="white" stop-opacity="0.66"/>
    </linearGradient>
  </defs>
</svg>