<svg xmlns="http://www.w3.org/2000/svg" width="58" height="52" viewBox="0 0 58 52" fill="none">
  <path fill-rule="evenodd" clip-rule="evenodd" d="M1 1H57V51H1L1 1Z" fill="#0D1E26"/>
  <path d="M29 10C20.2 10 13 17.2 13 26C13 34.8 20.2 42 29 42C37.8 42 45 34.8 45 26C45 17.2 37.8 10 29 10ZM29 39C21.8 39 16 33.2 16 26H18C18 32 23 37 29 37V39ZM29 35C24 35 20 31 20 26H22C22 29.8 25.2 33 29 33V35ZM29 31C26.2 31 24 28.8 24 26C24 23.2 26.2 21 29 21C31.8 21 34 23.2 34 26C34 28.8 31.8 31 29 31ZM36 26C36 22.2 32.8 19 29 19V17C34 17 38 21 38 26H36ZM40 26C40 20 35 15 29 15V13C36.2 13 42 18.8 42 26H40Z" fill="white"/>
  <path d="M10.3098 1H1L1 51H10.3098" stroke="white" stroke-opacity="0.56" stroke-width="2"/>
  <path d="M47.6902 1H57L57 51H47.6902" stroke="white" stroke-opacity="0.56" stroke-width="2"/>
</svg>