<svg xmlns="http://www.w3.org/2000/svg" width="23" height="44" viewBox="0 0 23 44" fill="none">
  <path d="M8.62259 14.8929C9.3552 15.5913 10.0733 15.7635 10.777 15.4044C11.8759 14.8437 13.3942 13.8551 14.3726 13.7469V5.86765C14.3726 4.2495 13.0857 2.93628 11.5 2.93628C9.91429 2.93628 8.62741 4.2495 8.62741 5.86765V14.8929H8.62259ZM5.75 22.1033V5.86765C5.75 2.62643 8.32377 0 11.5 0C14.6762 0 17.25 2.62643 17.25 5.86765V22.1033C20.6865 24.1297 23 27.9218 23 32.2647C23 38.7472 17.8525 44 11.5 44C5.14753 44 0 38.7521 0 32.2696C0 27.9267 2.3135 24.1346 5.75 22.1033ZM12.9363 40.3358C16.5078 40.3358 19.4044 37.3798 19.4044 33.7353C19.4044 33.332 19.0815 33.0025 18.6863 33.0025C18.2911 33.0025 17.9681 33.332 17.9681 33.7353C17.9681 36.5683 15.7173 38.8701 12.9363 38.8701C12.5411 38.8701 12.2181 39.1996 12.2181 39.6029C12.2181 40.0063 12.5411 40.3358 12.9363 40.3358Z" fill="url(#paint0_linear_8483_101883)"/>
  <defs>
    <linearGradient id="paint0_linear_8483_101883" x1="11.5" y1="0" x2="11.5" y2="44" gradientUnits="userSpaceOnUse">
      <stop stop-color="#e1490f"/>
      <stop offset="1" stop-color="#e1490f" stop-opacity="0.66"/>
    </linearGradient>
  </defs>
</svg>