<svg xmlns="http://www.w3.org/2000/svg" width="35" height="35" viewBox="0 0 35 35" fill="none">
  <path d="M24.6366 27.7855C23.5646 27.7855 22.7658 27.0282 22.7658 26.0186V20.9916C22.7658 18.4675 20.8949 16.7218 18.2252 16.7218C15.5556 16.7218 13.958 18.4886 13.958 20.9916V26.0186C13.958 27.0282 13.1592 27.7855 12.0871 27.7855C11.015 27.7855 10.2162 27.0282 10.2162 26.0186V20.9916C10.2162 16.7218 13.6847 13.1881 18.2252 13.1881C22.7658 13.1881 26.2342 16.7007 26.2342 20.9916V26.0186C26.2342 27.0282 25.7087 27.7855 24.6366 27.7855ZM33.991 12.3468L18.3514 0.189303C17.8468 -0.063101 16.8589 -0.063101 16.3754 0.189303L0.756757 12.3468C0.273273 12.5992 0 13.0829 0 13.6088V33.2332C0 34.2428 0.735735 35 1.74474 35H33.2553C34.2432 35 35 34.2428 35 33.2332V13.6088C34.7267 13.104 34.4745 12.5992 33.991 12.3468Z" fill="url(#paint0_linear_8483_101902)"/>
  <defs>
    <linearGradient id="paint0_linear_8483_101902" x1="17.5" y1="0" x2="17.5" y2="35" gradientUnits="userSpaceOnUse">
      <stop stop-color="white"/>
      <stop offset="1" stop-color="white" stop-opacity="0.66"/>
    </linearGradient>
  </defs>
</svg>