<svg xmlns="http://www.w3.org/2000/svg" width="48" height="49" viewBox="0 0 48 49" fill="none">
  <path d="M15.2402 5.5C18.3475 5.5 21.4542 5.5 24.5621 5.5C24.5938 7.60514 24.6405 9.71026 24.6461 11.8163C24.6484 12.2691 24.763 12.5667 25.1966 12.7079C26.2234 13.0433 27.2385 13.421 28.2815 13.6939C28.8899 13.8531 29.5662 13.8338 30.168 13.9376C31.6713 14.1975 34.8211 15.0284 34.9058 15.0113C37.5509 14.4871 40.1418 14.5599 42.6635 15.6408C43.0817 15.8197 43.2563 16.0072 43.2528 16.4802C43.2369 18.0144 43.2711 19.5481 43.2985 21.0816C43.3023 21.3023 43.3332 21.5407 43.4233 21.7381C43.6952 22.3398 43.9916 22.9304 44.3013 23.5131C44.4581 23.8087 44.6652 24.0758 44.85 24.3563C44.85 24.8149 44.85 25.2735 44.85 25.7326C44.7152 26.5878 44.585 27.4448 44.4456 28.2984C44.3011 29.1875 44.0445 29.9724 43.0189 30.2444C42.4725 30.3893 41.9617 30.6677 41.4316 30.8817C41.3813 30.9022 39.7974 32.2588 39.2929 32.6052C38.3699 33.2381 35.0682 34.6352 34.8098 34.6939C34.638 35.0664 34.4948 35.4714 34.2762 35.8319C33.8861 36.4722 33.4082 37.0631 33.05 37.7194C32.8051 38.1678 32.8248 38.9037 32.5225 39.6223C32.463 39.7625 32.3627 39.9527 32.4114 40.0643C32.8314 41.0161 32.6394 42.2027 33.5113 42.9887C33.5905 43.062 33.5458 43.2733 33.5631 43.4658C33.0515 43.4658 32.5766 43.5535 32.1495 43.4481C31.0031 43.1689 29.881 42.7975 28.7449 42.4796C27.8722 42.2356 27.2345 41.7823 26.9927 40.8395C26.8875 40.4285 26.6506 40.0463 26.4422 39.6682C25.4039 37.786 24.1406 35.9921 23.3759 34.0031C22.7055 32.2606 19.9798 29.8481 19.8485 29.8422C18.8262 29.8007 17.8513 29.2369 16.7529 29.8525C16.2813 30.115 15.9844 30.2944 15.894 30.8007C15.8537 31.0255 15.8223 31.2532 15.7722 31.477C15.5339 32.5265 14.8609 32.8666 13.9246 32.3821C13.0782 31.944 12.2238 31.5111 11.4263 30.9922C11.0721 30.7625 10.7591 30.3695 10.5853 29.9793C10.2047 29.1236 9.96019 28.2069 9.58585 27.3476C9.43315 26.9975 9.1461 26.5865 8.8201 26.4568C7.89719 26.093 7.28909 25.4124 6.69396 24.6823C6.47901 24.4183 6.26138 24.0258 5.98643 23.9656C5.00307 23.752 4.5875 22.9338 4 22.2903C4 22.1073 4 21.9235 4 21.7399C7.40194 21.7238 10.8034 21.6869 14.2049 21.7094C14.8985 21.7138 15.0732 21.5289 15.0772 20.8327C15.1041 15.7226 15.1798 10.6113 15.2402 5.5Z" fill="white"/>
</svg>