<svg xmlns="http://www.w3.org/2000/svg" width="58" height="58" viewBox="0 0 58 58" fill="none">
  <g filter="url(#filter0_d_8712_113049)">
    <path d="M49.5286 8.45038C51.368 10.2907 47.6892 17.3891 40.8571 25.0134C40.5943 25.2763 40.5943 25.5392 40.5943 26.065L43.4848 47.3603C43.4848 47.8861 43.4848 48.149 42.9593 48.4119L41.1199 49.7264C40.5943 50.2523 39.5432 49.9893 39.2805 49.2006L33.2367 35.0038C32.7112 34.2151 31.9229 33.9522 31.1346 34.478C28.7696 36.5812 26.4047 38.4215 24.3025 39.7361C23.7769 39.999 23.7769 40.5248 23.7769 41.0506L25.0908 47.0974C25.0908 47.6232 25.0908 48.149 24.5653 48.4119C24.0397 48.6748 23.2514 48.6748 22.9886 47.8861L18.2587 40.2619L17.7332 39.7361L10.3756 35.0038C9.85005 35.0038 9.58728 34.2151 9.85005 33.6892C10.1128 33.1634 10.6384 32.9005 11.1639 33.1634L17.2077 34.478C17.7332 34.478 18.2587 34.478 18.5215 33.9522C19.8354 31.8489 21.412 29.7457 23.5142 27.3795C23.7769 26.5908 23.7769 25.8021 22.9886 25.2763L8.79896 19.2295C8.01065 18.9666 7.74788 18.1779 8.27342 17.3891L9.58728 15.5488C9.85005 15.023 10.3756 15.023 10.6384 15.023L31.6601 17.915C31.9229 17.915 32.4484 17.915 32.7112 17.652C40.5943 10.5536 47.6892 6.61004 49.5286 8.45038ZM36.9155 24.4876C36.6528 24.2247 36.1272 24.2247 35.8644 24.4876L31.3973 28.957C31.1346 29.2199 31.1346 29.7457 31.3973 30.0086C31.6601 30.2715 32.1856 30.2715 32.4484 30.0086L36.9155 25.5392C37.1783 25.2763 37.1783 24.7505 36.9155 24.4876ZM33.7623 21.3327C33.4995 21.0698 32.974 21.0698 32.7112 21.3327L28.2441 25.8021C27.9813 26.065 27.9813 26.5908 28.2441 26.8537C28.5068 27.1166 29.0324 27.1166 29.2952 26.8537L33.7623 22.3843C34.025 22.1214 34.025 21.5956 33.7623 21.3327Z" fill="white"/>
  </g>
  <defs>
    <filter id="filter0_d_8712_113049" x="0" y="0" width="58" height="58" filterUnits="userSpaceOnUse" color-interpolation-filters="sRGB">
      <feFlood flood-opacity="0" result="BackgroundImageFix"/>
      <feColorMatrix in="SourceAlpha" type="matrix" values="0 0 0 0 0 0 0 0 0 0 0 0 0 0 0 0 0 0 127 0" result="hardAlpha"/>
      <feOffset/>
      <feGaussianBlur stdDeviation="4"/>
      <feColorMatrix type="matrix" values="0 0 0 0 0.443137 0 0 0 0 0.0941176 0 0 0 0 0.8 0 0 0 0.796356 0"/>
      <feBlend mode="normal" in2="BackgroundImageFix" result="effect1_dropShadow_8712_113049"/>
      <feBlend mode="normal" in="SourceGraphic" in2="effect1_dropShadow_8712_113049" result="shape"/>
    </filter>
  </defs>
</svg>