<svg xmlns="http://www.w3.org/2000/svg" width="48" height="49" viewBox="0 0 48 49" fill="none">
  <mask id="mask0_8866_76186" style="mask-type:alpha" maskUnits="userSpaceOnUse" x="0" y="0" width="48" height="49">
    <rect y="0.5" width="48" height="48" fill="#D9D9D9"/>
  </mask>
  <g mask="url(#mask0_8866_76186)">
    <path d="M41.9 42.5L31.35 31.95C30.0167 33.0167 28.4917 33.875 26.775 34.525C25.0583 35.175 23.3 35.5 21.5 35.5C18.8 35.5 16.3167 34.8583 14.05 33.575C11.7833 32.2917 9.95 30.6 8.55 28.5H12.35C13.5167 29.7333 14.8833 30.7083 16.45 31.425C18.0167 32.1417 19.7 32.5 21.5 32.5C24.9667 32.5 27.9167 31.275 30.35 28.825C32.7833 26.375 34 23.4333 34 20C34 16.5333 32.7833 13.5833 30.35 11.15C27.9167 8.71667 24.9667 7.5 21.5 7.5C18.1333 7.5 15.2417 8.66667 12.825 11C10.4083 13.3333 9.13333 16.1667 9 19.5H6C6.13333 15.3333 7.69167 11.7917 10.675 8.875C13.6583 5.95833 17.2667 4.5 21.5 4.5C25.8 4.5 29.4583 6.00833 32.475 9.025C35.4917 12.0417 37 15.7 37 20C37 21.8 36.675 23.5583 36.025 25.275C35.375 26.9917 34.5167 28.5167 33.45 29.85L44 40.4L41.9 42.5ZM19.85 28.5L16.7 18.1L14.1 25.5H4V22.5H12L15.3 13H18.3L21.35 23.2L23.5 16.5H26.5L29.5 22.5H31V25.5H27.65L25.3 20.8L22.8 28.5H19.85Z" fill="white"/>
  </g>
</svg>