<svg xmlns="http://www.w3.org/2000/svg" width="41" height="46" viewBox="0 0 41 46" fill="none">
  <path fill-rule="evenodd" clip-rule="evenodd" d="M5.40448 22.4536V6.70287L11.291 4.97252V22.4536H5.40448ZM29.7085 22.4536V4.97252L35.5955 6.70287V22.4536H29.7085ZM16.8104 22.4536H12.7532V0.664062H28.2468V22.4536H24.1896V15.7735C24.1896 15.5795 24.1124 15.3934 23.9751 15.2566C23.8383 15.1193 23.6522 15.0422 23.4582 15.0422H17.5418C17.3478 15.0422 17.1617 15.1193 17.0249 15.2566C16.8876 15.3934 16.8104 15.5795 16.8104 15.7735V22.4536ZM16.8109 5.30486V8.60287C16.8109 8.72426 16.8592 8.84018 16.9448 8.92575C17.0303 9.01182 17.1468 9.05958 17.2677 9.05958H23.7323C23.8532 9.05958 23.9697 9.01182 24.0552 8.92575C24.1408 8.84018 24.1891 8.72426 24.1891 8.60287V5.30486C24.1891 5.18396 24.1408 5.06754 24.0552 4.98197C23.9697 4.8964 23.8532 4.84814 23.7323 4.84814H17.2677C17.1468 4.84814 17.0303 4.8964 16.9448 4.98197C16.8592 5.06754 16.8109 5.18396 16.8109 5.30486ZM30.1129 23.9158H41V27.8372L37.6035 29.1442C37.1736 30.9541 36.4527 32.68 35.4811 34.2661L36.9557 37.5954L33.0343 41.5168L29.7055 40.0422C28.1244 41.0193 26.393 41.7342 24.5831 42.1646L23.2761 45.5606H17.7294L16.4224 42.1646C14.607 41.7342 12.8811 41.0138 11.2945 40.0422L7.96567 41.5168L4.04428 37.5954L5.52438 34.2661C4.54677 32.6855 3.83184 30.9541 3.39652 29.1442L0 27.8372V23.9158H10.8925C10.8483 24.2914 10.8254 24.6735 10.8254 25.0611C10.8254 30.4064 15.1542 34.7412 20.5 34.7412C25.8458 34.7412 30.1801 30.4064 30.1801 25.0611C30.1801 24.6735 30.1572 24.2914 30.1129 23.9158Z" fill="white"/>
</svg>