<svg xmlns="http://www.w3.org/2000/svg" width="56" height="57" viewBox="0 0 56 57" fill="none">
  <path d="M29.1667 2.99805C15.05 2.99805 3.5 14.548 3.5 28.6647C3.5 42.7814 15.05 54.3314 29.1667 54.3314C43.2833 54.3314 54.8333 42.7814 54.8333 28.6647C54.8333 14.548 43.2833 2.99805 29.1667 2.99805ZM49.4433 26.098H44.31C44.0533 20.708 42.77 15.5747 40.7167 11.7247C45.5933 15.0614 48.6733 20.1947 49.4433 26.098ZM26.6 8.90138V26.098H18.9C19.67 17.3714 23.0067 10.9547 26.6 8.90138ZM26.6 31.2314V48.4281C23.0067 46.3747 19.67 39.958 18.9 31.2314H26.6ZM31.7333 48.4281V31.2314H39.4333C38.6633 39.958 35.3267 46.3747 31.7333 48.4281ZM31.7333 26.098V8.90138C35.3267 10.9547 38.6633 17.3714 39.4333 26.098H31.7333ZM17.36 11.7247C15.5633 15.5747 14.28 20.708 13.7667 26.098H8.63333C9.66 20.1947 12.74 15.0614 17.36 11.7247ZM8.89 31.2314H14.0233C14.28 36.6214 15.5633 41.7547 17.6167 45.6047C12.74 42.2681 9.66 37.1347 8.89 31.2314ZM40.9733 45.6047C43.0267 41.7547 44.31 36.878 44.5667 31.2314H49.7C48.6733 37.1347 45.5933 42.2681 40.9733 45.6047Z" fill="white"/>
</svg>