<svg xmlns="http://www.w3.org/2000/svg" width="34" height="37" viewBox="0 0 34 37" fill="none">
  <path d="M18.2561 35.9862C17.5232 36.5778 16.4768 36.5777 15.7439 35.9862L1.54283 24.5246C0.750977 23.8855 0.754408 22.6775 1.54988 22.0429C2.13208 21.5785 2.95859 21.5801 3.53898 22.0468L15.7467 31.8636C16.4786 32.4521 17.5214 32.4521 18.2533 31.8636L30.461 22.0468C31.0414 21.5801 31.8679 21.5785 32.4501 22.0429C33.2456 22.6775 33.249 23.8855 32.4572 24.5246L18.2561 35.9862ZM18.2561 26.4274C17.5232 27.0189 16.4768 27.0189 15.7439 26.4274L1.92832 15.2769C0.936468 14.4764 0.93647 12.9648 1.92832 12.1642L15.7439 1.0138C16.4768 0.422249 17.5232 0.422248 18.2561 1.0138L32.0717 12.1642C33.0635 12.9648 33.0635 14.4764 32.0717 15.2769L18.2561 26.4274ZM15.7469 22.3053C16.4787 22.8936 17.5213 22.8936 18.2531 22.3053L26.993 15.2793C27.9889 14.4788 27.9889 12.9624 26.993 12.1618L18.2531 5.13587C17.5213 4.54756 16.4787 4.54756 15.7469 5.13587L7.00702 12.1618C6.01114 12.9624 6.01114 14.4788 7.00702 15.2793L15.7469 22.3053Z" fill="white"/>
</svg>