<svg width="160" height="160" viewBox="0 0 160 160" fill="none" xmlns="http://www.w3.org/2000/svg">
<g id="Group 1686555649">
<g id="Group 1686555647">
<g id="Vector">
<path d="M0 12C0 5.37258 5.37258 0 12 0H148C154.627 0 160 5.37258 160 12V148C160 154.627 154.627 160 148 160H12C5.37258 160 0 154.627 0 148V12Z" fill="#AFACAC"/>
<path d="M0 12C0 5.37258 5.37258 0 12 0H148C154.627 0 160 5.37258 160 12V148C160 154.627 154.627 160 148 160H12C5.37258 160 0 154.627 0 148V12Z" fill="#AFACAC"/>
<path d="M19.9213 91.4038L18.0411 89.6785L36.7539 69.3009C36.9958 69.0379 37.3366 68.8873 37.6944 68.8873H104.33L141.848 31.3694L143.652 33.1732L105.76 71.0652C105.521 71.3042 105.197 71.4392 104.859 71.4392H38.2551L19.9213 91.4038Z" fill="#EE1F26"/>
<path d="M72.5617 58.6412C71.8574 58.6412 71.2854 58.0699 71.2854 57.3656V36.5207H16.4282V33.9687H72.561C73.2645 33.9687 73.8366 34.5408 73.8366 35.2443V56.0893H144.451V58.6412H72.5603H72.5617Z" fill="#FF7F00"/>
<path d="M46.647 137.835L44.9054 135.97L91.7115 92.2446V23.7644H94.2634V92.7982C94.2634 93.1518 94.1164 93.4898 93.8583 93.7309L46.647 137.835Z" fill="#8EC83F"/>
<path d="M59.8112 139.455V83.7359C59.8112 83.0323 60.3825 82.4596 61.0875 82.4596H135.095V85.0115H62.3631V139.455H59.8112Z" fill="#FFBF00"/>
<path d="M123.566 130.156L96.7192 103.727H33.4425V101.175H97.2425C97.5769 101.175 97.8987 101.307 98.1377 101.542L125.357 128.337L123.566 130.156Z" fill="#28ABE3"/>
<path d="M96.1733 24.6461C96.1733 22.9795 94.8199 21.6261 93.1533 21.6261C91.4866 21.6261 90.1332 22.9795 90.1332 24.6461C90.1332 26.3128 91.4866 27.6662 93.1533 27.6662C94.8199 27.6662 96.1733 26.3128 96.1733 24.6461Z" fill="#AFACAC"/>
<path d="M93.1533 28.5169C95.2902 28.5169 97.024 26.7823 97.024 24.6461C97.024 22.51 95.2894 20.7754 93.1533 20.7754C91.0171 20.7754 89.2826 22.51 89.2826 24.6461C89.2826 26.7823 91.0171 28.5169 93.1533 28.5169ZM93.1533 26.8156C91.9569 26.8156 90.9839 25.8433 90.9839 24.6461C90.9839 23.449 91.9569 22.4767 93.1533 22.4767C94.3497 22.4767 95.3227 23.4497 95.3227 24.6461C95.3227 25.8426 94.3504 26.8156 93.1533 26.8156Z" fill="#7F7F7F"/>
<path d="M144.874 32.302C144.874 30.6354 143.52 29.282 141.854 29.282C140.187 29.282 138.834 30.6354 138.834 32.302C138.834 33.9687 140.187 35.3221 141.854 35.3221C143.52 35.3221 144.874 33.9687 144.874 32.302Z" fill="#AFACAC"/>
<path d="M141.853 36.1728C143.99 36.1728 145.724 34.4382 145.724 32.302C145.724 30.1659 143.989 28.4313 141.853 28.4313C139.717 28.4313 137.982 30.1659 137.982 32.302C137.982 34.4382 139.717 36.1728 141.853 36.1728ZM141.853 34.4715C140.657 34.4715 139.684 33.4992 139.684 32.302C139.684 31.1049 140.657 30.1326 141.853 30.1326C143.049 30.1326 144.022 31.1056 144.022 32.302C144.022 33.4985 143.05 34.4715 141.853 34.4715Z" fill="#7F7F7F"/>
<path d="M146.149 57.396C146.149 55.7294 144.796 54.3759 143.129 54.3759C141.463 54.3759 140.109 55.7294 140.109 57.396C140.109 59.0627 141.463 60.4161 143.129 60.4161C144.796 60.4161 146.149 59.0627 146.149 57.396Z" fill="#AFACAC"/>
<path d="M143.129 61.2674C145.266 61.2674 147 59.5329 147 57.3967C147 55.2605 145.265 53.526 143.129 53.526C140.993 53.526 139.259 55.2605 139.259 57.3967C139.259 59.5329 140.993 61.2674 143.129 61.2674ZM143.129 59.5661C141.933 59.5661 140.96 58.5939 140.96 57.3967C140.96 56.1996 141.933 55.2273 143.129 55.2273C144.326 55.2273 145.299 56.2003 145.299 57.3967C145.299 58.5932 144.326 59.5661 143.129 59.5661Z" fill="#7F7F7F"/>
<path d="M138.494 84.192C138.494 82.5253 137.14 81.1719 135.473 81.1719C133.807 81.1719 132.453 82.5253 132.453 84.192C132.453 85.8587 133.807 87.2121 135.473 87.2121C137.14 87.2121 138.494 85.8587 138.494 84.192Z" fill="#AFACAC"/>
<path d="M135.473 88.0627C137.61 88.0627 139.344 86.3282 139.344 84.192C139.344 82.0558 137.61 80.3213 135.473 80.3213C133.337 80.3213 131.603 82.0558 131.603 84.192C131.603 86.3282 133.337 88.0627 135.473 88.0627ZM135.473 86.3614C134.277 86.3614 133.304 85.3891 133.304 84.192C133.304 82.9949 134.277 82.0226 135.473 82.0226C136.67 82.0226 137.643 82.9956 137.643 84.192C137.643 85.3884 136.671 86.3614 135.473 86.3614Z" fill="#7F7F7F"/>
<path d="M23.0177 89.933C23.0177 88.2664 21.6643 86.913 19.9977 86.913C18.331 86.913 16.9776 88.2664 16.9776 89.933C16.9776 91.5997 18.331 92.9531 19.9977 92.9531C21.6643 92.9531 23.0177 91.5997 23.0177 89.933Z" fill="#AFACAC"/>
<path d="M19.9977 93.8045C22.1345 93.8045 23.8684 92.0699 23.8684 89.9337C23.8684 87.7976 22.1338 86.063 19.9977 86.063C17.8615 86.063 16.127 87.7976 16.127 89.9337C16.127 92.0699 17.8615 93.8045 19.9977 93.8045ZM19.9977 92.1032C18.8012 92.1032 17.8283 91.1309 17.8283 89.9337C17.8283 88.7366 18.8012 87.7643 19.9977 87.7643C21.1941 87.7643 22.1671 88.7373 22.1671 89.9337C22.1671 91.1302 21.1948 92.1032 19.9977 92.1032Z" fill="#7F7F7F"/>
<path d="M20.8914 35.0661C20.8914 33.3995 19.538 32.0461 17.8714 32.0461C16.2048 32.0461 14.8514 33.3995 14.8514 35.0661C14.8514 36.7328 16.2048 38.0862 17.8714 38.0862C19.538 38.0862 20.8914 36.7328 20.8914 35.0661Z" fill="#AFACAC"/>
<path d="M17.8707 38.9369C20.0076 38.9369 21.7414 37.2023 21.7414 35.0661C21.7414 32.93 20.0069 31.1954 17.8707 31.1954C15.7345 31.1954 14 32.9292 14 35.0661C14 37.203 15.7345 38.9369 17.8707 38.9369ZM17.8707 37.2356C16.6743 37.2356 15.7013 36.2633 15.7013 35.0661C15.7013 33.869 16.6743 32.8967 17.8707 32.8967C19.0671 32.8967 20.0401 33.8697 20.0401 35.0661C20.0401 36.2626 19.0678 37.2356 17.8707 37.2356Z" fill="#7F7F7F"/>
<path d="M38.1165 102.268C38.1165 100.601 36.7631 99.2478 35.0965 99.2478C33.4298 99.2478 32.0764 100.601 32.0764 102.268C32.0764 103.935 33.4298 105.288 35.0965 105.288C36.7631 105.288 38.1165 103.935 38.1165 102.268Z" fill="#AFACAC"/>
<path d="M35.0958 106.139C37.2326 106.139 38.9664 104.404 38.9664 102.268C38.9664 100.132 37.2319 98.3972 35.0958 98.3972C32.9596 98.3972 31.2251 100.132 31.2251 102.268C31.2251 104.404 32.9596 106.139 35.0958 106.139ZM35.0958 104.437C33.8993 104.437 32.9264 103.465 32.9264 102.268C32.9264 101.071 33.8993 100.098 35.0958 100.098C36.2922 100.098 37.2652 101.071 37.2652 102.268C37.2652 103.464 36.2929 104.437 35.0958 104.437Z" fill="#7F7F7F"/>
<path d="M128.285 129.702C128.285 128.035 126.932 126.682 125.265 126.682C123.598 126.682 122.245 128.035 122.245 129.702C122.245 131.368 123.598 132.722 125.265 132.722C126.932 132.722 128.285 131.368 128.285 129.702Z" fill="#AFACAC"/>
<path d="M125.264 133.573C127.401 133.573 129.135 131.839 129.135 129.702C129.135 127.566 127.4 125.832 125.264 125.832C123.128 125.832 121.394 127.566 121.394 129.702C121.394 131.839 123.128 133.573 125.264 133.573ZM125.264 131.872C124.068 131.872 123.095 130.9 123.095 129.702C123.095 128.505 124.068 127.533 125.264 127.533C126.461 127.533 127.434 128.506 127.434 129.702C127.434 130.899 126.461 131.872 125.264 131.872Z" fill="#7F7F7F"/>
<path d="M49.8134 135.868C49.8134 134.202 48.46 132.848 46.7934 132.848C45.1267 132.848 43.7733 134.202 43.7733 135.868C43.7733 137.535 45.1267 138.888 46.7934 138.888C48.46 138.888 49.8134 137.535 49.8134 135.868Z" fill="#AFACAC"/>
<path d="M46.7927 139.74C48.9296 139.74 50.6634 138.005 50.6634 135.869C50.6634 133.733 48.9288 131.998 46.7927 131.998C44.6565 131.998 42.922 133.733 42.922 135.869C42.922 138.005 44.6565 139.74 46.7927 139.74ZM46.7927 138.039C45.5963 138.039 44.6233 137.066 44.6233 135.869C44.6233 134.672 45.5963 133.7 46.7927 133.7C47.9891 133.7 48.9621 134.673 48.9621 135.869C48.9621 137.066 47.9898 138.039 46.7927 138.039Z" fill="#7F7F7F"/>
<path d="M96.3664 137.246L45.3276 118.055C44.8305 117.867 44.501 117.392 44.501 116.86V21.2131H47.0529V115.977L97.2644 134.857L96.3664 137.246Z" fill="#0071BF"/>
<path d="M64.0609 139.059C64.0609 137.392 62.7075 136.039 61.0408 136.039C59.3742 136.039 58.0208 137.392 58.0208 139.059C58.0208 140.726 59.3742 142.079 61.0408 142.079C62.7075 142.079 64.0609 140.726 64.0609 139.059Z" fill="#AFACAC"/>
<path d="M61.0408 142.93C63.1777 142.93 64.9115 141.196 64.9115 139.06C64.9115 136.923 63.177 135.189 61.0408 135.189C58.9047 135.189 57.1701 136.923 57.1701 139.06C57.1701 141.196 58.9047 142.93 61.0408 142.93ZM61.0408 141.229C59.8444 141.229 58.8714 140.257 58.8714 139.06C58.8714 137.862 59.8444 136.89 61.0408 136.89C62.2373 136.89 63.2102 137.863 63.2102 139.06C63.2102 140.256 62.238 141.229 61.0408 141.229Z" fill="#7F7F7F"/>
<path d="M64.0609 122.678C64.0609 121.011 62.7075 119.658 61.0408 119.658C59.3742 119.658 58.0208 121.011 58.0208 122.678C58.0208 124.345 59.3742 125.698 61.0408 125.698C62.7075 125.698 64.0609 124.345 64.0609 122.678Z" fill="#AFACAC"/>
<path d="M61.0408 126.549C63.1777 126.549 64.9115 124.815 64.9115 122.679C64.9115 120.542 63.177 118.808 61.0408 118.808C58.9047 118.808 57.1701 120.542 57.1701 122.679C57.1701 124.815 58.9047 126.549 61.0408 126.549ZM61.0408 124.848C59.8444 124.848 58.8714 123.876 58.8714 122.679C58.8714 121.482 59.8444 120.509 61.0408 120.509C62.2373 120.509 63.2102 121.482 63.2102 122.679C63.2102 123.875 62.238 124.848 61.0408 124.848Z" fill="#7F7F7F"/>
<path d="M64.0609 102.129C64.0609 100.463 62.7075 99.1092 61.0408 99.1092C59.3742 99.1092 58.0208 100.463 58.0208 102.129C58.0208 103.796 59.3742 105.149 61.0408 105.149C62.7075 105.149 64.0609 103.796 64.0609 102.129Z" fill="#AFACAC"/>
<path d="M61.0408 106C63.1777 106 64.9115 104.265 64.9115 102.129C64.9115 99.9931 63.177 98.2586 61.0408 98.2586C58.9047 98.2586 57.1701 99.9931 57.1701 102.129C57.1701 104.265 58.9047 106 61.0408 106ZM61.0408 104.299C59.8444 104.299 58.8714 103.326 58.8714 102.129C58.8714 100.932 59.8444 99.9599 61.0408 99.9599C62.2373 99.9599 63.2102 100.933 63.2102 102.129C63.2102 103.326 62.238 104.299 61.0408 104.299Z" fill="#7F7F7F"/>
<path d="M85.9019 102.129C85.9019 100.463 84.5485 99.1092 82.8819 99.1092C81.2152 99.1092 79.8618 100.463 79.8618 102.129C79.8618 103.796 81.2152 105.149 82.8819 105.149C84.5485 105.149 85.9019 103.796 85.9019 102.129Z" fill="#AFACAC"/>
<path d="M82.8812 106C85.018 106 86.7519 104.265 86.7519 102.129C86.7519 99.9931 85.0173 98.2586 82.8812 98.2586C80.745 98.2586 79.0105 99.9931 79.0105 102.129C79.0105 104.265 80.745 106 82.8812 106ZM82.8812 104.299C81.6848 104.299 80.7118 103.326 80.7118 102.129C80.7118 100.932 81.6848 99.9599 82.8812 99.9599C84.0776 99.9599 85.0506 100.933 85.0506 102.129C85.0506 103.326 84.0783 104.299 82.8812 104.299Z" fill="#7F7F7F"/>
<path d="M96.1097 84.0534C96.1097 82.3867 94.7563 81.0333 93.0896 81.0333C91.423 81.0333 90.0696 82.3867 90.0696 84.0534C90.0696 85.7201 91.423 87.0735 93.0896 87.0735C94.7563 87.0735 96.1097 85.7201 96.1097 84.0534Z" fill="#AFACAC"/>
<path d="M93.0889 87.9241C95.2258 87.9241 96.9596 86.1896 96.9596 84.0534C96.9596 81.9172 95.2251 80.1827 93.0889 80.1827C90.9528 80.1827 89.2182 81.9172 89.2182 84.0534C89.2182 86.1896 90.9528 87.9241 93.0889 87.9241ZM93.0889 86.2228C91.8925 86.2228 90.9195 85.2505 90.9195 84.0534C90.9195 82.8563 91.8925 81.884 93.0889 81.884C94.2854 81.884 95.2583 82.857 95.2583 84.0534C95.2583 85.2498 94.2861 86.2228 93.0889 86.2228Z" fill="#7F7F7F"/>
<path d="M96.1097 71.0178C96.1097 69.3511 94.7563 67.9977 93.0896 67.9977C91.423 67.9977 90.0696 69.3511 90.0696 71.0178C90.0696 72.6845 91.423 74.0379 93.0896 74.0379C94.7563 74.0379 96.1097 72.6845 96.1097 71.0178Z" fill="#AFACAC"/>
<path d="M93.0889 74.8892C95.2258 74.8892 96.9596 73.1547 96.9596 71.0185C96.9596 68.8823 95.2251 67.1478 93.0889 67.1478C90.9528 67.1478 89.2182 68.8823 89.2182 71.0185C89.2182 73.1547 90.9528 74.8892 93.0889 74.8892ZM93.0889 73.1879C91.8925 73.1879 90.9195 72.2157 90.9195 71.0185C90.9195 69.8214 91.8925 68.8491 93.0889 68.8491C94.2854 68.8491 95.2583 69.8221 95.2583 71.0185C95.2583 72.215 94.2861 73.1879 93.0889 73.1879Z" fill="#7F7F7F"/>
<path d="M96.1097 57.169C96.1097 55.5024 94.7563 54.149 93.0896 54.149C91.423 54.149 90.0696 55.5024 90.0696 57.169C90.0696 58.8357 91.423 60.1891 93.0896 60.1891C94.7563 60.1891 96.1097 58.8357 96.1097 57.169Z" fill="#AFACAC"/>
<path d="M93.0889 61.0405C95.2258 61.0405 96.9596 59.3059 96.9596 57.1697C96.9596 55.0336 95.2251 53.299 93.0889 53.299C90.9528 53.299 89.2182 55.0336 89.2182 57.1697C89.2182 59.3059 90.9528 61.0405 93.0889 61.0405ZM93.0889 59.3392C91.8925 59.3392 90.9195 58.3669 90.9195 57.1697C90.9195 55.9726 91.8925 55.0003 93.0889 55.0003C94.2854 55.0003 95.2583 55.9733 95.2583 57.1697C95.2583 58.3662 94.2861 59.3392 93.0889 59.3392Z" fill="#7F7F7F"/>
<path d="M120.565 57.3826C120.565 55.7159 119.212 54.3625 117.545 54.3625C115.878 54.3625 114.525 55.7159 114.525 57.3826C114.525 59.0492 115.878 60.4026 117.545 60.4026C119.212 60.4026 120.565 59.0492 120.565 57.3826Z" fill="#AFACAC"/>
<path d="M117.545 61.2533C119.682 61.2533 121.416 59.5188 121.416 57.3826C121.416 55.2464 119.681 53.5118 117.545 53.5118C115.409 53.5118 113.674 55.2464 113.674 57.3826C113.674 59.5188 115.409 61.2533 117.545 61.2533ZM117.545 59.552C116.348 59.552 115.375 58.5797 115.375 57.3826C115.375 56.1854 116.348 55.2132 117.545 55.2132C118.741 55.2132 119.714 56.1861 119.714 57.3826C119.714 58.579 118.742 59.552 117.545 59.552Z" fill="#7F7F7F"/>
<path d="M48.7492 102.268C48.7492 100.601 47.3958 99.2478 45.7292 99.2478C44.0625 99.2478 42.7092 100.601 42.7092 102.268C42.7092 103.935 44.0625 105.288 45.7292 105.288C47.3958 105.288 48.7492 103.935 48.7492 102.268Z" fill="#AFACAC"/>
<path d="M45.7292 106.139C47.8661 106.139 49.5999 104.404 49.5999 102.268C49.5999 100.132 47.8654 98.3972 45.7292 98.3972C43.593 98.3972 41.8585 100.132 41.8585 102.268C41.8585 104.404 43.593 106.139 45.7292 106.139ZM45.7292 104.437C44.5328 104.437 43.5598 103.465 43.5598 102.268C43.5598 101.071 44.5328 100.098 45.7292 100.098C46.9256 100.098 47.8986 101.071 47.8986 102.268C47.8986 103.464 46.9263 104.437 45.7292 104.437Z" fill="#7F7F7F"/>
<path d="M48.7492 70.1099C48.7492 68.4432 47.3958 67.0898 45.7292 67.0898C44.0625 67.0898 42.7092 68.4432 42.7092 70.1099C42.7092 71.7765 44.0625 73.13 45.7292 73.13C47.3958 73.13 48.7492 71.7765 48.7492 70.1099Z" fill="#AFACAC"/>
<path d="M45.7292 73.9813C47.8661 73.9813 49.5999 72.2468 49.5999 70.1106C49.5999 67.9744 47.8654 66.2399 45.7292 66.2399C43.593 66.2399 41.8585 67.9744 41.8585 70.1106C41.8585 72.2468 43.593 73.9813 45.7292 73.9813ZM45.7292 72.28C44.5328 72.28 43.5598 71.3077 43.5598 70.1106C43.5598 68.9134 44.5328 67.9412 45.7292 67.9412C46.9256 67.9412 47.8986 68.9141 47.8986 70.1106C47.8986 71.307 46.9263 72.28 45.7292 72.28Z" fill="#7F7F7F"/>
<path d="M48.7492 35.4791C48.7492 33.8124 47.3958 32.459 45.7292 32.459C44.0625 32.459 42.7092 33.8124 42.7092 35.4791C42.7092 37.1457 44.0625 38.4992 45.7292 38.4992C47.3958 38.4992 48.7492 37.1457 48.7492 35.4791Z" fill="#AFACAC"/>
<path d="M45.7292 39.3505C47.8661 39.3505 49.5999 37.616 49.5999 35.4798C49.5999 33.3436 47.8654 31.6091 45.7292 31.6091C43.593 31.6091 41.8585 33.3436 41.8585 35.4798C41.8585 37.616 43.593 39.3505 45.7292 39.3505ZM45.7292 37.6492C44.5328 37.6492 43.5598 36.6769 43.5598 35.4798C43.5598 34.2827 44.5328 33.3104 45.7292 33.3104C46.9256 33.3104 47.8986 34.2834 47.8986 35.4798C47.8986 36.6762 46.9263 37.6492 45.7292 37.6492Z" fill="#7F7F7F"/>
<path d="M48.7492 21.8707C48.7492 20.2041 47.3958 18.8507 45.7292 18.8507C44.0625 18.8507 42.7092 20.2041 42.7092 21.8707C42.7092 23.5374 44.0625 24.8908 45.7292 24.8908C47.3958 24.8908 48.7492 23.5374 48.7492 21.8707Z" fill="#AFACAC"/>
<path d="M45.7292 25.7422C47.8661 25.7422 49.5999 24.0076 49.5999 21.8714C49.5999 19.7353 47.8661 18 45.7292 18C43.5923 18 41.8585 19.7345 41.8585 21.8707C41.8585 24.0069 43.593 25.7422 45.7292 25.7422ZM45.7292 24.0409C44.5328 24.0409 43.5598 23.0686 43.5598 21.8714C43.5598 20.6743 44.5328 19.702 45.7292 19.702C46.9256 19.702 47.8986 20.675 47.8986 21.8714C47.8986 23.0679 46.9263 24.0409 45.7292 24.0409Z" fill="#7F7F7F"/>
<path d="M99.1509 136.081C99.1509 134.414 97.7975 133.06 96.1309 133.06C94.4642 133.06 93.1109 134.414 93.1109 136.081C93.1109 137.747 94.4642 139.101 96.1309 139.101C97.7975 139.101 99.1509 137.747 99.1509 136.081Z" fill="#AFACAC"/>
<path d="M96.1302 139.951C98.2671 139.951 100.001 138.217 100.001 136.081C100.001 133.944 98.2663 132.21 96.1302 132.21C93.994 132.21 92.2595 133.944 92.2595 136.081C92.2595 138.217 93.994 139.951 96.1302 139.951ZM96.1302 138.25C94.9338 138.25 93.9608 137.278 93.9608 136.081C93.9608 134.883 94.9338 133.911 96.1302 133.911C97.3266 133.911 98.2996 134.884 98.2996 136.081C98.2996 137.277 97.3273 138.25 96.1302 138.25Z" fill="#7F7F7F"/>
</g>
</g>
</g>
</svg>
