<svg xmlns="http://www.w3.org/2000/svg" width="56" height="57" viewBox="0 0 56 57" fill="none">
  <path d="M23.4746 43.6027C27.3419 43.6072 31.1218 42.4535 34.3275 40.2903L45.5908 51.5536C45.9394 51.9022 46.3533 52.1788 46.8088 52.3675C47.2643 52.5561 47.7525 52.6532 48.2456 52.6532C48.7386 52.6532 49.2268 52.5561 49.6823 52.3674C50.1378 52.1788 50.5517 51.9022 50.9004 51.5536C51.249 51.2049 51.5255 50.7911 51.7142 50.3355C51.9029 49.88 52 49.3918 52 48.8988C52 48.4057 51.9029 47.9175 51.7142 47.462C51.5255 47.0065 51.249 46.5926 50.9003 46.244L39.637 34.9806C42.0562 31.3748 43.2006 27.0636 42.8882 22.7327C42.5758 18.4017 40.8245 14.2994 37.9128 11.0781C35.0011 7.85681 31.0961 5.70131 26.8186 4.95433C22.5411 4.20735 18.1366 4.91176 14.3055 6.95557C10.4743 8.99938 7.43635 12.2653 5.67455 16.234C3.91276 20.2028 3.52827 24.6466 4.58221 28.859C5.63615 33.0714 8.06803 36.8105 11.4912 39.482C14.9144 42.1535 19.1324 43.6039 23.4746 43.6027ZM23.4746 9.15846C26.4353 9.15843 29.3296 10.0364 31.7913 11.6812C34.2531 13.3261 36.1718 15.664 37.3048 18.3993C38.4378 21.1347 38.7343 24.1445 38.1567 27.0484C37.5791 29.9522 36.1534 32.6195 34.0599 34.713C31.9663 36.8066 29.299 38.2323 26.3952 38.8099C23.4914 39.3875 20.4815 39.0911 17.7462 37.958C15.0108 36.825 12.6729 34.9063 11.028 32.4446C9.38315 29.9828 8.50522 27.0886 8.50523 24.1279C8.50972 20.1592 10.0883 16.3542 12.8946 13.5479C15.701 10.7415 19.5059 9.16296 23.4746 9.15846Z" fill="white"/>
</svg>