<svg xmlns="http://www.w3.org/2000/svg" width="52" height="58" viewBox="0 0 52 58" fill="none">
  <g filter="url(#filter0_d_8190_63106)">
    <path d="M42.3228 11.213C42.8012 11.3068 43.2317 11.5689 43.5384 11.953C43.8451 12.3372 44.0084 12.8187 43.9995 13.313V32.99C44.0129 34.2954 43.737 35.5872 43.1922 36.77C42.5529 38.0926 41.7607 39.3333 40.8323 40.466C39.8219 41.697 38.7066 42.8354 37.4994 43.868C36.2925 44.897 35.0194 45.842 33.6904 46.703C32.5023 47.5093 31.2488 48.2118 29.9435 48.803C28.8907 49.3352 27.7787 49.7371 26.6313 50H25.8033C24.6743 49.7484 23.5771 49.368 22.5325 48.866C21.2022 48.2581 19.9156 47.5564 18.6821 46.766C17.3336 45.8846 16.047 44.9092 14.8317 43.847C13.5824 42.834 12.4317 41.7018 11.3953 40.466C10.4229 39.345 9.59514 38.103 8.93189 36.77C8.32729 35.5889 8.00801 34.2789 8.00034 32.948V13.271C7.99148 12.7767 8.15478 12.2952 8.4615 11.911C8.76822 11.5269 9.19869 11.2648 9.67713 11.171L26.031 8L42.3228 11.213ZM26.0517 11.108H25.8447L11.623 13.649V27.152H26.1138L26.0517 11.108ZM40.3768 27.152H26.0517V46.367C27.0784 46.0991 28.0821 45.748 29.0534 45.317C30.1604 44.8582 31.2328 44.3178 32.262 43.7C33.3217 43.0701 34.3384 42.3685 35.3051 41.6C36.2558 40.8663 37.1236 40.0282 37.8927 39.101C38.615 38.2647 39.2209 37.3321 39.6937 36.329C40.136 35.4209 40.3696 34.4229 40.3768 33.41V27.152Z" fill="white"/>
  </g>
  <defs>
    <filter id="filter0_d_8190_63106" x="0" y="0" width="52" height="58" filterUnits="userSpaceOnUse" color-interpolation-filters="sRGB">
      <feFlood flood-opacity="0" result="BackgroundImageFix"/>
      <feColorMatrix in="SourceAlpha" type="matrix" values="0 0 0 0 0 0 0 0 0 0 0 0 0 0 0 0 0 0 127 0" result="hardAlpha"/>
      <feOffset/>
      <feGaussianBlur stdDeviation="4"/>
      <feColorMatrix type="matrix" values="0 0 0 0 0.443137 0 0 0 0 0.0941176 0 0 0 0 0.8 0 0 0 0.796356 0"/>
      <feBlend mode="normal" in2="BackgroundImageFix" result="effect1_dropShadow_8190_63106"/>
      <feBlend mode="normal" in="SourceGraphic" in2="effect1_dropShadow_8190_63106" result="shape"/>
    </filter>
  </defs>
</svg>