<svg xmlns="http://www.w3.org/2000/svg" width="41" height="42" viewBox="0 0 41 42" fill="none">
  <path fill-rule="evenodd" clip-rule="evenodd" d="M16.6868 25.3838C16.7424 24.8932 16.798 24.433 16.852 23.9963L16.6868 25.3838ZM32.306 20.286C32.129 28.3038 24.787 34.2298 16.9159 32.7512L17.6173 30.1735L9.44277 34.1201L14.4901 41.6641L15.2453 38.8892C16.562 39.1724 17.9275 39.3207 19.3284 39.3207C29.9275 39.3207 38.5319 30.7902 38.6531 20.22L37.0364 23.5041L32.306 20.286ZM16.1572 24.0623L17.5481 23.9443C17.6475 23.1738 17.747 22.4877 17.8532 21.8724C18.3303 19.0823 18.8597 17.6729 20.5674 15.5739C20.8051 15.2823 20.7596 14.8524 20.468 14.6164C20.1763 14.3787 19.7464 14.4225 19.5104 14.7158C18.4348 16.0392 17.7352 17.1283 17.2092 18.7029C16.7659 20.0229 16.4573 21.6616 16.1572 24.0623ZM17.5649 13.5241C19.2743 11.2768 21.8893 10.1945 24.2578 10.5114C25.1968 12.7098 24.8529 15.5186 23.1435 17.7671C21.6447 19.7379 20.0634 20.66 18.75 20.8033C19.2018 18.7786 19.7598 17.6474 21.095 16.0055C21.5705 15.4222 21.4811 14.5607 20.8978 14.087C20.3145 13.6133 19.453 13.7009 18.9793 14.2842C17.5244 16.0729 16.7725 17.4621 16.2145 19.6738C15.407 18.3824 15.5857 16.127 17.5649 13.5241ZM29.0997 26.2741C23.0662 24.7569 15.8692 24.8529 9.8522 26.7108C10.7541 27.9836 11.9174 29.0794 13.2947 29.9189L14.0483 30.3792L19.7227 27.6396L18.6488 31.5879C22.9732 31.8374 26.8913 29.6995 29.0997 26.2741ZM12.5832 31.0853L7.43279 33.572L9.47268 36.6217C3.80133 33.255 0 27.0678 0 19.9926C0 14.9958 1.89656 10.4422 5.00715 7.01161L2.97909 4.96667L12.037 4.36652L11.366 13.421L9.48631 11.5261C4.25863 17.5984 5.73868 26.9163 12.5832 31.0853ZM13.0924 8.60279L13.5138 2.8995L9.85214 3.14226C12.6523 1.56433 15.8843 0.664062 19.3283 0.664062C27.9395 0.664062 35.2375 6.29657 37.7342 14.0801L40.5141 13.3467L36.5052 21.491L28.9996 16.3863L31.584 15.7052C29.8122 10.6411 24.9938 7.01113 19.3281 7.01113C17.0674 7.01113 14.9434 7.58789 13.0924 8.60279Z" fill="white"/>
</svg>