<svg xmlns="http://www.w3.org/2000/svg" width="54" height="54" viewBox="0 0 54 54" fill="none">
  <g filter="url(#filter0_d_8486_81892)">
    <path d="M26.9523 38.7739C33.4348 38.7739 38.6898 33.5027 38.6898 27.0002C38.6898 20.4978 33.4348 15.2266 26.9523 15.2266C20.4699 15.2266 15.2148 20.4978 15.2148 27.0002C15.2148 33.5027 20.4699 38.7739 26.9523 38.7739Z" fill="white"/>
    <path d="M26.9511 13.0108C27.232 13.0108 27.5014 12.8989 27.7001 12.6996C27.8987 12.5004 28.0103 12.2302 28.0103 11.9485V8.67311C28.0109 8.53743 27.9831 8.40313 27.9289 8.27882C27.8747 8.15452 27.7952 8.04295 27.6955 7.95126C27.5958 7.85958 27.4781 7.78981 27.3499 7.74643C27.2218 7.70305 27.0858 7.68701 26.9511 7.69934C26.6937 7.69934 26.4467 7.80194 26.2647 7.98456C26.0826 8.16718 25.9805 8.41485 25.9805 8.67311V11.9485C25.9795 12.2155 26.0789 12.4731 26.2588 12.67C26.4387 12.8669 26.6858 12.9885 26.9511 13.0108Z" fill="white"/>
    <path d="M26.9511 40.9844C26.6858 41.0066 26.4387 41.1283 26.2588 41.3252C26.0789 41.522 25.9795 41.7796 25.9805 42.0467V45.322C25.9805 45.5803 26.0826 45.828 26.2647 46.0106C26.4467 46.1932 26.6937 46.2958 26.9511 46.2958C27.0858 46.3081 27.2218 46.2921 27.3499 46.2487C27.4781 46.2053 27.5958 46.1356 27.6955 46.0439C27.7952 45.9522 27.8747 45.8406 27.9289 45.7163C27.9831 45.592 28.0109 45.4577 28.0103 45.322V42.0467C28.0103 41.7649 27.8987 41.4947 27.7001 41.2955C27.5014 41.0963 27.232 40.9844 26.9511 40.9844Z" fill="white"/>
    <path d="M11.9508 25.9375H8.77382C8.49295 25.9375 8.22349 26.0494 8.02489 26.2486C7.82628 26.4479 7.71484 26.718 7.71484 26.9998C7.71484 27.2815 7.82628 27.5517 8.02489 27.7509C8.22349 27.9501 8.49295 28.0621 8.77382 28.0621H11.9508C12.2316 28.0621 12.5011 27.9501 12.6997 27.7509C12.8983 27.5517 13.01 27.2815 13.01 26.9998C13.01 26.718 12.8983 26.4479 12.6997 26.2486C12.5011 26.0494 12.2316 25.9375 11.9508 25.9375Z" fill="white"/>
    <path d="M45.2205 25.9375H42.0434C41.7625 25.9375 41.493 26.0494 41.2944 26.2486C41.0958 26.4479 40.9844 26.718 40.9844 26.9998C40.9844 27.2815 41.0958 27.5517 41.2944 27.7509C41.493 27.9501 41.7625 28.0621 42.0434 28.0621H45.2205C45.5014 28.0621 45.7706 27.9501 45.9692 27.7509C46.1678 27.5517 46.2795 27.2815 46.2795 26.9998C46.2795 26.718 46.1678 26.4479 45.9692 26.2486C45.7706 26.0494 45.5014 25.9375 45.2205 25.9375Z" fill="white"/>
    <path d="M15.6593 36.9025L13.3646 39.2042C13.255 39.2866 13.1661 39.3935 13.1048 39.5165C13.0435 39.6394 13.0117 39.7749 13.0117 39.9124C13.0117 40.0498 13.0435 40.1853 13.1048 40.3082C13.1661 40.4312 13.255 40.5381 13.3646 40.6206C13.463 40.7196 13.58 40.7982 13.7087 40.8518C13.8375 40.9054 13.9755 40.933 14.1149 40.933C14.2542 40.933 14.3923 40.9054 14.521 40.8518C14.6497 40.7982 14.7665 40.7196 14.8649 40.6206L17.1595 38.4075C17.3241 38.1914 17.4133 37.927 17.4133 37.655C17.4133 37.383 17.3241 37.1186 17.1595 36.9025C17.0684 36.7913 16.954 36.7018 16.8243 36.6403C16.6946 36.5788 16.5528 36.5469 16.4093 36.5469C16.2658 36.5469 16.1242 36.5788 15.9945 36.6403C15.8648 36.7018 15.7503 36.7913 15.6593 36.9025Z" fill="white"/>
    <path d="M39.1303 13.3671L36.8358 15.5802C36.6712 15.7963 36.582 16.0607 36.582 16.3327C36.582 16.6046 36.6712 16.869 36.8358 17.0851C36.9342 17.1842 37.051 17.2627 37.1797 17.3164C37.3084 17.37 37.4465 17.3976 37.5859 17.3976C37.7252 17.3976 37.8633 17.37 37.992 17.3164C38.1207 17.2627 38.2377 17.1842 38.3361 17.0851L40.6305 14.7835C40.7401 14.701 40.8291 14.5941 40.8903 14.4712C40.9516 14.3483 40.9836 14.2128 40.9836 14.0753C40.9836 13.9379 40.9516 13.8024 40.8903 13.6794C40.8291 13.5565 40.7401 13.4496 40.6305 13.3671C40.5321 13.2681 40.4154 13.1895 40.2866 13.1359C40.1579 13.0823 40.0199 13.0547 39.8805 13.0547C39.7411 13.0547 39.6031 13.0823 39.4743 13.1359C39.3456 13.1895 39.2286 13.2681 39.1303 13.3671Z" fill="white"/>
    <path d="M38.3361 36.914C38.2377 36.815 38.1207 36.7364 37.992 36.6828C37.8633 36.6292 37.7252 36.6016 37.5859 36.6016C37.4465 36.6016 37.3084 36.6292 37.1797 36.6828C37.051 36.7364 36.9342 36.815 36.8358 36.914C36.6712 37.1301 36.582 37.3945 36.582 37.6665C36.582 37.9384 36.6712 38.2028 36.8358 38.4189L39.1303 40.632C39.2286 40.731 39.3456 40.8096 39.4743 40.8632C39.6031 40.9168 39.7411 40.9444 39.8805 40.9444C40.0199 40.9444 40.1579 40.9168 40.2866 40.8632C40.4154 40.8096 40.5321 40.731 40.6305 40.632C40.7401 40.5495 40.8291 40.4426 40.8903 40.3197C40.9516 40.1968 40.9836 40.0612 40.9836 39.9238C40.9836 39.7864 40.9516 39.6508 40.8903 39.5279C40.8291 39.405 40.7401 39.2981 40.6305 39.2156L38.3361 36.914Z" fill="white"/>
    <path d="M15.6593 17.0851C15.7503 17.1963 15.8648 17.2859 15.9945 17.3474C16.1242 17.4089 16.2658 17.4408 16.4093 17.4408C16.5528 17.4408 16.6946 17.4089 16.8243 17.3474C16.954 17.2859 17.0684 17.1963 17.1595 17.0851C17.3241 16.869 17.4133 16.6046 17.4133 16.3327C17.4133 16.0607 17.3241 15.7963 17.1595 15.5802L14.8649 13.3671C14.7665 13.2681 14.6497 13.1895 14.521 13.1359C14.3923 13.0823 14.2542 13.0547 14.1149 13.0547C13.9755 13.0547 13.8375 13.0823 13.7087 13.1359C13.58 13.1895 13.463 13.2681 13.3646 13.3671C13.255 13.4496 13.1661 13.5565 13.1048 13.6794C13.0435 13.8024 13.0117 13.9379 13.0117 14.0753C13.0117 14.2128 13.0435 14.3483 13.1048 14.4712C13.1661 14.5941 13.255 14.701 13.3646 14.7835L15.6593 17.0851Z" fill="white"/>
  </g>
  <defs>
    <filter id="filter0_d_8486_81892" x="0.722354" y="0.702823" width="52.5514" height="52.5904" filterUnits="userSpaceOnUse" color-interpolation-filters="sRGB">
      <feFlood flood-opacity="0" result="BackgroundImageFix"/>
      <feColorMatrix in="SourceAlpha" type="matrix" values="0 0 0 0 0 0 0 0 0 0 0 0 0 0 0 0 0 0 127 0" result="hardAlpha"/>
      <feOffset/>
      <feGaussianBlur stdDeviation="3.49624"/>
      <feComposite in2="hardAlpha" operator="out"/>
      <feColorMatrix type="matrix" values="0 0 0 0 0 0 0 0 0 0 0 0 0 0 0 0 0 0 0.8 0"/>
      <feBlend mode="normal" in2="BackgroundImageFix" result="effect1_dropShadow_8486_81892"/>
      <feBlend mode="normal" in="SourceGraphic" in2="effect1_dropShadow_8486_81892" result="shape"/>
    </filter>
  </defs>
</svg>