<svg width="160" height="160" viewBox="0 0 160 160" fill="none" xmlns="http://www.w3.org/2000/svg">
<g id="Vector">
<path d="M0 12C0 5.37258 5.37258 0 12 0H148C154.627 0 160 5.37258 160 12V148C160 154.627 154.627 160 148 160H12C5.37258 160 0 154.627 0 148V12Z" fill="#AFACAC"/>
<path d="M0 12C0 5.37258 5.37258 0 12 0H148C154.627 0 160 5.37258 160 12V148C160 154.627 154.627 160 148 160H12C5.37258 160 0 154.627 0 148V12Z" fill="#AFACAC"/>
<path d="M71.4624 18H97.7286C97.7286 18.7314 97.7286 19.3401 97.7286 19.9487C97.7286 28.4715 97.7829 36.996 97.697 45.517C97.6707 48.0165 99.6517 50.423 102.453 50.3002C102.918 50.2791 103.382 50.3002 103.847 50.3002C117.528 50.3002 131.209 50.3002 144.89 50.3002H146.681C147.025 51.5403 147.123 74.1881 146.806 76.4333C146.206 76.4736 145.563 76.5526 144.919 76.5526C131.135 76.5596 117.351 76.5578 103.566 76.5596C102.947 76.5596 102.325 76.5438 101.708 76.5911C99.4992 76.7648 97.8811 78.4101 97.7444 80.6201C97.7058 81.2375 97.7286 81.8602 97.7286 82.4794C97.7286 104.536 97.7286 126.593 97.7286 148.648C97.7286 149.314 97.7286 149.981 97.7286 150.605C96.5084 151.081 73.112 151.149 71.4624 150.679C71.4624 149.753 71.4624 148.781 71.4624 147.809C71.4624 145.382 71.3572 142.949 71.4887 140.527C71.6499 137.568 69.3867 135.535 66.4731 135.547C49.7471 135.623 33.0193 135.584 16.2933 135.582C15.6307 135.582 14.9697 135.582 14.3579 135.582C13.9442 134.346 13.8601 111.193 14.2598 109.326H16.1829C32.7546 109.326 49.3281 109.263 65.8981 109.374C69.7759 109.4 71.5903 107.448 71.5097 103.764C71.3519 96.536 71.4641 89.3025 71.4624 82.0707C71.4624 81.555 71.4799 81.0358 71.4413 80.5219C71.2783 78.3504 69.7356 76.7753 67.5705 76.5911C66.9044 76.535 66.2295 76.5543 65.558 76.5543C49.0897 76.5543 32.6196 76.5543 16.1513 76.5543H14.1037V50.2949H16.1461C32.667 50.2949 49.1861 50.2949 65.707 50.2949C66.2224 50.2949 66.7413 50.316 67.255 50.2809C69.6672 50.1125 71.38 48.369 71.4466 45.9467C71.4974 44.0892 71.4624 42.2282 71.4624 40.369C71.4624 33.4985 71.4624 26.6298 71.4624 19.7593V18ZM35.684 65.5286C37.849 65.5286 40.0141 65.5654 42.1774 65.5145C43.4553 65.4847 44.3757 64.5288 44.388 63.3869C44.3985 62.3099 43.5553 61.4242 42.3351 61.2453C42.1318 61.2154 41.9232 61.2154 41.7181 61.2154C37.6983 61.2154 33.6785 61.2067 29.6587 61.2277C29.2064 61.2295 28.7173 61.3066 28.3106 61.4926C26.8766 62.1451 26.6347 64.1587 27.9197 65.0532C28.386 65.3777 29.0662 65.5005 29.6552 65.518C31.6642 65.5724 33.675 65.5391 35.684 65.5391V65.5286ZM61.6575 65.5356V65.5408C62.6374 65.5408 63.6156 65.5408 64.5956 65.5408C65.7807 65.5408 66.9675 65.5707 68.1508 65.5233C69.4446 65.4707 70.3702 64.5831 70.4123 63.4413C70.4561 62.3135 69.5603 61.3908 68.256 61.24C67.951 61.2049 67.6389 61.2172 67.3286 61.2172C63.6174 61.2172 59.9079 61.2084 56.1966 61.2242C55.6374 61.226 55.0449 61.2435 54.5242 61.4189C53.234 61.8539 52.7343 63.2817 53.397 64.4551C53.8528 65.262 54.5803 65.5443 55.4709 65.5391C57.5325 65.5286 59.5941 65.5356 61.6557 65.5356H61.6575ZM101.156 65.5408C101.929 65.5408 102.7 65.5408 103.473 65.5408C104.916 65.5373 106.359 65.5777 107.8 65.5128C109.066 65.4566 109.839 64.641 109.888 63.4711C109.937 62.3064 109.218 61.4733 107.956 61.2628C107.654 61.2119 107.341 61.2172 107.032 61.2172C103.221 61.2137 99.4098 61.2084 95.5968 61.2242C95.0885 61.226 94.5608 61.2716 94.0769 61.4154C93.1548 61.6908 92.6324 62.4643 92.6394 63.3869C92.6464 64.3516 93.2723 65.2041 94.2137 65.4374C94.6064 65.5356 95.0306 65.5338 95.4408 65.5356C97.3464 65.5444 99.252 65.5391 101.158 65.5408H101.156ZM127.184 65.5408C127.957 65.5408 128.728 65.5408 129.501 65.5408C130.944 65.5373 132.387 65.5777 133.828 65.5128C135.093 65.4566 135.865 64.6393 135.912 63.4693C135.959 62.3047 135.241 61.4698 133.979 61.2646C133.626 61.2067 133.26 61.2189 132.9 61.2172C129.193 61.2137 125.483 61.2084 121.775 61.2242C121.216 61.226 120.634 61.2645 120.101 61.4189C119.177 61.6855 118.658 62.4678 118.665 63.3904C118.672 64.3551 119.3 65.2076 120.241 65.4391C120.634 65.5356 121.058 65.5356 121.469 65.5373C123.374 65.5461 125.28 65.5408 127.185 65.5426L127.184 65.5408ZM35.1528 120.343V120.352C32.9404 120.352 30.7281 120.31 28.5175 120.368C27.2377 120.401 26.4769 121.229 26.4418 122.401C26.4085 123.553 27.1501 124.42 28.3737 124.614C28.7261 124.67 29.0925 124.658 29.4518 124.66C33.1561 124.663 36.8603 124.665 40.5645 124.658C41.0256 124.658 41.4989 124.658 41.946 124.565C43.1223 124.316 43.7639 123.362 43.6114 122.169C43.4659 121.027 42.705 120.377 41.3271 120.352C39.2708 120.315 37.2109 120.343 35.1546 120.343H35.1528ZM60.9527 124.663C62.8565 124.663 64.7604 124.67 66.6625 124.658C67.1235 124.655 67.5951 124.649 68.0404 124.548C69.0992 124.304 69.6883 123.487 69.6567 122.406C69.6252 121.336 68.966 120.557 67.8931 120.392C67.4391 120.322 66.9693 120.342 66.5082 120.34C62.9074 120.336 59.3066 120.336 55.704 120.34C55.2412 120.34 54.7732 120.321 54.3174 120.38C53.2217 120.524 52.5397 121.266 52.4731 122.322C52.4083 123.374 52.985 124.237 54.0228 124.521C54.4611 124.641 54.9362 124.653 55.3955 124.656C57.2467 124.67 59.0997 124.662 60.951 124.663H60.9527ZM82.4857 84.4439H82.4804C82.4804 86.561 82.4506 88.6781 82.4909 90.7952C82.5172 92.2247 83.2482 93.035 84.4579 93.1262C85.7429 93.2227 86.6527 92.3948 86.6913 90.9355C86.7491 88.7167 86.7141 86.4943 86.7158 84.2737C86.7158 82.2601 86.7141 80.2465 86.7105 78.2329C86.7105 77.419 86.4967 76.7034 85.7656 76.2281C84.3264 75.2897 82.568 76.2473 82.5032 78.0926C82.4278 80.2079 82.4857 82.3268 82.4857 84.4439ZM86.7141 110.726C86.7141 108.763 86.7228 106.802 86.7123 104.84C86.7018 102.889 85.9217 101.84 84.5438 101.896C83.2342 101.949 82.4821 102.986 82.4769 104.808C82.4664 108.63 82.4716 112.45 82.4769 116.272C82.4769 116.684 82.4734 117.105 82.5523 117.505C82.7504 118.526 83.6199 119.191 84.6665 119.173C85.664 119.158 86.4336 118.538 86.6317 117.535C86.7105 117.135 86.7088 116.714 86.7088 116.302C86.7158 114.443 86.7123 112.584 86.7123 110.724L86.7141 110.726ZM86.7053 136.666H86.7158C86.7158 134.703 86.7263 132.741 86.7123 130.78C86.6983 128.936 85.9322 127.919 84.5999 127.929C83.2921 127.94 82.4839 129.005 82.4786 130.792C82.4664 134.665 82.4734 138.538 82.4786 142.411C82.4786 142.77 82.4786 143.139 82.5418 143.491C82.7311 144.529 83.5638 145.208 84.6121 145.215C85.8305 145.226 86.6562 144.422 86.6913 143.017C86.7439 140.902 86.7053 138.783 86.7053 136.666ZM86.7141 39.8638C86.7141 38.0572 86.7158 36.2505 86.7141 34.4439C86.7141 34.0317 86.7263 33.6142 86.672 33.2073C86.5142 32.0321 85.7166 31.3358 84.5876 31.3481C83.4674 31.3603 82.6645 32.076 82.5154 33.2371C82.4629 33.6441 82.4769 34.0615 82.4769 34.4737C82.4751 38.1379 82.4716 41.8037 82.4786 45.4679C82.4786 45.9818 82.4716 46.5098 82.5768 47.0079C82.7784 47.9656 83.6111 48.5637 84.6156 48.562C85.6342 48.562 86.4178 47.9726 86.6229 46.9798C86.7158 46.5308 86.7088 46.0572 86.7105 45.5942C86.7193 43.6841 86.7141 41.7739 86.7141 39.8656V39.8638Z" fill="#77FF9D"/>
</g>
</svg>
