<svg width="50" height="44" viewBox="0 0 50 44" fill="none" xmlns="http://www.w3.org/2000/svg">
<path d="M22.3919 38.1138C27.2838 32.7206 30.4497 25.9228 32.1778 15.606V17.7161C32.1778 24.2823 30.1617 29.4396 28.7217 32.4869C28.4358 32.9544 28.7217 33.424 29.2977 33.424H29.5878C32.7538 33.424 39.3737 32.9565 39.9476 24.9836C40.5236 17.9499 36.2078 9.5116 33.9037 5.2914C33.6157 4.58803 33.3277 5.2914 33.0418 5.99264C32.1778 8.80824 26.4219 11.6217 23.2538 15.1385C16.9219 22.6397 19.2259 28.0329 24.1178 31.7835C24.4058 32.0172 24.4058 32.4869 24.4058 32.7206C23.5418 33.8936 22.9679 35.77 20.9519 36.7071C17.4979 38.5834 20.6638 39.9902 22.3919 38.1138ZM17.7859 24.9836C16.348 22.1722 15.4818 18.8891 14.9058 14.6689C14.9058 14.2014 14.3319 14.2014 14.0439 14.6689C13.1799 19.8262 15.1959 23.1093 16.06 25.4532C16.06 25.6869 16.06 26.1566 15.484 26.1566H15.1959C12.8919 26.1566 8 25.4553 8 19.5904C8 14.4352 11.454 8.33862 13.4679 5.28927C13.7559 4.82178 14.0439 5.28927 14.0439 5.75889C14.6199 7.869 18.6499 10.215 20.6638 12.7926C20.9519 13.2622 21.2399 13.4959 21.5279 13.9656C21.2399 14.1993 20.9519 14.4331 20.9519 14.6689C17.7859 18.8891 16.9219 22.4038 17.7859 24.9836Z" fill="url(#paint0_linear_750_20202)"/>
<path d="M8.97979 1H1L1 43H8.97979" stroke="white" stroke-opacity="0.56" stroke-width="2"/>
<path d="M41.0202 1H49L49 43H41.0202" stroke="white" stroke-opacity="0.56" stroke-width="2"/>
<defs>
<linearGradient id="paint0_linear_750_20202" x1="24" y1="5" x2="24" y2="39" gradientUnits="userSpaceOnUse">
<stop stop-color="white"/>
<stop offset="1" stop-color="white" stop-opacity="0.66"/>
</linearGradient>
</defs>
</svg>
