<svg width="50" height="44" viewBox="0 0 50 44" fill="none" xmlns="http://www.w3.org/2000/svg">
<g clip-path="url(#clip0_750_20208)">
<path d="M29.5404 21.5365C30.6344 20.6808 31.4341 19.505 31.828 18.1731C32.2219 16.8412 32.1903 15.4196 31.7377 14.1065C31.2852 12.7934 30.4341 11.6542 29.3033 10.8478C28.1724 10.0414 26.8181 9.60803 25.4292 9.60803C24.0403 9.60803 22.686 10.0414 21.5551 10.8478C20.4243 11.6542 19.5733 12.7934 19.1207 14.1065C18.6681 15.4196 18.6366 16.8412 19.0305 18.1731C19.4243 19.505 20.224 20.6808 21.318 21.5365C19.2406 22.3879 17.4641 23.8392 16.2155 25.7051C14.9669 27.5709 14.3028 29.7666 14.308 32.0117V34.2688C14.3066 34.5653 14.423 34.8502 14.6315 35.061C14.84 35.2718 15.1236 35.3912 15.4201 35.393H35.4383C35.7348 35.3912 36.0184 35.2718 36.2269 35.061C36.4354 34.8502 36.5518 34.5653 36.5504 34.2688V32.0117C36.5557 29.7666 35.8917 27.5708 34.643 25.705C33.3944 23.8391 31.6179 22.3878 29.5404 21.5365ZM36.2166 21.1292C37.1475 20.0878 37.6623 18.74 37.6625 17.3432C37.6715 15.8581 37.0912 14.43 36.0488 13.3722C35.0064 12.3144 33.587 11.7132 32.1019 11.7004C32.0103 11.7004 31.9238 11.7237 31.833 11.728C32.32 12.4444 32.686 13.2358 32.9166 14.0708H32.9053C33.3221 15.3239 33.4016 16.6647 33.136 17.9584C32.8703 19.252 32.2688 20.453 31.3919 21.4405C31.8987 21.6714 37.6522 24.0945 37.6522 32.0108H39.8876C40.1837 32.0076 40.4666 31.8878 40.6748 31.6773C40.883 31.4668 40.9998 31.1827 40.9997 30.8866V29.138C41.0095 27.4936 40.569 25.8779 39.7258 24.4661C38.8826 23.0543 37.669 21.9003 36.2166 21.1292ZM19.4561 21.4414C18.5791 20.4539 17.9774 19.253 17.7116 17.9594C17.4458 16.6657 17.5252 15.3249 17.9419 14.0716C18.1719 13.2364 18.5377 12.4447 19.0246 11.7281C18.9381 11.7281 18.8516 11.7004 18.7565 11.7004C17.2714 11.713 15.8519 12.3141 14.8094 13.372C13.767 14.4298 13.1867 15.858 13.1959 17.3431C13.1963 18.7399 13.711 20.0877 14.6418 21.1292C13.1894 21.9002 11.9758 23.0542 11.1328 24.466C10.2897 25.8779 9.84938 27.4936 9.85955 29.138V30.8831C9.85816 31.1796 9.97449 31.4646 10.183 31.6754C10.3915 31.8861 10.6752 32.0056 10.9716 32.0074H13.1959C13.195 24.0954 18.9493 21.6723 19.4561 21.4414Z" fill="url(#paint0_linear_750_20208)"/>
</g>
<path d="M8.97979 1H1L1 43H8.97979" stroke="white" stroke-opacity="0.56" stroke-width="2"/>
<path d="M41.0202 1H49L49 43H41.0202" stroke="white" stroke-opacity="0.56" stroke-width="2"/>
<defs>
<linearGradient id="paint0_linear_750_20208" x1="25.4296" y1="9.60803" x2="25.4296" y2="35.393" gradientUnits="userSpaceOnUse">
<stop stop-color="white"/>
<stop offset="1" stop-color="white" stop-opacity="0.65"/>
</linearGradient>
<clipPath id="clip0_750_20208">
<rect width="31.1406" height="31.1406" fill="white" transform="translate(9.85938 6.84961)"/>
</clipPath>
</defs>
</svg>
