<svg xmlns="http://www.w3.org/2000/svg" width="52" height="68" viewBox="0 0 52 68" fill="none">
  <g filter="url(#filter0_dd_153_86328)">
    <path d="M25.7872 16H25.9149C25.9787 16 26.1064 16.0642 26.1702 16.0642C28.7447 16.1927 30.8723 17.9488 31.4894 20.4759C31.6809 21.2255 31.6809 21.9964 31.6809 22.6817C31.6809 23.003 31.8085 23.1315 32.1277 23.1315H34.1277C35 23.0672 35.7021 23.3885 36 24.2665V25.0161C35.6809 25.8299 35.0638 26.2153 34.1915 26.1511H32.1277C31.8085 26.1511 31.6809 26.2153 31.6809 26.5366V27.7787C31.6809 28.0999 31.8085 28.2284 32.1277 28.1642H34.1915C35.0638 28.0999 35.7021 28.4854 36 29.2992V29.9845C35.617 30.8626 35.1915 31.1838 34.2553 31.1838H32.0638C31.8085 31.1838 31.6809 31.3123 31.6809 31.5693V33.7323C31.6809 33.9893 31.8085 34.1178 31.9362 34.2463C34.8085 36.6449 36.0638 39.7287 35.6383 43.4337C35.1277 47.3956 32.1915 50.6722 28.383 51.6788C27.6383 51.8715 26.9362 51.9358 26.1915 52H25.6383C24.8936 51.9358 24.1277 51.8715 23.383 51.6145C19.7447 50.608 17.4468 48.2736 16.383 44.633C16.1277 43.8192 16.0638 43.0054 16 42.1059V41.9774C16 41.8489 16.0638 41.7204 16.0638 41.5919C16.1915 38.6365 17.4468 36.238 19.7021 34.3534C20.0213 34.0964 20.0851 33.8394 20.0851 33.5396C20.0851 29.1279 20.0213 26.2796 20.0851 21.8679C20.0851 19.4694 21.2766 17.7133 23.4681 16.6425C24.1702 16.1713 24.9787 16.0428 25.7872 16ZM23.0426 27.95V34.1606C23.0426 34.9102 22.7872 35.5526 22.1064 35.9167L21.5532 36.3022C19.7447 37.7585 18.8085 39.5788 18.6809 41.9131C18.6809 42.4271 18.9362 42.6627 19.2979 42.7269C19.6809 42.7269 19.9787 42.47 19.9787 42.0416C20.0426 41.4206 20.2979 40.8424 20.5957 40.3498C21.6596 38.765 23.1064 37.6514 24.7234 36.8162C25.234 36.5592 25.5319 36.1951 25.6596 35.5526C25.7234 35.1672 25.7234 34.8031 25.7234 34.4176V23.9453C25.7234 23.0672 25.5957 23.1315 26.5319 23.1315H28.1489C28.4681 23.1315 28.5957 23.003 28.5319 22.6817V21.4825C28.4681 19.5979 26.6596 18.3343 24.8298 18.8269C23.6383 19.2124 22.8298 20.2832 22.8298 21.5895C23.0426 24.0524 23.0426 25.6157 23.0426 27.95Z" fill="url(#paint0_linear_153_86328)"/>
  </g>
  <defs>
    <filter id="filter0_dd_153_86328" x="0" y="0" width="52" height="68" filterUnits="userSpaceOnUse" color-interpolation-filters="sRGB">
      <feFlood flood-opacity="0" result="BackgroundImageFix"/>
      <feColorMatrix in="SourceAlpha" type="matrix" values="0 0 0 0 0 0 0 0 0 0 0 0 0 0 0 0 0 0 127 0" result="hardAlpha"/>
      <feOffset/>
      <feGaussianBlur stdDeviation="8"/>
      <feColorMatrix type="matrix" values="0 0 0 0 0 0 0 0 0 0.416667 0 0 0 0 1 0 0 0 1 0"/>
      <feBlend mode="normal" in2="BackgroundImageFix" result="effect1_dropShadow_153_86328"/>
      <feColorMatrix in="SourceAlpha" type="matrix" values="0 0 0 0 0 0 0 0 0 0 0 0 0 0 0 0 0 0 127 0" result="hardAlpha"/>
      <feOffset dy="8"/>
      <feGaussianBlur stdDeviation="3"/>
      <feColorMatrix type="matrix" values="0 0 0 0 0 0 0 0 0 0 0 0 0 0 0 0 0 0 0.7 0"/>
      <feBlend mode="normal" in2="effect1_dropShadow_153_86328" result="effect2_dropShadow_153_86328"/>
      <feBlend mode="normal" in="SourceGraphic" in2="effect2_dropShadow_153_86328" result="shape"/>
    </filter>
    <linearGradient id="paint0_linear_153_86328" x1="16" y1="16" x2="16" y2="52" gradientUnits="userSpaceOnUse">
      <stop offset="0.000901442" stop-color="#66B3FF"/>
      <stop offset="1" stop-color="#8CFFFF"/>
    </linearGradient>
  </defs>
</svg>